<?xml version="1.0" standalone="no"?>
<!DOCTYPE svg PUBLIC "-//W3C//DTD SVG 1.1//EN" "http://www.w3.org/Graphics/SVG/1.1/DTD/svg11.dtd" >
<svg xmlns="http://www.w3.org/2000/svg" xmlns:xlink="http://www.w3.org/1999/xlink" version="1.1">
<metadata>
Created by FontForge 20170731 at Fri Jul 22 16:41:31 2022
 By Aleksey,,,
@delipensil
</metadata>
<defs>
<font id="SVN-Agoka-Italic" horiz-adv-x="1327" >
  <font-face 
    font-family="SVN-Agoka"
    font-weight="400"
    font-style="italic"
    font-stretch="normal"
    units-per-em="2048"
    panose-1="0 0 0 0 0 0 0 0 0 0"
    ascent="1638"
    descent="-410"
    x-height="1000.5"
    cap-height="1702"
    bbox="-408.923 -823 3146 2421.16"
    underline-thickness="0"
    underline-position="0"
    slope="-12"
    unicode-range="U+000A-F004"
  />
<missing-glyph horiz-adv-x="864" 
d="M283 1147h700l-201 -1147h-700zM324 1114l213 -506l393 506h-606zM512 573l-209 492l-174 -985zM528 539l-393 -504h606zM553 573l209 -495l174 991z" />
    <glyph glyph-name="ok.liga" unicode="ok" horiz-adv-x="2082" 
d="M2054 23l39 -11h-262q-109 0 -172 82q-25 39 -59 134t-66 128q-32 28 -74 39h-14l-39 -211q-12 -71 29 -121q40 -49 118 -49h-235q-78 0 -121 49t-31 121l39 215q-53 6 -104 15q-42 -119 -134.5 -217.5t-217.5 -151.5q-101 -42 -203 -44.5t-186 31t-147 101.5t-89 162
q-34 125 3 258.5t134 243t232 166.5q101 42 203 44.5t185.5 -31t146.5 -101.5t89 -162q38 -140 -10 -283q35 -9 100 -16l222 1294q-6 -35 -0.5 -63t19.5 -47t32.5 -38.5t38 -37.5t37 -44.5t28.5 -59t13 -81.5t-9 -112l-76 -432q41 53 111 100t147 76.5t152.5 46t136 12.5
t88.5 -29q30 -30 41.5 -73.5t1 -93.5t-38.5 -102.5t-80.5 -103t-121 -93t-164 -74t-205.5 -45.5q-35 -7 -100 -13q88 -6 159 -30.5t116.5 -58t81.5 -73t61 -77.5t47.5 -69.5t49 -50.5t58.5 -19zM897 618v3q-44 161 -139.5 258.5t-198.5 91.5q-30 -7 -43 -29q-36 -52 14 -151
q49 -93 150 -175.5t242 -136.5q-5 62 -25 139zM748 53h2q91 38 138 152.5t38 261.5q-146 54 -250.5 137.5t-153.5 177.5q-26 51 -29.5 95t15.5 71q10 15 12 17q-12 -3 -24 -9q-75 -31 -122 -119.5t-54 -203.5t26 -244q53 -187 170 -285t232 -51zM1743 930h-2
q-148 -41 -230 -166l-61 -354q23 0 35 2q136 12 248 54.5t177 97t96.5 112.5t21.5 106q-22 79 -98.5 124t-186.5 24z" />
    <glyph glyph-name="al.liga" unicode="al" horiz-adv-x="1484" 
d="M1397 61l-4 5q41 -50 118 -50h-237q-75 0 -119 50t-29 120l250 1461q-86 -267 -178 -441q-85 -166 -197 -291q38 -38 52 -84q34 -64 16 -153l-86 -502q-15 -70 27 -121q40 -49 118 -49h-235q-78 0 -121 49q-44 50 -29 121l88 449q-143 -14 -213 -37q-178 -58 -267 -184
q-71 -99 -50 -187q19 -81 109 -105q62 -17 147 -1q-15 -7 -40 -18t-93.5 -35.5t-127 -38t-120 -12.5t-92.5 28q-30 30 -41 73t-1 92.5t38 101.5t80.5 102.5t120.5 93t164 74.5t206 46l178 25l23 145q-115 -71 -234 -71h-16q-88 0 -135 69q-31 51 -14 95q20 45 79 75
q52 33 113 48q97 20 194.5 -0.5t159.5 -81.5q231 258 385 784l15 -2q-4 -12 -10 -37q0 -35 16 -64t39 -48t48 -47t43 -61.5t24.5 -90.5t-7.5 -135l-184 -1039q-12 -71 29 -121zM602 731h14q125 0 238 74q12 76 -29 123q-46 49 -155.5 45.5t-175.5 -51.5q-25 -21 -33 -43
q-17 -38 12 -84q42 -61 129 -64z" />
    <glyph glyph-name="an.liga" unicode="an" horiz-adv-x="2224" 
d="M2236 0l-6 -2h-172l2 2h-69q-68 0 -108 48.5t-28 115.5q7 41 23.5 129.5t22.5 126.5q38 227 -6 360.5t-152 165.5q-101 33 -246 -28l-65 -39q47 -79 22 -236l-84 -473q-12 -73 27 -121q40 -49 121 -49h-236q-80 0 -123 49q-42 47 -29 121l91 528q-80 -81 -160 -166
q-4 -4 -8 -4l-60 -352q-15 -70 27 -121q40 -49 119 -49h-236q-78 0 -121 49t-28 121l12 70q-240 -205 -459 -226q-157 -37 -215 13q-30 30 -41.5 73.5t-1.5 93t38 101.5t80.5 102t121 92.5t164.5 74.5t206 46q55 11 96.5 34t61 47.5t31.5 48t14 38.5l2 15q7 41 0 86.5
t-28 68.5q-38 44 -136 47q-61 -3 -116 -30.5t-90.5 -68t-58 -80.5t-29.5 -74l-125 45q38 94 186 160.5t293 60.5q103 -2 188 -48.5t117 -134.5q33 -73 16 -155l-20 -127q110 118 164 170l69 407q-8 -44 3.5 -78t31 -53t49 -48.5t45.5 -55.5q90 57 172.5 89.5t149.5 40
t126 -4t104 -40t80.5 -70.5t58 -92.5t34.5 -108.5q23 -95 -20 -340q-2 -13 -18 -103t-23 -131q0 -46 31 -82q37 -49 118 -49zM541 104l2 2q102 55 223 158l90 477q-38 -100 -235 -155q-177 -59 -265 -184q-71 -100 -51 -188q20 -82 111 -106q54 -14 125 -4z" />
    <glyph glyph-name="am.liga" unicode="am" horiz-adv-x="2840" 
d="M2888 4l-2 -2h-172v2h-70q-67 0 -106.5 48t-28.5 116q6 35 22 124.5t23 129.5q40 228 -4 362t-152 166q-130 41 -321 -65q56 -81 73 -176q21 -108 -20 -342q-5 -35 -12.5 -75.5t-16 -87.5t-12.5 -69q3 -44 29 -82q43 -49 120 -49h-172h-69q-67 0 -106 48t-27 116
q5 29 20.5 121.5t22.5 134.5q40 228 -3.5 362t-152.5 166q-128 38 -317 -63q50 -88 24 -242l-84 -473q-12 -71 29 -121q40 -49 119 -49h-236q-78 0 -121 49q-42 48 -30 121l94 553q-71 -69 -170 -182l-66 -371q-12 -70 27 -121q43 -49 121 -49h-236q-77 0 -123 49
q-40 49 -28 121l10 53q-124 -105 -254 -143q-48 -21 -99.5 -38.5t-115 -33t-118 -12t-83.5 28.5q-30 30 -41.5 73.5t-1.5 93t37.5 101.5t80 102t120.5 92.5t164 74.5t206 46q55 11 96.5 34t61 48t31.5 48.5t14 39.5l2 15q7 37 0 84.5t-26 70.5q-39 42 -136 45
q-62 -3 -116.5 -30.5t-90 -67.5t-58.5 -80.5t-31 -75.5l-125 48q25 61 103 114t180 82t196 25q68 -2 127.5 -21.5t108 -61.5t71.5 -102q30 -68 16 -153l-18 -107q99 114 168 183l65 383q-8 -43 3 -76.5t30 -52.5l48.5 -48.5t45.5 -54.5q58 37 125 64q92 43 174 57.5
t146.5 0.5t115 -46.5t87.5 -83.5q104 67 199 100.5t169 33.5t136 -23t106.5 -68t74 -102t44.5 -125q21 -105 -21 -342q-38 -212 -41 -232q0 -45 29 -82q43 -49 119 -49zM522 100l2 2q119 37 242 146l92 491q-12 -38 -64.5 -79.5t-168.5 -75.5q-178 -59 -267 -184
q-71 -100 -51 -188q18 -81 108 -105q47 -13 107 -7z" />
    <glyph glyph-name="ar.liga" unicode="ar" horiz-adv-x="1888" 
d="M1933 987h-4q97 -35 154 -121l-203 -166h-4q-27 104 -108.5 151.5t-215.5 12.5q-30 -13 -73 -47l-72 -450h-2l-10 -60q-12 -70 -35.5 -125t-51 -88.5t-58 -59.5t-60.5 -46.5t-55.5 -41.5t-45 -51.5t-26.5 -70.5l35 176h-195q-81 0 -121 49q-43 46 -30 121l8 47
q-239 -176 -447 -203q-164 -37 -225 13q-30 30 -41 73t-0.5 92.5t38.5 101.5t80.5 102.5t120.5 93t163.5 74.5t205.5 46q55 11 96.5 34t61 47.5t31.5 48t14 38.5l2 15q7 37 0 84.5t-26 70.5q-38 44 -134 47q-62 -3 -117.5 -31t-91.5 -68t-59 -80.5t-31 -74.5l-125 45
q26 62 104 115t180.5 82t197.5 25q106 -3 189 -49.5t114 -135.5q33 -62 18 -153l-35 -201q52 48 82 74q10 9 39 35t43 40l41 226q13 75 -28 121q-40 49 -119 49h237q76 0 119 -49q42 -47 29 -121v-8q11 9 33 22q19 15 44.5 32t71 41.5t90 38t101.5 22.5t106 -5zM545 100l4 2
q96 49 217 136l94 499q-12 -38 -64.5 -79.5t-168.5 -75.5q-178 -58 -268 -184q-70 -99 -50 -188q18 -81 107 -106q55 -15 129 -4zM1020 51q24 -33 80 -47l76 422l30 176q-10 -10 -22 -20.5t-26 -23.5t-23 -21q-14 -12 -46 -40.5t-49 -43.5l-49 -281q-13 -74 29 -121z" />
    <glyph glyph-name=".notdef" horiz-adv-x="864" 
d="M283 1147h700l-201 -1147h-700zM324 1114l213 -506l393 506h-606zM512 573l-209 492l-174 -985zM528 539l-393 -504h606zM553 573l209 -495l174 991z" />
    <glyph glyph-name=".null" horiz-adv-x="0" 
 />
    <glyph glyph-name=".null" horiz-adv-x="0" 
 />
    <glyph glyph-name="nonmarkingreturn" horiz-adv-x="682" 
 />
    <glyph glyph-name="controlLF" unicode="&#xa;" horiz-adv-x="0" 
 />
    <glyph glyph-name="controlCR" unicode="&#xd;" horiz-adv-x="0" 
 />
    <glyph glyph-name="space" unicode=" " horiz-adv-x="505" 
 />
    <glyph glyph-name="exclam" unicode="!" horiz-adv-x="403" 
d="M389 356h-248l244 1391h248zM348 135l-147 -123l-103 123l148 125z" />
    <glyph glyph-name="numbersign" unicode="#" horiz-adv-x="1730" 
d="M1536 1184l-289 -590l383 -2l-4 -33l-395 2l-283 -571l-28 10l276 561l-686 2l-285 -573l-28 10l276 563l-305 2l8 33l313 -2l289 586h-348l4 32h361l272 551l31 -10l-267 -541l687 3l270 548l31 -10l-267 -538h320l-4 -33h-332zM1212 594l291 590l-688 -2l-287 -586z
" />
    <glyph glyph-name="dollar" unicode="$" horiz-adv-x="1437" 
d="M1591 1163l-245 6q22 44 30 102.5t-2.5 125.5t-38.5 130.5t-84.5 121t-134.5 92.5q-31 7 -72 14l-108 -612q218 -54 351.5 -143t174.5 -209q24 -64 17.5 -140t-25.5 -137.5t-45 -105.5l-2 -5v3q-60 -94 -154.5 -176t-195.5 -126q-106 -46 -217 -55q-44 -5 -99 -2l-12 -67
h-14l12 69q-58 7 -94 14q-119 16 -219.5 57.5t-172 104t-105 149.5t-17.5 187l248 29q-14 -42 -14.5 -94.5t16 -111t47.5 -113t86 -102.5t125 -77q55 -13 106 -16l135 772q-413 93 -510 338q-13 35 -15 80.5t13.5 106.5t50.5 120.5t106.5 123.5t170.5 114q168 73 352 51
l15 80h14l-14 -80q101 -14 206 -62q16 -8 62 -39q167 -86 244 -221.5t28 -296.5zM1202 727v-2q-151 83 -321 117l-136 -772q159 -10 306 55q23 9 77 43q67 41 112 122.5t56.5 166t-12.5 161.5t-82 109zM922 1143l112 608q-176 22 -340 -49h-4q-107 -47 -161 -132.5t-37 -172
t104 -137.5q129 -73 297 -111q25 -5 29 -6z" />
    <glyph glyph-name="percent" unicode="%" horiz-adv-x="1589" 
d="M1321 1071v2q116 0 202 -72.5t121 -197.5t9 -273q-40 -224 -194 -383t-331 -159q-116 0 -201.5 72.5t-120 197.5t-7.5 272q24 139 94 261l-645 -803l-8 8l661 819q-73 -76 -159 -119t-173 -43q-117 0 -202.5 73t-120.5 198t-10 272q26 147 105.5 272t191 198t227.5 73
t201.5 -73t120.5 -198t10 -272q-26 -155 -119 -293l690 854l8 -8l-657 -811q146 133 307 133zM668 682q78 13 143.5 93.5t103 206t37.5 265.5q-1 141 -39 252.5t-103.5 169t-143.5 43.5t-143.5 -94.5t-103.5 -205.5t-38 -265t39 -252.5t105 -169.5t143 -43zM1227 16
q118 22 201 187t83 379q0 140 -38.5 252.5t-104.5 169.5t-143 43q-78 -13 -143.5 -94t-103.5 -206.5t-38 -265.5q1 -140 39.5 -252t104 -169.5t143.5 -43.5z" />
    <glyph glyph-name="ampersand" unicode="&#x26;" horiz-adv-x="1974" 
d="M1929 479h6q47 -59 35 -139q-14 -79 -84 -139q-74 -58 -149 -58q-82 0 -131 58q-47 60 -33 139q8 35 20 63q-15 -6 -53 -21.5t-65.5 -28.5t-53.5 -29q-24 -19 -90 -68l74 -121q81 -120 90 -133h-250q-3 5 -17.5 25t-21.5 32h-2q-4 7 -12 19q-4 5 -12.5 16.5t-12.5 16.5
q-11 21 -16 28q-227 -135 -442 -135q-45 0 -70 2q-54 -4 -78 -4q-77 0 -153 27q-142 49 -211 168q-70 121 -43 262q12 67 39 123q46 104 131 192q91 91 188 144q54 33 98 47q33 21 92 39q-68 211 -45 346q21 129 97 221q70 90 172 137q101 43 200 43q72 0 131 -20
q18 -4 44 -20t59 -47t52 -87.5t11 -126.5q-11 -60 -47 -133q-23 -63 -69 -121q-115 -140 -306 -152q-30 -3 -57 -6q27 -89 66 -174q122 -285 313 -598q49 38 96 72q6 5 19.5 14.5t19.5 14.5q38 33 131 98q107 72 191 72h10h10q80 0 129 -58zM1008 1567h-2q-74 -96 -97 -221
q-19 -127 31 -295q9 1 29 2t30 2q183 12 297 145q69 84 90 191q12 62 3.5 117t-33.5 90.5t-60.5 60.5t-76 28t-80.5 -8q-80 -47 -131 -112zM684 16q223 -8 469 134q-295 502 -332 581q-88 193 -100 238l-12 24q-1 -1 -4.5 -3t-4.5 -3h5q-72 -55 -137 -143t-110 -198.5
t-49.5 -227t44.5 -228.5q62 -116 213 -170q2 0 18 -4z" />
    <glyph glyph-name="quotesingle" unicode="'" horiz-adv-x="348" 
d="M487 1087l-4 5q17 -33 11 -72q-6 -28 -25 -57q-28 -47 -72 -91q-47 -54 -94 -92q37 34 84 111q-30 -12 -53 -12q-65 0 -101 39q-31 37 -22 100q9 62 59 100q50 41 113 41q27 0 57 -20q29 -17 47 -52z" />
    <glyph glyph-name="parenleft" unicode="(" horiz-adv-x="806" 
d="M723 4q1 -1 4 -3t4 -3h-219q-123 0 -211 61q-91 64 -131 166q-42 108 -18 226l149 852q20 116 96 221q77 99 191 159q108 60 231 60h182q-85 -12 -167 -55q-110 -58 -189 -160q-77 -103 -98 -221l-150 -852q-21 -123 19 -226q45 -108 131 -168q79 -51 176 -57z" />
    <glyph glyph-name="parenright" unicode=")" horiz-adv-x="806" 
d="M940 1524q42 -97 23 -221l-152 -852q-21 -120 -98 -226q-78 -104 -191 -166q-113 -61 -231 -61h-221l12 6q96 6 194 57q113 61 191 168q80 106 98 226l152 852q21 122 -21 221q-46 104 -133 160q-64 43 -147 55h182q125 0 211 -60q91 -58 131 -159z" />
    <glyph glyph-name="asterisk" unicode="*" horiz-adv-x="847" 
d="M1063 1393l-6 -37h-350l204 -248l-30 -27l-205 248l-62 -350h-36l61 350l-291 -248l-22 27l290 248h-350l6 37h351l-203 247l31 27l202 -248l64 350h37l-62 -350l291 248l21 -27l-291 -247h350z" />
    <glyph glyph-name="plus" unicode="+" horiz-adv-x="1800" 
d="M1077 899h811l-8 -37h-811l-141 -811h-39l143 811h-811l6 37h811l146 811h37z" />
    <glyph glyph-name="comma" unicode="," horiz-adv-x="346" 
d="M332 217l-4 4q15 -26 12 -71q-9 -31 -25 -56q-22 -40 -71 -92q-51 -54 -94 -92q27 27 83 110q-35 -12 -55 -12q-65 0 -98 39q-34 37 -25 100q13 64 60 103q51 39 114 39q29 0 56 -21q30 -18 47 -51z" />
    <glyph glyph-name="hyphen" unicode="-" horiz-adv-x="1683" 
d="M1823 862h-1661l6 37h1661z" />
    <glyph glyph-name="period" unicode="." horiz-adv-x="292" 
d="M289 102l-146 -125l-104 125l147 123z" />
    <glyph glyph-name="slash" unicode="/" horiz-adv-x="724" 
d="M961 1741l-859 -1739l-30 10l858 1737z" />
    <glyph glyph-name="zero" unicode="0" horiz-adv-x="1462" 
d="M1038 1749q187 0 324 -116t193 -315.5t14 -436.5q-40 -235 -167 -435.5t-305.5 -317t-363.5 -116.5q-112 0 -209 44.5t-166 123.5t-115 188t-55.5 238.5t13.5 274.5q31 177 113.5 338t194.5 277t250.5 184.5t278.5 68.5zM889 53q124 22 228.5 151.5t164.5 331t59 427.5
q-1 225 -62.5 404.5t-167 271t-230.5 69.5q-123 -21 -227.5 -150t-164.5 -330.5t-59 -426.5q0 -225 62 -404.5t167.5 -272t229.5 -71.5z" />
    <glyph glyph-name="one" unicode="1" horiz-adv-x="487" 
d="M711 1755h2l-47 -270l-260 -1481h-246l262 1483h-2h-1h-2h-2h-1h-2h-2h-2h-1h-2h-2h-2h-1h-2h-2h-2h-1h-2h-2h-2h-1h-2h-2h-2h-1h-2h-2h-2h-2h-1h-2h-2h-2h-2h-2h-1h-2h-2h-2h-2h-2h-2h-2h-1h-2h-2h-2h-2h-2h-2h-2h-2h-2h-2h-2h-2h-2h-2h-2h-2h-2h-2h-2h-2h-2h-2h-2h-2
h-9l395 248l31 22z" />
    <glyph glyph-name="two" unicode="2" horiz-adv-x="1468" 
d="M1214 715l304 6q-48 0 -105.5 -40t-115.5 -103.5t-120 -140.5t-126.5 -154.5t-127 -141t-129.5 -103.5t-126 -40h-254h6h-131h-242l94 526q16 91 80.5 172.5t179 155t210 122.5t244.5 119q114 53 170 80.5t143 76t123 84t70.5 83t27 96.5t-47.5 103q-159 149 -391 108
q-81 -14 -183.5 -61t-198.5 -122t-136 -152l-10 4q48 96 203 205t323 139q292 53 469 -187q63 -65 91.5 -124.5t31.5 -105.5t-31 -93.5t-70.5 -80.5t-113 -75t-132.5 -68.5t-153 -70.5q-102 -46 -155.5 -71t-144 -72.5t-142 -87t-110.5 -92.5t-91.5 -113t-44.5 -127
l-61 -357h158q44 26 120 108.5t158 179.5t168 191.5t171.5 158t147.5 65.5z" />
    <glyph glyph-name="three" unicode="3" horiz-adv-x="1413" 
d="M965 1198v4q123 0 226 -47.5t169.5 -128.5t94.5 -192.5t7 -233.5q-22 -123 -89.5 -235t-162.5 -192.5t-215 -128.5t-243 -48q-163 0 -287.5 80.5t-181 220t-27.5 303.5q11 64 37 133l186 156l8 8q-35 -100 -28 -227.5t57 -249.5q33 -83 82 -152.5t106 -116t118 -72
t124 -24t119 30.5q141 74 181 277t-46 415q-62 156 -171 254t-226 107l-2 -2l-4 10l567 362h-1028l389 248h1028l4 2l4 -2h2l-4 -2l4 -6l-168 -107l-198 -135h-13l-493 -315q37 6 74 6z" />
    <glyph glyph-name="four" unicode="4" horiz-adv-x="1519" 
d="M1249 362h267l-3 -14h-262l-43 -237l-293 -279l91 516h-873l2 14l817 1330l226 -6l-2 -15l-2 -2l-797 -1307h627l65 363l-2 -2l2 14l268 176v-4l11 6z" />
    <glyph glyph-name="five" unicode="5" horiz-adv-x="1355" 
d="M889 1178v-2q163 0 287.5 -81t180.5 -220.5t27 -303.5q-29 -163 -134 -302t-258 -219.5t-316 -80.5q-213 0 -352 108.5t-156 299.5l219 221q12 -106 51 -203q42 -104 107.5 -185t139.5 -124.5t153 -53.5t149 29q93 48 145 158t50.5 252.5t-58.5 280.5q-33 83 -82 152.5
t-106 115.5t-118 71.5t-124 24t-119 -30.5q-111 -58 -165 -215l-11 -61l-239 -250l139 801l217 149l328 246h870l-309 -248h-881l-90 -503q98 82 215.5 128t239.5 46z" />
    <glyph glyph-name="six" unicode="6" horiz-adv-x="1267" 
d="M850 1186l6 -2q163 0 287.5 -80.5t181 -220t27.5 -303.5q-29 -163 -134.5 -302t-258.5 -220t-316 -81q-164 0 -289 81t-181.5 220t-27.5 302q1 3 2.5 10t2.5 10q5 51 26 123q20 75 78 199q15 36 49 94q46 74 57 90q55 83 127 168q113 143 283 303q174 164 315 268
q-159 -153 -280 -299q-136 -157 -236 -321q-31 -46 -86 -150q176 111 367 111zM954 70l-2 -2q141 74 181 276t-46 414q-42 104 -107.5 184.5t-139 123.5t-152.5 53t-149 -29q-33 -17 -74 -58q-1 -3 -33 -69q-2 -5 -14 -35.5t-17 -46.5q-31 -99 -39 -170q-9 -76 -2 -156h-2
q17 -84 48 -154q33 -83 81.5 -152t105.5 -115t118 -71t124 -23.5t119 30.5z" />
    <glyph glyph-name="seven" unicode="7" horiz-adv-x="1519" 
d="M1743 1747l4 -4l-1348 -1055l-108 -682l-246 -6l78 471l-6 8l1313 1028h-1137l350 248h1112z" />
    <glyph glyph-name="eight" unicode="8" 
d="M1477 1200q-36 -178 -146 -315q63 -142 33 -316q-28 -163 -133.5 -302t-259 -219.5t-316.5 -80.5q-122 0 -225 47.5t-169.5 128.5t-94.5 192.5t-6 233.5q26 167 143 316q-62 147 -33 315q28 163 133 302t258.5 219.5t317.5 80.5q122 0 225.5 -47.5t170 -128.5t95 -192.5
t7.5 -233.5zM668 1710h2q-133 -69 -177.5 -254.5t21.5 -386.5q172 102 358 102q122 0 223.5 -47t170.5 -131q29 191 -49 385q-42 104 -107.5 184.5t-139.5 123.5t-153 53t-149 -29zM1118 713q-2 6 -6 17.5t-6 17.5q-34 83 -83 151.5t-106 114.5t-118.5 71.5t-124 24
t-117.5 -30.5q-25 -11 -41 -24q11 -26 12 -35q42 -104 107.5 -184.5t139.5 -123.5t153.5 -53t150.5 29q19 8 39 25zM971 59h-2q133 69 176.5 254.5t-23.5 386.5q-168 -102 -356 -102q-122 0 -224 47t-171 131q-29 -188 51 -385q85 -211 246 -308t303 -24z" />
    <glyph glyph-name="nine" unicode="9" horiz-adv-x="1259" 
d="M1438 1225l-6 4q-9 -61 -27 -123q-22 -85 -78 -199q-6 -15 -14.5 -30.5t-18.5 -34t-16 -29.5q-27 -47 -57 -90q-59 -90 -125 -170q-132 -159 -285 -303q-173 -162 -313 -266q147 138 280 299q144 171 236 321q40 64 86 150q-179 -111 -367 -111q-123 0 -226.5 47.5
t-170 128.5t-94.5 192.5t-6 233.5q21 122 88 233.5t162 192.5t215 128.5t243 47.5q122 0 225.5 -47.5t170 -128.5t95 -192.5t7.5 -233.5q-4 -12 -4 -20zM1176 946l2 2q31 99 39 170q12 77 2 156h2q-16 80 -45 153q-42 104 -107.5 185t-139.5 124.5t-153 53.5t-149 -29
q-94 -48 -145.5 -157.5t-50.5 -252t58 -282.5q85 -211 246 -308t303 -24q43 22 74 58q2 5 14 29.5t17 39.5q26 59 33 82z" />
    <glyph glyph-name="colon" unicode=":" horiz-adv-x="317" 
d="M418 766l-148 -125l-102 125l147 123zM319 201l-145 -125l-104 125l147 123z" />
    <glyph glyph-name="semicolon" unicode=";" horiz-adv-x="372" 
d="M297 608v2q-64 0 -100 39q-32 38 -23 101q9 59 59 100q48 39 113 39q28 0 57 -19q34 -26 46 -51q16 -32 10 -71q-5 -34 -37 -70q-21 -26 -62 -51q-36 -19 -63 -19zM315 367l-4 4q29 -20 45 -52q20 -33 11 -71q-3 -30 -25 -55q-25 -45 -70 -93q-41 -44 -96 -92
q33 30 84 111q-32 -13 -51 -13q-67 0 -100 39q-35 41 -23 101q9 63 57 102q51 39 115 39q28 0 57 -20z" />
    <glyph glyph-name="less" unicode="&#x3c;" horiz-adv-x="765" 
d="M952 1454l-676 -573l474 -574l-31 -26l-494 600l17 12l688 586z" />
    <glyph glyph-name="greater" unicode="&#x3e;" horiz-adv-x="765" 
d="M840 893l10 -12l-705 -600l-22 26l676 574l-473 573l30 25z" />
    <glyph glyph-name="question" unicode="?" horiz-adv-x="1300" 
d="M1487 1333h-2q63 -314 -257 -519q-167 -107 -505 -216q-41 -13 -119 -37q-256 -80 -341 -123q-103 -51 -120 -106q6 37 49.5 75.5t111 75t153 76.5t177 84.5t182 94t169.5 110.5t138 128t89 152.5t21 178.5q-17 134 -79.5 232.5t-148 141.5t-174.5 27q-139 -24 -252 -184
t-165 -394h-189q111 271 324 445t442 174q91 0 170.5 -24.5t146 -73.5t113.5 -130t66 -188zM305 135l-145 -123l-105 123l148 125z" />
    <glyph glyph-name="at" unicode="@" horiz-adv-x="1906" 
d="M2011 864l8 6v-6q-13 -54 -16 -73q-15 -62 -33.5 -121t-48.5 -136t-69.5 -141.5t-88.5 -122t-113.5 -92.5t-136.5 -41h-10q-125 0 -170 58q-21 32 -16 69h-2l24 142q-196 -150 -424 -150q-165 0 -291 81.5t-182.5 221.5t-27.5 305q22 124 90 237t164 195t217 130.5
t245 48.5q229 0 373 -150l21 119h248l-209 -1178h-234q-5 -38 12 -63q42 -54 170 -51q75 5 142 46.5t114.5 99.5t89 137.5t66 147t45.5 142.5l-2 2q1 5 19 64q2 12 5 27.5t5 26.5t4 19q32 182 -10.5 347.5t-141.5 285.5t-253 191t-337 71q-182 0 -360.5 -71t-320 -191.5
t-242.5 -286.5t-133 -348q-32 -183 10 -349.5t141.5 -286.5t253 -191.5t336.5 -71.5q190 0 385 82l12 -8q-201 -84 -401 -84q-184 0 -339.5 72t-255.5 193.5t-142.5 290t-10.5 353.5t134 353.5t245.5 290.5t324.5 194t366 72q179 0 331.5 -68t252.5 -183.5t147.5 -275.5
t25.5 -338h2q0 -1 -1 -6t-3 -15.5t-4 -21.5zM1235 348q144 75 184 280.5t-47 420.5q-42 106 -108 188t-140.5 125.5t-154.5 53t-150 -29.5q-95 -49 -147 -160t-50.5 -255t58.5 -285q35 -85 84.5 -155t107 -116.5t119.5 -72t125 -24.5t119 30z" />
    <glyph glyph-name="A" unicode="A" 
d="M811 858zM1083 1700l265 -1698h-248l-60 377h-813l-245 -383l-11 6l246 387l2 6h4l658 1018l-45 287h247zM238 391h800l-157 998z" />
    <glyph glyph-name="B" unicode="B" horiz-adv-x="1548" 
d="M1311 848h4q21 -5 40.5 -11t44.5 -16.5t46 -24t44 -32t39 -42t31.5 -53.5t21.5 -65.5t8 -79t-9 -94.5q-16 -93 -67 -175.5t-117.5 -136.5t-140 -85t-138.5 -31h-1009v2h-25l299 1696h248h760q17 0 44 -3.5t94 -27.5t114 -64.5t76.5 -127.5t9.5 -203
q-20 -113 -89.5 -208.5t-155.5 -149.5t-173 -68zM629 1686l-148 -830h639q63 0 139.5 61t136.5 159t77 196q12 50 9.5 100.5t-12 96.5t-39 85.5t-72.5 69t-111.5 46t-155.5 16.5h-463zM811 14v-2q124 0 237.5 62t185 157t89.5 197q17 98 -7 195t-78.5 158t-121.5 61h-637
l-147 -828h479z" />
    <glyph glyph-name="C" unicode="C" horiz-adv-x="1624" 
d="M1569 483l160 -4q-145 -218 -376 -350.5t-481 -132.5q-140 0 -264 44t-214 122t-152.5 185.5t-80 235.5t4.5 271q31 174 127 332.5t231 273.5t306 182.5t346 67.5q287 0 487 -174l-162 -154q-111 176 -277.5 250.5t-340.5 16.5q-163 -56 -283 -208t-168 -361.5
t-10 -424.5q39 -216 152 -371.5t270 -215.5t321 -5q132 45 236.5 155.5t167.5 264.5z" />
    <glyph glyph-name="D" unicode="D" horiz-adv-x="1507" 
d="M961 1700h2q169 -5 310 -74.5t231.5 -183t128 -268.5t7.5 -326q-40 -227 -184.5 -420t-355 -308t-438.5 -122h-7h-20h-4h-303h-248l301 1702h248h334h-2zM641 12q122 0 243.5 66t221 178t174 266.5t104.5 325.5q39 227 -6 419t-162.5 304t-279.5 112h-6h-303l-295 -1671
h303h6z" />
    <glyph glyph-name="E" unicode="E" horiz-adv-x="1454" 
d="M1761 1686h-1134l-148 -828h1137l-4 -14h-1135l-145 -828h1134l-2 -14h-1382v2l299 1696h248h1136z" />
    <glyph glyph-name="F" unicode="F" horiz-adv-x="1445" 
d="M1761 1686h-1134l-148 -828h1137l-4 -14h-1135l-147 -840h-248l299 1696h248h1136z" />
    <glyph glyph-name="G" unicode="G" horiz-adv-x="1744" 
d="M1855 748l3 -7l-3 -16h-2l-129 -741q8 43 -1.5 75t-30.5 54.5t-44 43.5t-46.5 53.5t-34.5 72.5q-144 -134 -325 -210.5t-370 -76.5q-174 0 -320.5 68t-241 182.5t-134 273t-8.5 332.5q30 174 125.5 332.5t230.5 273t306 182.5t346 68q281 0 477 -166l-172 -131
q-111 160 -271 225t-327 9q-163 -55 -283 -207t-168 -362t-10 -425q24 -129 76 -239.5t124 -189t160.5 -128.5t184.5 -57t198 24q128 42 230.5 148t165.5 254v10l47 260h-293l4 15h291h245z" />
    <glyph glyph-name="H" unicode="H" horiz-adv-x="1554" 
d="M1526 1700h248l-301 -1696h-248l147 840h-895l-147 -840h-248l299 1696h248l-150 -842h897z" />
    <glyph glyph-name="I" unicode="I" horiz-adv-x="413" 
d="M330 4h-248l299 1698h248z" />
    <glyph glyph-name="J" unicode="J" horiz-adv-x="1650" 
d="M1741 815l4 4l-2 -4q-2 -10 -6 -28t-22 -73.5t-41.5 -109.5t-67 -127t-95.5 -135.5t-130 -126.5t-167.5 -109t-211 -73.5t-257.5 -28.5q-251 0 -435 132t-251 349h160q8 -155 73 -264.5t183 -154.5q54 -21 124 -22t145.5 15t156 50.5t157.5 82.5t148 114t128.5 141
t99 167.5t59.5 190.5l160 905h248z" />
    <glyph glyph-name="K" unicode="K" horiz-adv-x="1503" 
d="M676 987l862 -985h-305l-756 838l-147 -836h-248l299 1696h248l-146 -826l1264 836l4 -10z" />
    <glyph glyph-name="L" unicode="L" horiz-adv-x="1423" 
d="M332 14h1134l-2 -14h-1382v2l299 1698h246z" />
    <glyph glyph-name="M" unicode="M" horiz-adv-x="2451" 
d="M2425 1698h241l-296 -1696v0h-244l293 1661l-1178 -1657l2 6l-6 -8q2 2 -211.5 417t-427 832t-211.5 422l-295 -1671h-10q299 1688 299 1694h-14l278 -2q-3 -2 184 -364.5t375 -725t187 -364.5z" />
    <glyph glyph-name="N" unicode="N" horiz-adv-x="1339" 
d="M1540 1696h12l-297 -1692h-14v0v6l-6 -10q2 2 -211 417t-427.5 832t-213.5 422l-293 -1671h-10q297 1690 299 1694h-14l278 -2q-2 -1 116.5 -231t303 -586t248.5 -480z" />
    <glyph glyph-name="O" unicode="O" horiz-adv-x="1748" 
d="M1176 1714q175 0 322 -68t241.5 -182.5t134 -273.5t8.5 -334q-31 -174 -127 -332.5t-231 -273t-305.5 -182.5t-344.5 -68t-320.5 67.5t-241 182.5t-134.5 273.5t-10 332.5q31 175 127 334t231 273.5t305.5 182.5t344.5 68zM1165 63q163 56 283 208t168 361.5t10 424.5
q-39 216 -152 371.5t-270 215.5t-321 5q-163 -56 -283 -208t-168 -361.5t-10 -424.5q39 -216 152 -371.5t270 -215.5t321 -5z" />
    <glyph glyph-name="P" unicode="P" horiz-adv-x="1503" 
d="M1389 1700h2q17 0 44 -3.5t94 -27.5t114 -64.5t76.5 -127.5t9.5 -203q-22 -125 -101.5 -226t-177 -152.5t-186.5 -51.5h-787l-147 -840h-248l299 1696h248h760zM1120 858l-2 -2q64 0 140.5 61t136 159t75.5 196q12 50 10 100.5t-12 96.5t-39.5 85.5t-72 69t-111 46
t-155.5 16.5h-463l-146 -828h639z" />
    <glyph glyph-name="Q" unicode="Q" horiz-adv-x="2052" 
d="M2093 45l2 -16q-289 -76 -508 -76q-257 0 -397 102q-157 -55 -316 -55q-174 0 -320.5 67.5t-241 182.5t-134.5 273.5t-10 332.5q31 175 127 334t231 273.5t305.5 182.5t344.5 68q175 0 322 -68t241.5 -182.5t134 -273.5t8.5 -334q-47 -265 -232.5 -480t-441.5 -313
q82 -57 200 -80.5t245 -14t232.5 28.5t207.5 48zM1165 63v5q1 1 5 2t6 2q-178 146 -140 463q12 105 69 188.5t150 130.5q88 44 177.5 40.5t152.5 -54.5q35 -30 53 -66q12 141 -12 283q-39 216 -152 371.5t-270 215.5t-321 5q-163 -56 -283 -208t-168 -361.5t-10 -424.5
q39 -216 152 -371.5t270 -215.5t321 -5zM1192 78l2 -2q176 70 294.5 253.5t145.5 418.5q-18 45 -59 81q-60 47 -145 50.5t-170 -39.5q-90 -46 -145.5 -127t-65.5 -183q-37 -307 135 -448q4 -4 8 -4z" />
    <glyph glyph-name="R" unicode="R" horiz-adv-x="1525" 
d="M748 846l776 -842h-305l-742 823l-145 -823h-248l299 1698h248h760q17 0 44 -3.5t94 -27.5t114 -65t76.5 -128t9.5 -204q-16 -93 -67 -175.5t-117.5 -136.5t-140.5 -85t-140 -31h-516zM627 1686l-148 -830h639q64 0 140.5 61t136 159t75.5 196q12 50 10 100.5t-12 96.5
t-39.5 85.5t-72 69t-111 46t-155.5 16.5h-463z" />
    <glyph glyph-name="S" unicode="S" horiz-adv-x="1402" 
d="M1561 1090l-240 4q28 56 31.5 133t-18 159t-84.5 158.5t-158 120.5q-219 53 -426 -35h-7q-106 -47 -159.5 -132.5t-36 -172t103.5 -137.5q132 -79 297 -111q236 -53 382 -144.5t190 -215.5q22 -64 15.5 -139.5t-25.5 -138.5t-46 -107v-4v2q-62 -94 -156.5 -175.5
t-195.5 -125.5q-109 -47 -215 -56t-207 15q-119 16 -219 57t-171.5 103t-104.5 148.5t-17 186.5l246 29q-14 -42 -14.5 -94.5t16 -111t48 -113t86.5 -102.5t126 -77q216 -51 420 37q30 11 80 43q67 41 112 122.5t56.5 166t-12.5 161.5t-82 109q-136 76 -326 119
q-206 44 -338.5 131t-179.5 209q-14 35 -16.5 80.5t13 106.5t50.5 120.5t106.5 123.5t171.5 114q153 61 297 56t275 -66q25 -15 61 -39q167 -86 243.5 -221.5t27.5 -296.5z" />
    <glyph glyph-name="T" unicode="T" horiz-adv-x="1275" 
d="M1063 1700h553l-4 -14h-551l-297 -1682h-248l297 1682h-557l2 14h557h248z" />
    <glyph glyph-name="U" unicode="U" horiz-adv-x="1732" 
d="M1825 823q-2 -10 -6 -27t-18.5 -62t-33 -90.5t-50.5 -107.5t-70 -118q-51 -76 -116.5 -141.5t-159 -129t-222 -104t-277.5 -47.5h-22q-118 6 -216 34.5t-163.5 69.5t-117 97t-80.5 109t-48 112q-62 188 -32 395v2l2 10l157 887h254l-160 -905q-35 -195 18 -399t165 -304
q72 -49 141 -72t102 -22l33 2q140 9 261 49t209.5 101.5t150.5 124t112 135.5q60 87 102.5 185.5t55 146.5t12.5 57v2v2l160 895h14z" />
    <glyph glyph-name="V" unicode="V" horiz-adv-x="1830" 
d="M2159 1698l-938 -1448l116 -252h-290l-787 1698h291l666 -1432l929 1440z" />
    <glyph glyph-name="W" unicode="W" horiz-adv-x="2818" 
d="M3146 1698l-938 -1448l116 -252h-288l-410 883l-409 -623l120 -260h-290l-3 12l-6 2l2 2l-780 1682h291l659 -1422l410 623l-371 799h289l666 -1432l929 1440z" />
    <glyph glyph-name="X" unicode="X" horiz-adv-x="1339" 
d="M1657 1696l-739 -754l438 -944h-291l-344 743l-721 -737l-8 8l723 740l-436 942h290l342 -740l736 750z" />
    <glyph glyph-name="Y" unicode="Y" horiz-adv-x="1830" 
d="M2159 1698l-936 -1446l116 -254h-284l-488 -754l-12 6l489 756l-782 1690h291l661 -1430l932 1438z" />
    <glyph glyph-name="Z" unicode="Z" 
d="M1645 1696h4l-7 -8v0l-1372 -1680h1078l-2 -14h-1358v4h-15l1379 1688h-1067l4 14h1358z" />
    <glyph glyph-name="bracketleft" unicode="[" horiz-adv-x="700" 
d="M930 1708h-297l-297 -1679h297l-6 -33h-295h-252l309 1745h92h131h27h297z" />
    <glyph glyph-name="backslash" unicode="\" horiz-adv-x="724" 
d="M655 12l-32 -8l-246 1737l33 10z" />
    <glyph glyph-name="bracketright" unicode="]" horiz-adv-x="700" 
d="M831 1741l93 -2l-308 -1745h-251h-295l4 33h297l297 1681h-297l6 33h297h26h131z" />
    <glyph glyph-name="asciicircum" unicode="^" horiz-adv-x="724" 
d="M672 1759l282 -346l-16 -16l-272 332l-392 -332l-12 16l400 338z" />
    <glyph glyph-name="a" unicode="a" horiz-adv-x="1083" 
d="M1018 43h-2q43 -49 119 -49h-236q-78 0 -121 49q-41 46 -28 121l106 567q-37 -99 -235 -156q-176 -58 -265 -183q-71 -101 -51 -189q19 -82 109 -106q62 -17 147 -1q-15 -7 -40 -18t-93.5 -35.5t-127 -38t-120 -12.5t-92.5 28q-30 30 -41 73.5t-1 93t38 102t80.5 102.5
t120.5 92.5t164 74.5t206 46q55 11 96.5 34t60.5 48t30.5 48.5t13.5 38.5l2 15q8 37 1 84.5t-28 71.5q-36 42 -133 45q-62 -3 -117 -30.5t-91 -67.5t-58.5 -80.5t-30.5 -75.5l-125 47q38 93 186 160.5t294 61.5q106 -3 189.5 -49.5t115.5 -135.5q31 -62 16 -153l-88 -502
q-12 -71 29 -121z" />
    <glyph glyph-name="b" unicode="b" horiz-adv-x="1034" 
d="M465 909l2 -2q269 134 444 34q125 -71 167 -236q43 -167 -17 -342q-63 -187 -215 -283q-52 -32 -111 -51q-50 -7 -90.5 -7t-81 14t-70 28t-57 34.5t-42.5 33.5t-27 26q-17 14 -27 26l-2 -12q-12 -73 27 -121q40 -49 120 -49h-235q-80 0 -123 49q-42 47 -29 121l95 553
q-5 0 -7 -2q2 2 7 2l165 971q-7 -40 1 -71t26 -50.5t40.5 -42.5t44.5 -46t37.5 -61t20 -87.5t-7.5 -125.5zM401 154l-4 2q180 -51 313 76q105 99 140 264q35 163 -19 283q-59 131 -197 139q-77 5 -171 -31l-121 -678q23 -33 59 -55z" />
    <glyph glyph-name="c" unicode="c" horiz-adv-x="978" 
d="M899 256l125 10q-111 -153 -274 -221q-101 -42 -203 -44.5t-186 31t-147 101.5t-89 162q-34 125 3 258.5t134 243t232 166.5q151 63 291.5 41t234.5 -119q-40 -21 -106 -72t-74 -57q-64 126 -159.5 182t-186.5 18q-75 -31 -122 -119.5t-54 -203.5t26 -244
q53 -186 170 -284.5t231 -51.5q111 49 154 203z" />
    <glyph glyph-name="d" unicode="d" horiz-adv-x="1099" 
d="M1020 53v-4q40 -49 121 -49h-236q-80 0 -123 49q-41 46 -28 121l2 8q-27 -18 -35 -22q-14 -10 -29 -20.5t-43.5 -28t-55 -30t-64 -27.5t-71 -20.5t-75 -8.5t-76.5 8q-154 54 -195 218q-39 155 34 341q71 181 209 290q175 139 377 91q74 -18 147 -60l135 785q-7 -40 1 -71
t26 -50.5t40.5 -42.5t44.5 -46t37.5 -61t20 -87.5t-7.5 -125.5l-86 -479q2 -2 4 -5t4 -5q-2 2 -4 5t-4 5l-99 -557q-12 -71 29 -121zM686 152l2 -2q41 18 72 49l119 684q-184 77 -335 -41q-113 -89 -166 -252q-51 -160 -13 -288q40 -130 158 -158q71 -16 163 8z" />
    <glyph glyph-name="e" unicode="e" horiz-adv-x="989" 
d="M725 483h4q-49 -41 -67.5 -56.5t-61 -47t-69.5 -45t-66 -27t-76 -16.5q62 -142 163.5 -209t197.5 -27q108 45 155 205l10 -110q-77 -65 -163 -101q-101 -42 -203 -44.5t-186 31t-147 101.5t-89 162q-34 125 3 259t134 244t232 167q136 53 258.5 43.5t219.5 -81
t138 -186.5h-2l2 -12q-23 -8 -84 -35l-133 -77q-77 -52 -170 -138zM381 303l-2 -2q37 2 75 15.5t64.5 26t69.5 45t61.5 48t69.5 58.5q129 106 178 139q-55 181 -171 276t-226 49q-75 -31 -122 -119.5t-54 -203.5t26 -244q5 -18 17 -50.5t14 -37.5z" />
    <glyph glyph-name="f" unicode="f" horiz-adv-x="606" 
d="M1051 1288h-4q2 41 -39 69.5t-98 37t-119 -1.5t-99 -39q-57 -51 -69 -125l-29 -160l-33 -188h205l-2 -15h-205l-113 -633q-12 -70 -35.5 -125t-50.5 -88.5t-58 -59.5t-60.5 -46.5t-54.5 -41.5t-44 -51.5t-26 -70.5l200 1118h-172l5 15h172l36 211l4 12q15 90 70 154
q82 113 217.5 156.5t257.5 15.5q58 -16 93 -45.5t44 -53.5t7 -45z" />
    <glyph glyph-name="g" unicode="g" horiz-adv-x="1073" 
d="M842 -98l2 -6q43 -19 78.5 -47.5t59 -64t36 -76t8.5 -84.5t-21.5 -88t-57.5 -88t-95.5 -83.5t-138.5 -75t-185 -61.5q-143 -51 -280 -51q-66 0 -135 16q-83 20 -141 64.5t-81 105.5q-38 102 25.5 222t214.5 233q-119 13 -149 39l200 147q12 10 40 33.5t44 36.5
q-100 77 -141 211q-34 125 3 259t134 243.5t232 166.5q179 72 341 28t242 -183q136 193 99 329l14 7q38 -146 -109 -347q27 -60 33 -83q34 -125 -3 -258.5t-134 -243t-232 -166.5q-131 -54 -253 -44t-218 77q-14 -13 -39.5 -34t-33.5 -28q33 -18 153 -27.5t263.5 -26.5
t224.5 -52zM748 39l2 2q107 46 151.5 202.5t1.5 336.5q-162 -160 -469 -396q65 -97 150 -137t164 -8zM496 946v-2q-75 -31 -121.5 -119.5t-53 -203.5t26.5 -244q25 -97 80 -182q316 244 473 399q-1 3 -2 8t-2 8q-51 186 -168.5 284.5t-232.5 51.5zM518 -762l-4 4
q113 60 190.5 127.5t109.5 128.5t22.5 115t-62.5 90q-40 27 -97 46t-132.5 31t-129.5 18t-144 12.5t-121 9.5q-154 -109 -219 -228t-25 -219q27 -70 92 -114t150 -56.5t180.5 -3.5t189.5 39z" />
    <glyph glyph-name="h" unicode="h" horiz-adv-x="1159" 
d="M1202 4v-4h-172v2h-67q-67 0 -108 48t-30 116q11 64 47 256q40 226 -4 360t-151 166t-246 -26l-133 -750q-12 -73 27 -121q40 -49 120 -49h-235q-80 0 -123 49q-42 47 -29 121l260 1522q-7 -40 1 -71t26 -50.5t40.5 -42.5t44.5 -46t37.5 -61t20 -87.5t-7.5 -125.5
l-49 -266q109 58 206 75.5t168.5 -1t128 -63.5t91 -107.5t51.5 -138.5q20 -103 -22 -342q-5 -35 -12.5 -75.5t-16 -87.5t-12.5 -69q3 -47 30 -82q40 -49 119 -49z" />
    <glyph glyph-name="i" unicode="i" horiz-adv-x="442" 
d="M365 53l2 -2q40 -49 120 -49h-237q-78 0 -121 49q-42 47 -29 121l158 944q-8 -46 4 -80.5t35.5 -55.5t50.5 -49.5t48.5 -62t29.5 -93t-6 -142.5l-82 -459q-12 -70 27 -121zM514 1247l-147 -125l-101 125l146 125z" />
    <glyph glyph-name="j" unicode="j" horiz-adv-x="374" 
d="M530 1249l-147 -125l-100 125l145 123zM266 1122l6 -2q-7 -40 1 -71t26 -50.5t40.5 -42.5t44 -46t37 -60.5t20 -87t-8.5 -125.5l-149 -827v-13q-19 -92 -74 -153q-81 -113 -217.5 -156.5t-255.5 -15.5q-84 22 -117 64.5t-27 78.5q-2 -41 39 -69.5t98 -37t119 1.5t99 39
q55 46 67 125l31 160z" />
    <glyph glyph-name="k" unicode="k" horiz-adv-x="1011" 
d="M987 10l41 -10h-262q-112 0 -172 82q-24 38 -59 133t-68 127q-34 30 -78 41h-10l-39 -209q-12 -71 29 -121q43 -49 118 -49h-235q-78 0 -121 49q-42 47 -29 121l260 1522q-7 -40 1 -71t26 -50.5t40.5 -42.5t44 -46t37 -61t20 -87.5t-8.5 -125.5l-76 -432q41 52 111 99
t147 76.5t152.5 46t136.5 13t88 -27.5q30 -30 41.5 -73.5t1 -93.5t-38.5 -103t-80.5 -103.5t-121 -93t-164 -75t-205.5 -46.5q-7 -1 -100 -10q88 -7 159.5 -31.5t117 -58.5t81 -73t60.5 -77t47.5 -69.5t49 -50.5t58.5 -19zM381 393v2q145 9 264.5 50.5t187.5 97t101.5 115
t23.5 108.5q-22 80 -98.5 125t-185.5 24q-152 -41 -230 -165z" />
    <glyph glyph-name="l" unicode="l" horiz-adv-x="444" 
d="M365 53q43 -49 120 -49h-235q-77 0 -123 49q-41 50 -29 121l260 1522q-7 -40 1 -71t26 -50.5t40.5 -42.5t44.5 -46t37.5 -61t20 -87.5t-7.5 -125.5l-184 -1038q-12 -71 29 -121z" />
    <glyph glyph-name="m" unicode="m" horiz-adv-x="1841" 
d="M1853 0l-6 -2h-172v2h-67q-68 0 -109 48.5t-29 115.5q9 46 25.5 135.5t22.5 120.5q38 227 -6 360.5t-152 165.5q-130 42 -322 -65q55 -73 74 -176q24 -99 -18 -340q-26 -133 -41 -234q0 -50 28 -82q40 -49 119 -49h-172v2h-67q-67 0 -108 48t-30 116q8 44 24.5 133
t22.5 123q40 226 -4 360t-151 166q-134 38 -318 -63q50 -94 25 -242l-84 -473q-12 -73 27 -121q40 -49 120 -49h-235q-80 0 -123 49q-42 47 -29 121l160 958q-8 -44 3.5 -78t31 -53t49.5 -48.5t47 -55.5q116 74 218.5 106.5t182 24.5t140.5 -42t106 -93q125 81 235.5 113
t191.5 19.5t144.5 -57t101.5 -111t56 -148.5q21 -107 -20 -340q-2 -13 -18 -103t-23 -131q0 -45 29 -82q40 -49 120 -49z" />
    <glyph glyph-name="n" unicode="n" horiz-adv-x="1159" 
d="M1204 4v-2h-172v2h-69q-67 0 -107 48t-29 116q6 35 22 124.5t23 129.5q41 228 -2.5 362t-152.5 166q-129 38 -318 -63q53 -94 25 -242l-84 -473q-13 -74 29 -121q40 -49 118 -49h-235q-78 0 -121 49q-42 47 -29 121l160 958q-7 -44 5 -78.5t31 -53t48.5 -48t46.5 -55.5
q124 79 234 110t190.5 18.5t143.5 -57t101 -110t56 -147.5q20 -103 -22 -342q-5 -35 -12.5 -75.5t-16 -87.5t-12.5 -69q3 -47 30 -82q40 -49 119 -49z" />
    <glyph glyph-name="o" unicode="o" horiz-adv-x="1062" 
d="M1114 707q34 -125 -2.5 -259t-133 -244t-230.5 -167q-102 -42 -204 -44.5t-186 31.5t-146.5 102.5t-88.5 162.5q-34 125 2.5 258.5t133 242.5t230.5 166q102 42 204 44.5t186 -30.5t146.5 -101t88.5 -162zM743 45q115 49 159 215t-9 352q-52 187 -169 285t-230 51
q-115 -47 -159 -213.5t9 -353.5q53 -186 170 -284.5t229 -51.5z" />
    <glyph glyph-name="p" unicode="p" horiz-adv-x="1095" 
d="M954 946h-2q154 -54 196 -218q39 -155 -33 -340q-71 -181 -209 -290q-175 -139 -376 -92q-74 17 -147 60l-47 -267l-10 -57q-12 -70 -35 -124.5t-50.5 -88t-58.5 -59.5t-61 -47t-55.5 -42t-44 -51.5t-25.5 -70.5l108 602l68 387q-2 1 -4 4.5t-4 5.5q2 -2 4 -5.5t4 -4.5
l98 557q13 75 -28 121q-37 49 -119 49h235q81 0 121 -49q44 -46 31 -121l-2 -8q27 18 35 22q14 11 29 21t43 27.5t55 30t64 27.5t70 20.5t74.5 8.5t75.5 -8zM387 92h2q182 -76 331 40q113 89 166 251q52 161 13 289q-39 130 -157 158q-71 17 -164 -7q-32 -14 -74 -47z" />
    <glyph glyph-name="q" unicode="q" horiz-adv-x="1101" 
d="M1325 1012h-2q-91 0 -139 -41q-58 -49 -70 -123l-94 -549v0l-86 -510q-12 -70 -35.5 -125t-51 -88.5t-58.5 -59.5t-61 -46.5t-55.5 -41.5t-44.5 -51.5t-26 -70.5l146 811q-269 -134 -444 -35q-125 70 -168 236q-42 166 17 341q64 186 214 282q53 33 112 52q50 7 90.5 7
t81.5 -14t70 -28t57 -34.5t43 -33.5t27 -26l6 -6t7 -6.5t6.5 -6.5t6.5 -7l3 12q12 71 71 121q61 49 137 49zM750 137l118 678q-27 33 -59 53q-180 51 -313 -76q-103 -100 -137 -264t21 -284q59 -132 200 -139q76 -4 170 32z" />
    <glyph glyph-name="r" unicode="r" horiz-adv-x="964" 
d="M969 989l-2 -2q99 -35 151 -119l-200 -166h-5q-26 103 -107.5 150.5t-215.5 13.5q-37 -15 -72 -47l-74 -450h-2l-10 -62q-12 -70 -35.5 -124.5t-51 -88t-58.5 -59.5t-60.5 -47t-55 -42t-44 -51.5t-25.5 -70.5l107 602l76 422q12 70 -27 121q-43 49 -121 49h236
q77 0 123 -49q40 -49 28 -121l-2 -8q4 3 11 7.5t12.5 8t9.5 6.5q16 12 35 25t54.5 33.5t69 33.5t80 27.5t86.5 14.5t89 -7z" />
    <glyph glyph-name="s" unicode="s" horiz-adv-x="1069" 
d="M655 666l-6 2q354 -60 426 -207q19 -37 16.5 -81t-14.5 -80t-30 -62l-3 -5q-66 -88 -188 -147q8 4 10 6q-125 -68 -275.5 -91.5t-305 6t-273.5 112.5l158 123v4v-4l76 57q43 -108 170.5 -183.5t285.5 -62.5q39 5 91 23q36 12 55 24q72 34 99.5 78.5t6 86.5t-87.5 69
q-102 44 -233 65q-314 54 -389 195q-11 20 -12.5 55.5t11 84t38.5 96t78.5 93.5t123.5 74q189 66 398 2q141 -48 215 -135.5t59 -173.5h-176q13 25 14.5 59t-7.5 70.5t-34 74.5t-63 67q-71 50 -172 53q-121 10 -230 -29q-57 -20 -92.5 -54.5t-43 -71t14 -72.5t70.5 -58
q91 -42 219 -63z" />
    <glyph glyph-name="t" unicode="t" horiz-adv-x="610" 
d="M565 864h197l-4 -14h-195q0 -43 -6 -80l-104 -602q-13 -74 26 -121q40 -49 119 -49h-236q-77 0 -120 49q-42 47 -29 121l115 680h-185v16h187l67 391q-9 -48 4 -84.5t39 -63.5t53.5 -55.5t48.5 -76.5t23 -111z" />
    <glyph glyph-name="u" unicode="u" horiz-adv-x="1159" 
d="M1094 49l2 -2q40 -49 118 -49h-235q-78 0 -121 49q-28 36 -31 80q-123 -72 -234.5 -102.5t-196 -18.5t-146 55.5t-93 118.5t-30.5 172q1 27 9.5 87.5t17.5 107.5l8 47l88 532q-7 -40 1.5 -71t26.5 -50.5t40.5 -42.5t44 -46t37.5 -60.5t20 -87t-8 -125.5l-4 -16
q-28 -115 -34 -204.5t5.5 -146.5t39.5 -97.5t60.5 -60.5t77.5 -34q103 -30 266 55q1 5 2 15t2 14l160 958q-7 -40 1.5 -71t26.5 -50.5t40.5 -42.5t44 -46t37.5 -60.5t20 -87t-8 -125.5l-84 -473q-13 -74 29 -121z" />
    <glyph glyph-name="v" unicode="v" horiz-adv-x="1075" 
d="M1247 1016l10 -4l-694 -1012l-6 4v-2l-4 2v2q-21 48 -52 99.5t-61 95.5t-63.5 92t-63 94.5t-56.5 98.5t-46 109.5t-30 120.5t-10 138.5t15 157.5h13h233q-25 -106 -16 -200t33.5 -160t65 -129t77.5 -107t71 -93.5t46 -89.5z" />
    <glyph glyph-name="w" unicode="w" horiz-adv-x="1849" 
d="M2023 1016l13 -8l-697 -1010l-4 4v-2l-4 2v2q-32 71 -85.5 154.5t-99.5 146.5t-94 149.5t-73 170.5l-416 -629l-4 4l-2 -2l-4 2l2 4q-24 53 -59.5 111.5t-69 105t-72.5 104t-68.5 108t-57.5 117t-40 132t-15.5 152t15.5 176.5h13h233q-25 -105 -16.5 -198.5t32.5 -159
t63.5 -128t76 -106t71.5 -93t48 -87.5l264 403q2 2 2 4l231 367h4q-25 -106 -16 -200t33.5 -160t65 -129t77.5 -107t71 -93.5t46 -89.5z" />
    <glyph glyph-name="x" unicode="x" horiz-adv-x="1024" 
d="M690 590h-2q138 -104 192 -159q143 -145 140 -323q-1 -37 -8 -77h-252q6 32 6 62.5t-5 56.5t-15.5 52t-22.5 47.5t-30.5 45t-36 41.5t-42 39.5t-45 38t-47.5 37.5l-489 -414l-8 10l487 412q-131 102 -175 144q-143 137 -154 294q-3 54 7 113h9h231q-5 -28 -5.5 -54
t4.5 -50t12 -46t20 -43.5t25.5 -40t31.5 -39t35.5 -36.5t40 -35t42 -33.5t44.5 -34.5l502 422l8 -10z" />
    <glyph glyph-name="y" unicode="y" horiz-adv-x="1073" 
d="M1247 1016l10 -12l-657 -955q-126 -224 -238 -362t-208 -189.5t-177.5 -37t-156.5 90.5q-37 63 -20 125t67 118t131.5 102.5t172 79t188.5 47.5t182 8q-22 46 -52.5 96t-60 92t-62 89t-60.5 93t-54 97t-44 107t-28.5 118t-9 135.5t15.5 153.5h13h233q-25 -106 -16 -200
t33.5 -160t65 -129t77.5 -107t71 -93.5t46 -89.5zM111 -426l-5 -2q44 -7 90 11.5t85.5 51.5t89 96t87.5 120t95 147l-2 2l2 4q-2 4 -6 12.5t-6 12.5q-156 4 -298.5 -40t-222 -118.5t-63.5 -153.5q10 -58 51.5 -96t102.5 -47z" />
    <glyph glyph-name="z" unicode="z" horiz-adv-x="1024" 
d="M1090 1008h-3q55 10 101 10l-2 -8l-43 -246q-79 0 -154 -35.5t-139 -94.5t-128 -130.5t-130.5 -147t-135 -141.5t-154.5 -116t-177 -68l868 -8l-4 -15l-969 10l3 15h2l45 256q80 0 155 32t138.5 86t125 119.5t124.5 137t125.5 135t140 116.5t157.5 78l-843 8l4 15z" />
    <glyph glyph-name="braceleft" unicode="{" horiz-adv-x="1036" 
d="M1053 1749v-6h221h-25h-121q-114 0 -208.5 -78t-114.5 -188l-74 -424q-28 -90 -94.5 -135t-157.5 -50h-6v0h-4h8q84 -5 135 -46t52 -122l-76 -430q-19 -100 34.5 -178.5t151.5 -95.5h-37h-170q-114 0 -180.5 83.5t-46.5 194.5l74 431q0 81 -51 121.5t-136 45.5h-8h6v0h6
q92 6 158.5 51t91.5 134l76 424q20 110 115 189t209 79h172z" />
    <glyph glyph-name="braceright" unicode="}" horiz-adv-x="1036" 
d="M1118 872l4 2h-8q-188 -10 -248 -167l-75 -431q-19 -111 -115.5 -194.5t-210.5 -83.5h-170h-37q104 17 185 95.5t100 178.5l75 428q29 82 94 123.5t152 46.5h8h-6v0h-6q-89 5 -139.5 50t-44.5 133l74 426q19 110 -48.5 188t-181.5 78h-123h-24h223v2h170q115 0 183 -79
t48 -189l-75 -424q-4 -89 46.5 -133.5t139.5 -49.5h6v0h4z" />
    <glyph glyph-name="nonbreakingspace" unicode="&#xa0;" horiz-adv-x="505" 
 />
    <glyph glyph-name="softhyphen" unicode="&#xad;" horiz-adv-x="0" 
 />
    <glyph glyph-name="Agrave" unicode="&#xc0;" 
d="M1147 1843l-4 -12q-36 7 -65 14t-60 17t-54 22t-44.5 27.5t-34.5 36t-20.5 44.5t-6.5 55t10 67l181 36l4 -6q-29 -79 -27.5 -144t34 -108t87.5 -49zM811 858zM1083 1700l265 -1698h-248l-60 377h-813l-245 -383l-11 6l246 387l2 6h4l658 1018l-45 287h247zM238 391h800
l-157 998z" />
    <glyph glyph-name="Aacute" unicode="&#xc1;" 
d="M856 1831l4 12q87 9 147 97.5t54 203.5l6 6l166 -36q-5 -57 -28 -101.5t-55.5 -73t-83 -50.5t-98 -34.5t-112.5 -23.5zM811 858zM1083 1700l265 -1698h-248l-60 377h-813l-245 -383l-11 6l246 387l2 6h4l658 1018l-45 287h247zM238 391h800l-157 998z" />
    <glyph glyph-name="Acircumflex" unicode="&#xc2;" 
d="M1303 1815q-70 -6 -119 11.5t-75 55t-37 85t-9 110.5q-38 -127 -115.5 -198.5t-214.5 -63.5l6 147l2 2q43 -19 96 -12.5t100 27t83.5 59.5t46.5 86h10q-7 -47 15.5 -86t62.5 -59.5t90.5 -27t100.5 12.5l2 -2zM811 858zM1083 1700l265 -1698h-248l-60 377h-813l-245 -383
l-11 6l246 387l2 6h4l658 1018l-45 287h247zM238 391h800l-157 998z" />
    <glyph glyph-name="Atilde" unicode="&#xc3;" 
d="M707 1970q58 46 115 52t100 -14.5t92 -63.5q53 -22 127 5t141 93l8 -2l41 -144q-59 -47 -115.5 -54t-100 14t-93.5 65q-50 23 -124.5 -3.5t-141.5 -92.5l-6 2zM811 858zM1083 1700l265 -1698h-248l-60 377h-813l-245 -383l-11 6l246 387l2 6h4l658 1018l-45 287h247z
M238 391h800l-157 998z" />
    <glyph glyph-name="Egrave" unicode="&#xc8;" horiz-adv-x="1454" 
d="M1212 1843l-4 -12q-36 7 -65 14t-60 17t-53.5 22t-44 27.5t-34.5 36t-20.5 44.5t-6.5 55t10 67l180 36l4 -6q-29 -79 -27.5 -144t34 -108t87.5 -49zM1761 1686h-1134l-148 -828h1137l-4 -14h-1135l-145 -828h1134l-2 -14h-1382v2l299 1696h248h1136z" />
    <glyph glyph-name="Eacute" unicode="&#xc9;" horiz-adv-x="1454" 
d="M987 1831l4 12q87 9 147 97.5t54 203.5l6 6l166 -36q-5 -57 -28 -101.5t-55.5 -73t-83 -50.5t-98 -34.5t-112.5 -23.5zM1761 1686h-1134l-148 -828h1137l-4 -14h-1135l-145 -828h1134l-2 -14h-1382v2l299 1696h248h1136z" />
    <glyph glyph-name="Ecircumflex" unicode="&#xca;" horiz-adv-x="1454" 
d="M1397 1815q-134 -11 -188.5 60.5t-49.5 201.5q-40 -128 -117 -199t-215 -63l7 147l4 2q90 -35 196.5 15.5t126.5 144.5h10q-7 -47 15.5 -86t62.5 -59.5t90.5 -27t100.5 12.5l4 -2zM1761 1686h-1134l-148 -828h1137l-4 -14h-1135l-145 -828h1134l-2 -14h-1382v2l299 1696
h248h1136z" />
    <glyph glyph-name="Igrave" unicode="&#xcc;" horiz-adv-x="413" 
d="M672 1843l-4 -12q-36 7 -65 14t-60 17t-54 22t-44.5 27.5t-34.5 36t-20.5 44.5t-6.5 55t10 67l180 36l5 -6q-29 -79 -27.5 -144t34 -108t87.5 -49zM330 4h-248l299 1698h248z" />
    <glyph glyph-name="Iacute" unicode="&#xcd;" horiz-adv-x="413" 
d="M381 1831l4 12q87 9 147 97.5t54 203.5l6 6l166 -36q-5 -57 -28 -101.5t-55.5 -73t-83 -50.5t-98 -34.5t-112.5 -23.5zM330 4h-248l299 1698h248z" />
    <glyph glyph-name="Ograve" unicode="&#xd2;" horiz-adv-x="1748" 
d="M1343 1843l-4 -12q-36 7 -65 14t-60 17t-53.5 22t-44 27.5t-34.5 36t-20.5 44.5t-6.5 55t10 67l180 36l4 -6q-29 -79 -27.5 -144t34 -108t87.5 -49zM1176 1714q175 0 322 -68t241.5 -182.5t134 -273.5t8.5 -334q-31 -174 -127 -332.5t-231 -273t-305.5 -182.5t-344.5 -68
t-320.5 67.5t-241 182.5t-134.5 273.5t-10 332.5q31 175 127 334t231 273.5t305.5 182.5t344.5 68zM1165 63q163 56 283 208t168 361.5t10 424.5q-39 216 -152 371.5t-270 215.5t-321 5q-163 -56 -283 -208t-168 -361.5t-10 -424.5q39 -216 152 -371.5t270 -215.5t321 -5z
" />
    <glyph glyph-name="Oacute" unicode="&#xd3;" horiz-adv-x="1748" 
d="M1069 1831l4 12q87 9 147 97.5t54 203.5l6 6l166 -36q-5 -57 -28 -101.5t-55.5 -73t-83 -50.5t-98 -34.5t-112.5 -23.5zM1176 1714q175 0 322 -68t241.5 -182.5t134 -273.5t8.5 -334q-31 -174 -127 -332.5t-231 -273t-305.5 -182.5t-344.5 -68t-320.5 67.5t-241 182.5
t-134.5 273.5t-10 332.5q31 175 127 334t231 273.5t305.5 182.5t344.5 68zM1165 63q163 56 283 208t168 361.5t10 424.5q-39 216 -152 371.5t-270 215.5t-321 5q-163 -56 -283 -208t-168 -361.5t-10 -424.5q39 -216 152 -371.5t270 -215.5t321 -5z" />
    <glyph glyph-name="Ocircumflex" unicode="&#xd4;" horiz-adv-x="1748" 
d="M1479 1815q-134 -11 -188.5 60.5t-49.5 201.5q-40 -128 -117 -199t-215 -63l6 147l5 2q90 -35 196.5 15.5t126.5 144.5h10q-7 -47 15.5 -86t62.5 -59.5t90.5 -27t100.5 12.5l4 -2zM1176 1714q175 0 322 -68t241.5 -182.5t134 -273.5t8.5 -334q-31 -174 -127 -332.5
t-231 -273t-305.5 -182.5t-344.5 -68t-320.5 67.5t-241 182.5t-134.5 273.5t-10 332.5q31 175 127 334t231 273.5t305.5 182.5t344.5 68zM1165 63q163 56 283 208t168 361.5t10 424.5q-39 216 -152 371.5t-270 215.5t-321 5q-163 -56 -283 -208t-168 -361.5t-10 -424.5
q39 -216 152 -371.5t270 -215.5t321 -5z" />
    <glyph glyph-name="Otilde" unicode="&#xd5;" horiz-adv-x="1748" 
d="M903 1970q58 46 115 52t100 -14.5t92 -63.5q53 -22 127.5 5t141.5 93l8 -2l41 -144q-59 -47 -115.5 -54t-100 14t-93.5 65q-50 23 -125 -3.5t-142 -92.5l-6 2zM1176 1714q175 0 322 -68t241.5 -182.5t134 -273.5t8.5 -334q-31 -174 -127 -332.5t-231 -273t-305.5 -182.5
t-344.5 -68t-320.5 67.5t-241 182.5t-134.5 273.5t-10 332.5q31 175 127 334t231 273.5t305.5 182.5t344.5 68zM1165 63q163 56 283 208t168 361.5t10 424.5q-39 216 -152 371.5t-270 215.5t-321 5q-163 -56 -283 -208t-168 -361.5t-10 -424.5q39 -216 152 -371.5
t270 -215.5t321 -5z" />
    <glyph glyph-name="Ugrave" unicode="&#xd9;" horiz-adv-x="1732" 
d="M1409 1843l-4 -12q-36 7 -65 14t-60 17t-54 22t-44.5 27.5t-34.5 36t-20.5 44.5t-6.5 55t10 67l181 36l4 -6q-29 -79 -27.5 -144t34 -108t87.5 -49zM1825 823q-2 -10 -6 -27t-18.5 -62t-33 -90.5t-50.5 -107.5t-70 -118q-51 -76 -116.5 -141.5t-159 -129t-222 -104
t-277.5 -47.5h-22q-118 6 -216 34.5t-163.5 69.5t-117 97t-80.5 109t-48 112q-62 188 -32 395v2l2 10l157 887h254l-160 -905q-35 -195 18 -399t165 -304q72 -49 141 -72t102 -22l33 2q140 9 261 49t209.5 101.5t150.5 124t112 135.5q60 87 102.5 185.5t55 146.5t12.5 57v2
v2l160 895h14z" />
    <glyph glyph-name="Uacute" unicode="&#xda;" horiz-adv-x="1732" 
d="M1102 1831l4 12q87 9 147 97.5t54 203.5l6 6l166 -36q-5 -57 -28 -101.5t-55.5 -73t-83 -50.5t-98 -34.5t-112.5 -23.5zM1825 823q-2 -10 -6 -27t-18.5 -62t-33 -90.5t-50.5 -107.5t-70 -118q-51 -76 -116.5 -141.5t-159 -129t-222 -104t-277.5 -47.5h-22
q-118 6 -216 34.5t-163.5 69.5t-117 97t-80.5 109t-48 112q-62 188 -32 395v2l2 10l157 887h254l-160 -905q-35 -195 18 -399t165 -304q72 -49 141 -72t102 -22l33 2q140 9 261 49t209.5 101.5t150.5 124t112 135.5q60 87 102.5 185.5t55 146.5t12.5 57v2v2l160 895h14z" />
    <glyph glyph-name="Yacute" unicode="&#xdd;" horiz-adv-x="1830" 
d="M1233 1831l4 12q87 9 147 97.5t54 203.5l6 6l166 -36q-5 -57 -28 -101.5t-55.5 -73t-83 -50.5t-98 -34.5t-112.5 -23.5zM2159 1698l-936 -1446l116 -254h-284l-488 -754l-12 6l489 756l-782 1690h291l661 -1430l932 1438z" />
    <glyph glyph-name="germandbls" unicode="&#xdf;" horiz-adv-x="1363" 
 />
    <glyph glyph-name="agrave" unicode="&#xe0;" horiz-adv-x="1083" 
d="M864 1139v-13q-37 7 -66 14t-60 17t-54 22t-44.5 27.5t-34.5 36t-21 44.5t-7.5 55t9.5 67l180 37l4 -6q-29 -79 -27.5 -144t34 -108t87.5 -49zM1018 43h-2q43 -49 119 -49h-236q-78 0 -121 49q-41 46 -28 121l106 567q-37 -99 -235 -156q-176 -58 -265 -183
q-71 -101 -51 -189q19 -82 109 -106q62 -17 147 -1q-15 -7 -40 -18t-93.5 -35.5t-127 -38t-120 -12.5t-92.5 28q-30 30 -41 73.5t-1 93t38 102t80.5 102.5t120.5 92.5t164 74.5t206 46q55 11 96.5 34t60.5 48t30.5 48.5t13.5 38.5l2 15q8 37 1 84.5t-28 71.5q-36 42 -133 45
q-62 -3 -117 -30.5t-91 -67.5t-58.5 -80.5t-30.5 -75.5l-125 47q38 93 186 160.5t294 61.5q106 -3 189.5 -49.5t115.5 -135.5q31 -62 16 -153l-88 -502q-12 -71 29 -121z" />
    <glyph glyph-name="aacute" unicode="&#xe1;" horiz-adv-x="1083" 
d="M700 1126l2 13q87 9 147 97.5t54 203.5l6 6l168 -37q-5 -57 -28.5 -101.5t-56.5 -73t-83 -50.5t-97.5 -34.5t-111.5 -23.5zM1018 43h-2q43 -49 119 -49h-236q-78 0 -121 49q-41 46 -28 121l106 567q-37 -99 -235 -156q-176 -58 -265 -183q-71 -101 -51 -189
q19 -82 109 -106q62 -17 147 -1q-15 -7 -40 -18t-93.5 -35.5t-127 -38t-120 -12.5t-92.5 28q-30 30 -41 73.5t-1 93t38 102t80.5 102.5t120.5 92.5t164 74.5t206 46q55 11 96.5 34t60.5 48t30.5 48.5t13.5 38.5l2 15q8 37 1 84.5t-28 71.5q-36 42 -133 45q-62 -3 -117 -30.5
t-91 -67.5t-58.5 -80.5t-30.5 -75.5l-125 47q38 93 186 160.5t294 61.5q106 -3 189.5 -49.5t115.5 -135.5q31 -62 16 -153l-88 -502q-12 -71 29 -121z" />
    <glyph glyph-name="acircumflex" unicode="&#xe2;" horiz-adv-x="1083" 
d="M1018 43h-2q43 -49 119 -49h-236q-78 0 -121 49q-41 46 -28 121l106 567q-37 -99 -235 -156q-176 -58 -265 -183q-71 -101 -51 -189q19 -82 109 -106q62 -17 147 -1q-15 -7 -40 -18t-93.5 -35.5t-127 -38t-120 -12.5t-92.5 28q-30 30 -41 73.5t-1 93t38 102t80.5 102.5
t120.5 92.5t164 74.5t206 46q55 11 96.5 34t60.5 48t30.5 48.5t13.5 38.5l2 15q8 37 1 84.5t-28 71.5q-36 42 -133 45q-62 -3 -117 -30.5t-91 -67.5t-58.5 -80.5t-30.5 -75.5l-125 47q38 93 186 160.5t294 61.5q106 -3 189.5 -49.5t115.5 -135.5q31 -62 16 -153l-88 -502
q-12 -71 29 -121zM1024 1110q-70 -6 -119 11.5t-75 55t-37 85t-9 110.5q-38 -128 -114.5 -199t-214.5 -63l6 147l2 3q43 -19 96 -12.5t99.5 27t83 59t46.5 85.5h11q-7 -47 15.5 -86t62 -59t90 -26.5t100.5 12.5l2 -3z" />
    <glyph glyph-name="atilde" unicode="&#xe3;" horiz-adv-x="1083" 
d="M449 1249q57 46 114 52t100.5 -14.5t92.5 -63.5q51 -22 125.5 5t144.5 93l4 -2l43 -143q-59 -47 -115.5 -54t-99.5 13.5t-92 64.5q-51 23 -126 -3.5t-144 -92.5l-2 2zM1018 43h-2q43 -49 119 -49h-236q-78 0 -121 49q-41 46 -28 121l106 567q-37 -99 -235 -156
q-176 -58 -265 -183q-71 -101 -51 -189q19 -82 109 -106q62 -17 147 -1q-15 -7 -40 -18t-93.5 -35.5t-127 -38t-120 -12.5t-92.5 28q-30 30 -41 73.5t-1 93t38 102t80.5 102.5t120.5 92.5t164 74.5t206 46q55 11 96.5 34t60.5 48t30.5 48.5t13.5 38.5l2 15q8 37 1 84.5
t-28 71.5q-36 42 -133 45q-62 -3 -117 -30.5t-91 -67.5t-58.5 -80.5t-30.5 -75.5l-125 47q38 93 186 160.5t294 61.5q106 -3 189.5 -49.5t115.5 -135.5q31 -62 16 -153l-88 -502q-12 -71 29 -121z" />
    <glyph glyph-name="egrave" unicode="&#xe8;" horiz-adv-x="989" 
d="M864 1139v-13q-37 7 -66 14t-60 17t-54 22t-44.5 27.5t-34.5 36t-21 44.5t-7.5 55t9.5 67l180 37l4 -6q-29 -79 -27.5 -144t34 -108t87.5 -49zM725 483h4q-49 -41 -67.5 -56.5t-61 -47t-69.5 -45t-66 -27t-76 -16.5q62 -142 163.5 -209t197.5 -27q108 45 155 205l10 -110
q-77 -65 -163 -101q-101 -42 -203 -44.5t-186 31t-147 101.5t-89 162q-34 125 3 259t134 244t232 167q136 53 258.5 43.5t219.5 -81t138 -186.5h-2l2 -12q-23 -8 -84 -35l-133 -77q-77 -52 -170 -138zM381 303l-2 -2q37 2 75 15.5t64.5 26t69.5 45t61.5 48t69.5 58.5
q129 106 178 139q-55 181 -171 276t-226 49q-75 -31 -122 -119.5t-54 -203.5t26 -244q5 -18 17 -50.5t14 -37.5z" />
    <glyph glyph-name="eacute" unicode="&#xe9;" horiz-adv-x="989" 
d="M602 1126l2 13q87 9 147 97.5t54 203.5l6 6l168 -37q-5 -57 -28.5 -101.5t-56.5 -73t-83 -50.5t-97.5 -34.5t-111.5 -23.5zM725 483h4q-49 -41 -67.5 -56.5t-61 -47t-69.5 -45t-66 -27t-76 -16.5q62 -142 163.5 -209t197.5 -27q108 45 155 205l10 -110q-77 -65 -163 -101
q-101 -42 -203 -44.5t-186 31t-147 101.5t-89 162q-34 125 3 259t134 244t232 167q136 53 258.5 43.5t219.5 -81t138 -186.5h-2l2 -12q-23 -8 -84 -35l-133 -77q-77 -52 -170 -138zM381 303l-2 -2q37 2 75 15.5t64.5 26t69.5 45t61.5 48t69.5 58.5q129 106 178 139
q-55 181 -171 276t-226 49q-75 -31 -122 -119.5t-54 -203.5t26 -244q5 -18 17 -50.5t14 -37.5z" />
    <glyph glyph-name="ecircumflex" unicode="&#xea;" horiz-adv-x="989" 
d="M991 1110q-135 -11 -188.5 59.5t-50.5 202.5q-38 -128 -115 -199t-215 -63l6 147l2 3q43 -19 96 -12.5t100 26.5t83.5 59t46.5 86h10q-7 -47 15.5 -86t62 -59t90 -26.5t100.5 12.5l2 -3zM725 483h4q-49 -41 -67.5 -56.5t-61 -47t-69.5 -45t-66 -27t-76 -16.5
q62 -142 163.5 -209t197.5 -27q108 45 155 205l10 -110q-77 -65 -163 -101q-101 -42 -203 -44.5t-186 31t-147 101.5t-89 162q-34 125 3 259t134 244t232 167q136 53 258.5 43.5t219.5 -81t138 -186.5h-2l2 -12q-23 -8 -84 -35l-133 -77q-77 -52 -170 -138zM381 303l-2 -2
q37 2 75 15.5t64.5 26t69.5 45t61.5 48t69.5 58.5q129 106 178 139q-55 181 -171 276t-226 49q-75 -31 -122 -119.5t-54 -203.5t26 -244q5 -18 17 -50.5t14 -37.5z" />
    <glyph glyph-name="igrave" unicode="&#xec;" horiz-adv-x="442" 
d="M365 53l2 -2q40 -49 120 -49h-237q-78 0 -121 49q-42 47 -29 121l158 944q-8 -46 4 -80.5t35.5 -55.5t50.5 -49.5t48.5 -62t29.5 -93t-6 -142.5l-82 -459q-12 -70 27 -121zM537 1139v-13q-37 7 -66 14t-60 17t-54.5 22t-45 27.5t-34.5 36t-21 44.5t-7.5 55t9.5 67l180 37
l4 -6q-29 -79 -27 -144t34.5 -108t87.5 -49z" />
    <glyph glyph-name="iacute" unicode="&#xed;" horiz-adv-x="442" 
d="M365 53l2 -2q40 -49 120 -49h-237q-78 0 -121 49q-42 47 -29 121l158 944q-8 -46 4 -80.5t35.5 -55.5t50.5 -49.5t48.5 -62t29.5 -93t-6 -142.5l-82 -459q-12 -70 27 -121zM242 1126l2 13q87 9 146.5 97.5t53.5 203.5l7 6l167 -37q-5 -57 -28.5 -101.5t-56 -73t-83 -50.5
t-97.5 -34.5t-111 -23.5z" />
    <glyph glyph-name="ograve" unicode="&#xf2;" horiz-adv-x="1062" 
d="M864 1139v-13q-37 7 -66 14t-60 17t-54 22t-44.5 27.5t-34.5 36t-21 44.5t-7.5 55t9.5 67l180 37l4 -6q-29 -79 -27.5 -144t34 -108t87.5 -49zM1114 707q34 -125 -2.5 -259t-133 -244t-230.5 -167q-102 -42 -204 -44.5t-186 31.5t-146.5 102.5t-88.5 162.5
q-34 125 2.5 258.5t133 242.5t230.5 166q102 42 204 44.5t186 -30.5t146.5 -101t88.5 -162zM743 45q115 49 159 215t-9 352q-52 187 -169 285t-230 51q-115 -47 -159 -213.5t9 -353.5q53 -186 170 -284.5t229 -51.5z" />
    <glyph glyph-name="oacute" unicode="&#xf3;" horiz-adv-x="1062" 
d="M635 1126l2 13q87 9 147 97.5t54 203.5l6 6l168 -37q-5 -57 -28.5 -101.5t-56.5 -73t-83 -50.5t-97.5 -34.5t-111.5 -23.5zM1114 707q34 -125 -2.5 -259t-133 -244t-230.5 -167q-102 -42 -204 -44.5t-186 31.5t-146.5 102.5t-88.5 162.5q-34 125 2.5 258.5t133 242.5
t230.5 166q102 42 204 44.5t186 -30.5t146.5 -101t88.5 -162zM743 45q115 49 159 215t-9 352q-52 187 -169 285t-230 51q-115 -47 -159 -213.5t9 -353.5q53 -186 170 -284.5t229 -51.5z" />
    <glyph glyph-name="ocircumflex" unicode="&#xf4;" horiz-adv-x="1062" 
d="M1012 1110q-70 -6 -119.5 11.5t-75.5 55t-36.5 85.5t-8.5 110q-19 -61 -44 -106.5t-63.5 -84.5t-95 -57t-129.5 -14l6 147l5 3q90 -35 196.5 15t126.5 144h10q-7 -47 16 -86t63 -59t90.5 -26.5t99.5 12.5l4 -3zM1114 707q34 -125 -2.5 -259t-133 -244t-230.5 -167
q-102 -42 -204 -44.5t-186 31.5t-146.5 102.5t-88.5 162.5q-34 125 2.5 258.5t133 242.5t230.5 166q102 42 204 44.5t186 -30.5t146.5 -101t88.5 -162zM743 45q115 49 159 215t-9 352q-52 187 -169 285t-230 51q-115 -47 -159 -213.5t9 -353.5q53 -186 170 -284.5t229 -51.5
z" />
    <glyph glyph-name="otilde" unicode="&#xf5;" horiz-adv-x="1062" 
d="M432 1249q57 46 114 52t100.5 -14.5t92.5 -63.5q51 -22 126 5t145 93l4 -2l43 -143q-59 -47 -115.5 -54t-99.5 13.5t-92 64.5q-51 23 -126.5 -3.5t-144.5 -92.5l-2 2zM1114 707q34 -125 -2.5 -259t-133 -244t-230.5 -167q-102 -42 -204 -44.5t-186 31.5t-146.5 102.5
t-88.5 162.5q-34 125 2.5 258.5t133 242.5t230.5 166q102 42 204 44.5t186 -30.5t146.5 -101t88.5 -162zM743 45q115 49 159 215t-9 352q-52 187 -169 285t-230 51q-115 -47 -159 -213.5t9 -353.5q53 -186 170 -284.5t229 -51.5z" />
    <glyph glyph-name="ugrave" unicode="&#xf9;" horiz-adv-x="1159" 
d="M848 1139v-13q-37 7 -66 14t-60 17t-54.5 22t-45 27.5t-34.5 36t-21 44.5t-7.5 55t9.5 67l181 37l4 -6q-29 -79 -27.5 -144t34 -108t87.5 -49zM1094 49l2 -2q40 -49 118 -49h-235q-78 0 -121 49q-28 36 -31 80q-123 -72 -234.5 -102.5t-196 -18.5t-146 55.5t-93 118.5
t-30.5 172q1 27 9.5 87.5t17.5 107.5l8 47l88 532q-7 -40 1.5 -71t26.5 -50.5t40.5 -42.5t44 -46t37.5 -60.5t20 -87t-8 -125.5l-4 -16q-28 -115 -34 -204.5t5.5 -146.5t39.5 -97.5t60.5 -60.5t77.5 -34q103 -30 266 55q1 5 2 15t2 14l160 958q-7 -40 1.5 -71t26.5 -50.5
t40.5 -42.5t44 -46t37.5 -60.5t20 -87t-8 -125.5l-84 -473q-13 -74 29 -121z" />
    <glyph glyph-name="uacute" unicode="&#xfa;" horiz-adv-x="1159" 
d="M586 1126l2 13q87 9 146.5 97.5t53.5 203.5l7 6l168 -37q-5 -57 -28.5 -101.5t-56.5 -73t-83 -50.5t-97.5 -34.5t-111.5 -23.5zM1094 49l2 -2q40 -49 118 -49h-235q-78 0 -121 49q-28 36 -31 80q-123 -72 -234.5 -102.5t-196 -18.5t-146 55.5t-93 118.5t-30.5 172
q1 27 9.5 87.5t17.5 107.5l8 47l88 532q-7 -40 1.5 -71t26.5 -50.5t40.5 -42.5t44 -46t37.5 -60.5t20 -87t-8 -125.5l-4 -16q-28 -115 -34 -204.5t5.5 -146.5t39.5 -97.5t60.5 -60.5t77.5 -34q103 -30 266 55q1 5 2 15t2 14l160 958q-7 -40 1.5 -71t26.5 -50.5t40.5 -42.5
t44 -46t37.5 -60.5t20 -87t-8 -125.5l-84 -473q-13 -74 29 -121z" />
    <glyph glyph-name="yacute" unicode="&#xfd;" horiz-adv-x="1073" 
d="M635 1126l2 13q87 9 147 97.5t54 203.5l6 6l168 -37q-5 -57 -28.5 -101.5t-56.5 -73t-83 -50.5t-97.5 -34.5t-111.5 -23.5zM1247 1016l10 -12l-657 -955q-126 -224 -238 -362t-208 -189.5t-177.5 -37t-156.5 90.5q-37 63 -20 125t67 118t131.5 102.5t172 79t188.5 47.5
t182 8q-22 46 -52.5 96t-60 92t-62 89t-60.5 93t-54 97t-44 107t-28.5 118t-9 135.5t15.5 153.5h13h233q-25 -106 -16 -200t33.5 -160t65 -129t77.5 -107t71 -93.5t46 -89.5zM111 -426l-5 -2q44 -7 90 11.5t85.5 51.5t89 96t87.5 120t95 147l-2 2l2 4q-2 4 -6 12.5t-6 12.5
q-156 4 -298.5 -40t-222 -118.5t-63.5 -153.5q10 -58 51.5 -96t102.5 -47z" />
    <glyph glyph-name="Abreve" unicode="&#x102;" 
d="M1194 2028l135 -43q-55 -187 -307 -187q-57 0 -99.5 8t-77.5 27.5t-52 57.5t-13 94l150 43l4 -3q-28 -77 -2 -136t94 -74q71 17 117 76.5t45 133.5zM811 858zM1083 1700l265 -1698h-248l-60 377h-813l-245 -383l-11 6l246 387l2 6h4l658 1018l-45 287h247zM238 391h800
l-157 998z" />
    <glyph glyph-name="abreve" unicode="&#x103;" horiz-adv-x="1083" 
d="M913 1323l134 -43q-55 -186 -306 -186q-57 0 -99 7.5t-77.5 27t-52.5 57.5t-14 94l151 43l4 -2q-28 -76 -2.5 -136t92.5 -75q72 17 118 76.5t46 134.5zM1018 43h-2q43 -49 119 -49h-236q-78 0 -121 49q-41 46 -28 121l106 567q-37 -99 -235 -156q-176 -58 -265 -183
q-71 -101 -51 -189q19 -82 109 -106q62 -17 147 -1q-15 -7 -40 -18t-93.5 -35.5t-127 -38t-120 -12.5t-92.5 28q-30 30 -41 73.5t-1 93t38 102t80.5 102.5t120.5 92.5t164 74.5t206 46q55 11 96.5 34t60.5 48t30.5 48.5t13.5 38.5l2 15q8 37 1 84.5t-28 71.5q-36 42 -133 45
q-62 -3 -117 -30.5t-91 -67.5t-58.5 -80.5t-30.5 -75.5l-125 47q38 93 186 160.5t294 61.5q106 -3 189.5 -49.5t115.5 -135.5q31 -62 16 -153l-88 -502q-12 -71 29 -121z" />
    <glyph glyph-name="Dcroat" unicode="&#x110;" horiz-adv-x="1507" 
d="M961 1700h2q169 -5 310 -74.5t231.5 -183t128 -268.5t7.5 -326q-40 -227 -184.5 -420t-355 -308t-438.5 -122h-582l149 848h-159l2 16h161l148 838h582h-2zM641 12q122 0 243.5 66t221 178t174 266.5t104.5 325.5q39 227 -6 419t-162.5 304t-279.5 112h-6h-303l-146 -821
h459l-2 -16h-459l-147 -834h303h6z" />
    <glyph glyph-name="dcroat" unicode="&#x111;" horiz-adv-x="1099" 
d="M1020 53v-4q37 -46 108 -49h-223q-80 0 -123 49q-41 46 -28 121l2 8q-27 -18 -35 -22q-14 -10 -29 -20.5t-43.5 -28t-55 -30t-64 -27.5t-71 -20.5t-75 -8.5t-76.5 8q-154 54 -195 218q-39 155 34 341q71 181 209 290q175 139 377 91q74 -18 147 -60l39 232h-322l4 16h322
l92 537q-7 -40 1 -71t26 -50.5t40.5 -42.5t44.5 -46t37.5 -61t20 -87.5t-7.5 -125.5l-11 -53h156l-4 -16h-156l-170 -967q-12 -71 29 -121zM686 152l2 -2q41 18 72 49l119 684q-184 77 -335 -41q-113 -89 -166 -252q-51 -160 -13 -288q40 -130 158 -158q71 -16 163 8z" />
    <glyph glyph-name="Itilde" unicode="&#x128;" horiz-adv-x="413" 
d="M231 1970q44 35 86.5 47.5t81.5 3.5t71.5 -27.5t68.5 -49.5q53 -22 127 5t141 93l8 -2l41 -144q-59 -47 -115.5 -54t-100 14t-93.5 65q-50 23 -124.5 -3.5t-141.5 -92.5l-7 2zM330 4h-248l299 1698h248z" />
    <glyph glyph-name="itilde" unicode="&#x129;" horiz-adv-x="442" 
d="M365 53l2 -2q40 -49 120 -49h-237q-78 0 -121 49q-42 47 -29 121l158 944q-8 -46 4 -80.5t35.5 -55.5t50.5 -49.5t48.5 -62t29.5 -93t-6 -142.5l-82 -459q-12 -70 27 -121zM43 1266q57 46 114 51.5t99 -15t92 -63.5q53 -22 127 5t143 93l7 -2l43 -143q-60 -47 -117 -54
t-100.5 14t-92.5 65q-51 23 -125.5 -4t-142.5 -93l-4 2z" />
    <glyph glyph-name="Utilde" unicode="&#x168;" horiz-adv-x="1732" 
d="M952 1970q44 35 86.5 47.5t81.5 3.5t71.5 -27.5t68.5 -49.5q53 -22 127 5t141 93l8 -2l41 -144q-59 -47 -115.5 -54t-100 14t-93.5 65q-50 23 -125 -3.5t-142 -92.5l-6 2zM1825 823q-2 -10 -6 -27t-18.5 -62t-33 -90.5t-50.5 -107.5t-70 -118q-51 -76 -116.5 -141.5
t-159 -129t-222 -104t-277.5 -47.5h-22q-118 6 -216 34.5t-163.5 69.5t-117 97t-80.5 109t-48 112q-62 188 -32 395v2l2 10l157 887h254l-160 -905q-35 -195 18 -399t165 -304q72 -49 141 -72t102 -22l33 2q140 9 261 49t209.5 101.5t150.5 124t112 135.5q60 87 102.5 185.5
t55 146.5t12.5 57v2v2l160 895h14z" />
    <glyph glyph-name="utilde" unicode="&#x169;" horiz-adv-x="1159" 
d="M389 1282q58 46 115 51.5t99.5 -15t92.5 -63.5q52 -22 126 5.5t143 93.5l6 -2l41 -144q-59 -47 -115 -54t-99 14t-93 65q-51 23 -125.5 -3.5t-141.5 -92.5l-6 2zM1094 49l2 -2q40 -49 118 -49h-235q-78 0 -121 49q-28 36 -31 80q-123 -72 -234.5 -102.5t-196 -18.5
t-146 55.5t-93 118.5t-30.5 172q1 27 9.5 87.5t17.5 107.5l8 47l88 532q-7 -40 1.5 -71t26.5 -50.5t40.5 -42.5t44 -46t37.5 -60.5t20 -87t-8 -125.5l-4 -16q-28 -115 -34 -204.5t5.5 -146.5t39.5 -97.5t60.5 -60.5t77.5 -34q103 -30 266 55q1 5 2 15t2 14l160 958
q-7 -40 1.5 -71t26.5 -50.5t40.5 -42.5t44 -46t37.5 -60.5t20 -87t-8 -125.5l-84 -473q-13 -74 29 -121z" />
    <glyph glyph-name="Ohorn" unicode="&#x1a0;" horiz-adv-x="1748" 
d="M1176 1714q156 0 289 -54.5t233 -152.5q57 36 82.5 98t15.5 125t-49 107l4 2l170 41q22 -50 22 -95t-16 -82t-51 -73.5t-76 -66t-98 -62.5q117 -120 165 -287t15 -358q-31 -174 -127 -332.5t-231 -273t-305.5 -182.5t-344.5 -68t-320.5 67.5t-241 182.5t-134.5 273.5
t-10 332.5q31 175 127 334t231 273.5t305.5 182.5t344.5 68zM1165 63q163 56 283 208t168 361.5t10 424.5q-39 216 -152 371.5t-270 215.5t-321 5q-163 -56 -283 -208t-168 -361.5t-10 -424.5q39 -216 152 -371.5t270 -215.5t321 -5z" />
    <glyph glyph-name="ohorn" unicode="&#x1a1;" horiz-adv-x="1062" 
d="M1114 707q34 -125 -2.5 -259t-133 -244t-230.5 -167q-102 -42 -204 -44.5t-186 31.5t-146.5 102.5t-88.5 162.5q-34 125 2.5 258.5t133 242.5t230.5 166q174 71 333 31t243 -172q62 60 64 152t-50 149l4 2l168 41q21 -46 23 -88.5t-10.5 -78t-41.5 -69.5t-64.5 -62
t-84.5 -58q25 -41 41 -96zM743 45q115 49 159 215t-9 352q-52 187 -169 285t-230 51q-115 -47 -159 -213.5t9 -353.5q53 -186 170 -284.5t229 -51.5z" />
    <glyph glyph-name="Uhorn" unicode="&#x1af;" horiz-adv-x="1732" 
d="M1825 823q-2 -10 -6 -27t-18.5 -62t-33 -90.5t-50.5 -107.5t-70 -118q-51 -76 -116.5 -141.5t-159 -129t-222 -104t-277.5 -47.5h-22q-118 6 -216 34.5t-163.5 69.5t-117 97t-80.5 109t-48 112q-62 188 -32 395v2l159 897h254l-160 -905q-35 -195 18 -399t165 -304
q72 -49 141 -72t102 -22l33 2q140 9 261 49t209.5 101.5t150.5 124t112 135.5q60 87 102.5 185.5t55 146.5t12.5 57l160 899h14l-36 -211q63 34 92 97.5t20 129t-49 111.5l4 2l170 41q23 -52 22.5 -99.5t-18.5 -85t-56.5 -75.5t-82 -68t-104.5 -65z" />
    <glyph glyph-name="uhorn" unicode="&#x1b0;" horiz-adv-x="1159" 
d="M1094 49l2 -2q34 -46 106 -49h-223q-78 0 -121 49q-28 36 -31 80q-123 -72 -234.5 -102.5t-196 -18.5t-146 55.5t-93 118.5t-30.5 172q1 27 9.5 87.5t17.5 107.5l8 47l88 532q-7 -40 1.5 -71t26.5 -50.5t40.5 -42.5t44 -46t37.5 -60.5t20 -87t-8 -125.5l-4 -16
q-28 -115 -34 -204.5t5.5 -146.5t39.5 -97.5t60.5 -60.5t77.5 -34q103 -30 266 55q1 5 2 15t2 14l160 958q-8 -44 3 -77t33.5 -56.5t47.5 -46t48 -59t32 -82.5q46 39 65 97.5t8.5 116t-46.5 97.5l4 2l168 41q21 -48 22.5 -92t-13 -80t-46 -71.5t-69.5 -64.5t-91 -60
q10 -64 -4 -148l-84 -473q-13 -74 29 -121z" />
    <glyph glyph-name="uni1EA0" unicode="&#x1ea0;" 
d="M649 -258l-147 -125l-103 125l146 123zM811 858zM1083 1700l265 -1698h-248l-60 377h-813l-245 -383l-11 6l246 387l2 6h4l658 1018l-45 287h247zM238 391h800l-157 998z" />
    <glyph glyph-name="uni1EA1" unicode="&#x1ea1;" horiz-adv-x="1083" 
d="M600 -258l-147 -125l-103 125l146 123zM1018 43h-2q43 -49 119 -49h-236q-78 0 -121 49q-41 46 -28 121l106 567q-37 -99 -235 -156q-176 -58 -265 -183q-71 -101 -51 -189q19 -82 109 -106q62 -17 147 -1q-15 -7 -40 -18t-93.5 -35.5t-127 -38t-120 -12.5t-92.5 28
q-30 30 -41 73.5t-1 93t38 102t80.5 102.5t120.5 92.5t164 74.5t206 46q55 11 96.5 34t60.5 48t30.5 48.5t13.5 38.5l2 15q8 37 1 84.5t-28 71.5q-36 42 -133 45q-62 -3 -117 -30.5t-91 -67.5t-58.5 -80.5t-30.5 -75.5l-125 47q38 93 186 160.5t294 61.5q106 -3 189.5 -49.5
t115.5 -135.5q31 -62 16 -153l-88 -502q-12 -71 29 -121z" />
    <glyph glyph-name="uni1EA2" unicode="&#x1ea2;" 
d="M932 2132q116 68 203 30q64 -28 76 -96q14 -87 -67 -170q-41 -42 -102 -75l-8 2q96 98 72 166q-16 44 -72 50q-64 7 -114 -44q-8 -8 -15 -17v4zM811 858zM1083 1700l265 -1698h-248l-60 377h-813l-245 -383l-11 6l246 387l2 6h4l658 1018l-45 287h247zM238 391h800
l-157 998z" />
    <glyph glyph-name="uni1EA3" unicode="&#x1ea3;" horiz-adv-x="1083" 
d="M678 1440q116 68 204 30q64 -27 76 -96q15 -87 -65 -170q-41 -42 -102 -76l-11 5q95 96 72 164q-15 44 -70 51q-63 8 -113 -43q-8 -9 -16 -19l-2 4zM1018 43h-2q43 -49 119 -49h-236q-78 0 -121 49q-41 46 -28 121l106 567q-37 -99 -235 -156q-176 -58 -265 -183
q-71 -101 -51 -189q19 -82 109 -106q62 -17 147 -1q-15 -7 -40 -18t-93.5 -35.5t-127 -38t-120 -12.5t-92.5 28q-30 30 -41 73.5t-1 93t38 102t80.5 102.5t120.5 92.5t164 74.5t206 46q55 11 96.5 34t60.5 48t30.5 48.5t13.5 38.5l2 15q8 37 1 84.5t-28 71.5q-36 42 -133 45
q-62 -3 -117 -30.5t-91 -67.5t-58.5 -80.5t-30.5 -75.5l-125 47q38 93 186 160.5t294 61.5q106 -3 189.5 -49.5t115.5 -135.5q31 -62 16 -153l-88 -502q-12 -71 29 -121z" />
    <glyph glyph-name="uni1EA4" unicode="&#x1ea4;" 
d="M1151 2093v12q87 9 147 97.5t56 203.5l4 7l168 -37q-5 -57 -28.5 -101.5t-56.5 -73t-83 -50.5t-97 -34.5t-110 -23.5zM1303 1815q-70 -6 -119 11.5t-75 55t-37 85t-9 110.5q-38 -127 -115.5 -198.5t-214.5 -63.5l6 147l2 2q43 -19 96 -12.5t100 27t83.5 59.5t46.5 86h10
q-7 -47 15.5 -86t62.5 -59.5t90.5 -27t100.5 12.5l2 -2zM811 858zM1083 1700l265 -1698h-248l-60 377h-813l-245 -383l-11 6l246 387l2 6h4l658 1018l-45 287h247zM238 391h800l-157 998z" />
    <glyph glyph-name="uni1EA5" unicode="&#x1ea5;" horiz-adv-x="1083" 
d="M872 1389v12q88 9 147.5 97.5t55.5 203.5l4 6l168 -37q-5 -57 -28.5 -101t-56.5 -73t-83 -51t-97 -34t-110 -23zM1018 43h-2q43 -49 119 -49h-236q-78 0 -121 49q-41 46 -28 121l106 567q-37 -99 -235 -156q-176 -58 -265 -183q-71 -101 -51 -189q19 -82 109 -106
q62 -17 147 -1q-15 -7 -40 -18t-93.5 -35.5t-127 -38t-120 -12.5t-92.5 28q-30 30 -41 73.5t-1 93t38 102t80.5 102.5t120.5 92.5t164 74.5t206 46q55 11 96.5 34t60.5 48t30.5 48.5t13.5 38.5l2 15q8 37 1 84.5t-28 71.5q-36 42 -133 45q-62 -3 -117 -30.5t-91 -67.5
t-58.5 -80.5t-30.5 -75.5l-125 47q38 93 186 160.5t294 61.5q106 -3 189.5 -49.5t115.5 -135.5q31 -62 16 -153l-88 -502q-12 -71 29 -121zM1024 1110q-70 -6 -119 11.5t-75 55t-37 85t-9 110.5q-38 -128 -114.5 -199t-214.5 -63l6 147l2 3q43 -19 96 -12.5t99.5 27t83 59
t46.5 85.5h11q-7 -47 15.5 -86t62 -59t90 -26.5t100.5 12.5l2 -3z" />
    <glyph glyph-name="uni1EA6" unicode="&#x1ea6;" 
d="M1372 2105l-2 -12q-37 7 -66 14t-60 17t-54 22t-44.5 27.5t-34.5 36t-20.5 44.5t-6.5 55t10 67l180 37l4 -7q-46 -115 -18.5 -203.5t112.5 -97.5zM1303 1815q-70 -6 -119 11.5t-75 55t-37 85t-9 110.5q-38 -127 -115.5 -198.5t-214.5 -63.5l6 147l2 2q43 -19 96 -12.5
t100 27t83.5 59.5t46.5 86h10q-7 -47 15.5 -86t62.5 -59.5t90.5 -27t100.5 12.5l2 -2zM811 858zM1083 1700l265 -1698h-248l-60 377h-813l-245 -383l-11 6l246 387l2 6h4l658 1018l-45 287h247zM238 391h800l-157 998z" />
    <glyph glyph-name="uni1EA7" unicode="&#x1ea7;" horiz-adv-x="1083" 
d="M1094 1401l-2 -12q-37 7 -66 14t-60 16.5t-54 21.5t-44.5 28t-34.5 36t-21 44.5t-7 55t10 66.5l180 37l4 -6q-29 -79 -27 -144t34.5 -108t87.5 -49zM1018 43h-2q43 -49 119 -49h-236q-78 0 -121 49q-41 46 -28 121l106 567q-37 -99 -235 -156q-176 -58 -265 -183
q-71 -101 -51 -189q19 -82 109 -106q62 -17 147 -1q-15 -7 -40 -18t-93.5 -35.5t-127 -38t-120 -12.5t-92.5 28q-30 30 -41 73.5t-1 93t38 102t80.5 102.5t120.5 92.5t164 74.5t206 46q55 11 96.5 34t60.5 48t30.5 48.5t13.5 38.5l2 15q8 37 1 84.5t-28 71.5q-36 42 -133 45
q-62 -3 -117 -30.5t-91 -67.5t-58.5 -80.5t-30.5 -75.5l-125 47q38 93 186 160.5t294 61.5q106 -3 189.5 -49.5t115.5 -135.5q31 -62 16 -153l-88 -502q-12 -71 29 -121zM1024 1110q-70 -6 -119 11.5t-75 55t-37 85t-9 110.5q-38 -128 -114.5 -199t-214.5 -63l6 147l2 3
q43 -19 96 -12.5t99.5 27t83 59t46.5 85.5h11q-7 -47 15.5 -86t62 -59t90 -26.5t100.5 12.5l2 -3z" />
    <glyph glyph-name="uni1EA8" unicode="&#x1ea8;" 
d="M1155 2376q116 67 204 30q65 -28 76 -97q14 -87 -67 -170q-41 -42 -102 -75l-9 4q95 96 72 164q-16 44 -70 52q-63 8 -112 -42q-9 -9 -17 -20l-2 4zM1303 1815q-70 -6 -119 11.5t-75 55t-37 85t-9 110.5q-38 -127 -115.5 -198.5t-214.5 -63.5l6 147l2 2q43 -19 96 -12.5
t100 27t83.5 59.5t46.5 86h10q-7 -47 15.5 -86t62.5 -59.5t90.5 -27t100.5 12.5l2 -2zM811 858zM1083 1700l265 -1698h-248l-60 377h-813l-245 -383l-11 6l246 387l2 6h4l658 1018l-45 287h247zM238 391h800l-157 998z" />
    <glyph glyph-name="uni1EA9" unicode="&#x1ea9;" horiz-adv-x="1083" 
d="M877 1671q116 68 204 30q64 -28 75 -96q15 -87 -67 -170q-41 -42 -102 -75l-8 4q95 96 72 164q-16 44 -70 52q-63 8 -112 -42l-17 -20l-2 4zM1018 43h-2q43 -49 119 -49h-236q-78 0 -121 49q-41 46 -28 121l106 567q-37 -99 -235 -156q-176 -58 -265 -183
q-71 -101 -51 -189q19 -82 109 -106q62 -17 147 -1q-15 -7 -40 -18t-93.5 -35.5t-127 -38t-120 -12.5t-92.5 28q-30 30 -41 73.5t-1 93t38 102t80.5 102.5t120.5 92.5t164 74.5t206 46q55 11 96.5 34t60.5 48t30.5 48.5t13.5 38.5l2 15q8 37 1 84.5t-28 71.5q-36 42 -133 45
q-62 -3 -117 -30.5t-91 -67.5t-58.5 -80.5t-30.5 -75.5l-125 47q38 93 186 160.5t294 61.5q106 -3 189.5 -49.5t115.5 -135.5q31 -62 16 -153l-88 -502q-12 -71 29 -121zM1024 1110q-70 -6 -119 11.5t-75 55t-37 85t-9 110.5q-38 -128 -114.5 -199t-214.5 -63l6 147l2 3
q43 -19 96 -12.5t99.5 27t83 59t46.5 85.5h11q-7 -47 15.5 -86t62 -59t90 -26.5t100.5 12.5l2 -3z" />
    <glyph glyph-name="uni1EAA" unicode="&#x1eaa;" 
d="M795 2286q58 46 115 52t100 -14.5t92 -64.5q53 -20 127.5 6.5t142.5 91.5l6 -2l43 -143q-60 -46 -117 -52.5t-100.5 14t-93.5 64.5q-50 22 -124.5 -5t-141.5 -91h-4zM1303 1815q-70 -6 -119 11.5t-75 55t-37 85t-9 110.5q-38 -127 -115.5 -198.5t-214.5 -63.5l6 147l2 2
q43 -19 96 -12.5t100 27t83.5 59.5t46.5 86h10q-7 -47 15.5 -86t62.5 -59.5t90.5 -27t100.5 12.5l2 -2zM811 858zM1083 1700l265 -1698h-248l-60 377h-813l-245 -383l-11 6l246 387l2 6h4l658 1018l-45 287h247zM238 391h800l-157 998z" />
    <glyph glyph-name="uni1EAB" unicode="&#x1eab;" horiz-adv-x="1083" 
d="M518 1581q58 46 114 52t99 -15t92 -64q53 -20 128 7t143 92l6 -2l43 -144q-60 -46 -117 -52.5t-100 14.5t-92 65q-51 22 -126.5 -5t-142.5 -91h-4zM1018 43h-2q43 -49 119 -49h-236q-78 0 -121 49q-41 46 -28 121l106 567q-37 -99 -235 -156q-176 -58 -265 -183
q-71 -101 -51 -189q19 -82 109 -106q62 -17 147 -1q-15 -7 -40 -18t-93.5 -35.5t-127 -38t-120 -12.5t-92.5 28q-30 30 -41 73.5t-1 93t38 102t80.5 102.5t120.5 92.5t164 74.5t206 46q55 11 96.5 34t60.5 48t30.5 48.5t13.5 38.5l2 15q8 37 1 84.5t-28 71.5q-36 42 -133 45
q-62 -3 -117 -30.5t-91 -67.5t-58.5 -80.5t-30.5 -75.5l-125 47q38 93 186 160.5t294 61.5q106 -3 189.5 -49.5t115.5 -135.5q31 -62 16 -153l-88 -502q-12 -71 29 -121zM1024 1110q-70 -6 -119 11.5t-75 55t-37 85t-9 110.5q-38 -128 -114.5 -199t-214.5 -63l6 147l2 3
q43 -19 96 -12.5t99.5 27t83 59t46.5 85.5h11q-7 -47 15.5 -86t62 -59t90 -26.5t100.5 12.5l2 -3z" />
    <glyph glyph-name="uni1EAC" unicode="&#x1eac;" 
d="M649 -258l-147 -125l-103 125l146 123zM1303 1815q-70 -6 -119 11.5t-75 55t-37 85t-9 110.5q-38 -127 -115.5 -198.5t-214.5 -63.5l6 147l2 2q43 -19 96 -12.5t100 27t83.5 59.5t46.5 86h10q-7 -47 15.5 -86t62.5 -59.5t90.5 -27t100.5 12.5l2 -2zM811 858zM1083 1700
l265 -1698h-248l-60 377h-813l-245 -383l-11 6l246 387l2 6h4l658 1018l-45 287h247zM238 391h800l-157 998z" />
    <glyph glyph-name="uni1EAD" unicode="&#x1ead;" horiz-adv-x="1083" 
d="M600 -258l-147 -125l-103 125l146 123zM1018 43h-2q43 -49 119 -49h-236q-78 0 -121 49q-41 46 -28 121l106 567q-37 -99 -235 -156q-176 -58 -265 -183q-71 -101 -51 -189q19 -82 109 -106q62 -17 147 -1q-15 -7 -40 -18t-93.5 -35.5t-127 -38t-120 -12.5t-92.5 28
q-30 30 -41 73.5t-1 93t38 102t80.5 102.5t120.5 92.5t164 74.5t206 46q55 11 96.5 34t60.5 48t30.5 48.5t13.5 38.5l2 15q8 37 1 84.5t-28 71.5q-36 42 -133 45q-62 -3 -117 -30.5t-91 -67.5t-58.5 -80.5t-30.5 -75.5l-125 47q38 93 186 160.5t294 61.5q106 -3 189.5 -49.5
t115.5 -135.5q31 -62 16 -153l-88 -502q-12 -71 29 -121zM1024 1110q-70 -6 -119 11.5t-75 55t-37 85t-9 110.5q-38 -128 -114.5 -199t-214.5 -63l6 147l2 3q43 -19 96 -12.5t99.5 27t83 59t46.5 85.5h11q-7 -47 15.5 -86t62 -59t90 -26.5t100.5 12.5l2 -3z" />
    <glyph glyph-name="uni1EAE" unicode="&#x1eae;" 
d="M1032 2077l2 12q88 9 147 97t54 204l6 6l166 -37q-5 -57 -28.5 -101t-56 -73t-82.5 -51t-97 -34t-111 -23zM1194 2028l135 -43q-55 -187 -307 -187q-57 0 -99.5 8t-77.5 27.5t-52 57.5t-13 94l150 43l4 -3q-28 -77 -2 -136t94 -74q71 17 117 76.5t45 133.5zM811 858z
M1083 1700l265 -1698h-248l-60 377h-813l-245 -383l-11 6l246 387l2 6h4l658 1018l-45 287h247zM238 391h800l-157 998z" />
    <glyph glyph-name="uni1EAF" unicode="&#x1eaf;" horiz-adv-x="1083" 
d="M750 1372l2 12q88 9 147 98t55 204l4 6l168 -37q-5 -57 -27.5 -101.5t-55.5 -73t-83 -50.5t-97.5 -34.5t-112.5 -23.5zM913 1323l134 -43q-55 -186 -306 -186q-57 0 -99 7.5t-77.5 27t-52.5 57.5t-14 94l151 43l4 -2q-28 -76 -2.5 -136t92.5 -75q72 17 118 76.5t46 134.5
zM1018 43h-2q43 -49 119 -49h-236q-78 0 -121 49q-41 46 -28 121l106 567q-37 -99 -235 -156q-176 -58 -265 -183q-71 -101 -51 -189q19 -82 109 -106q62 -17 147 -1q-15 -7 -40 -18t-93.5 -35.5t-127 -38t-120 -12.5t-92.5 28q-30 30 -41 73.5t-1 93t38 102t80.5 102.5
t120.5 92.5t164 74.5t206 46q55 11 96.5 34t60.5 48t30.5 48.5t13.5 38.5l2 15q8 37 1 84.5t-28 71.5q-36 42 -133 45q-62 -3 -117 -30.5t-91 -67.5t-58.5 -80.5t-30.5 -75.5l-125 47q38 93 186 160.5t294 61.5q106 -3 189.5 -49.5t115.5 -135.5q31 -62 16 -153l-88 -502
q-12 -71 29 -121z" />
    <glyph glyph-name="uni1EB0" unicode="&#x1eb0;" 
d="M1141 2089l-2 -12q-37 7 -66 14t-60 16.5t-54 21.5t-44.5 28t-34.5 36t-21 44.5t-7 55t10 66.5l180 37l5 -6q-29 -79 -27.5 -144t34 -108t87.5 -49zM1194 2028l135 -43q-55 -187 -307 -187q-57 0 -99.5 8t-77.5 27.5t-52 57.5t-13 94l150 43l4 -3q-28 -77 -2 -136t94 -74
q71 17 117 76.5t45 133.5zM811 858zM1083 1700l265 -1698h-248l-60 377h-813l-245 -383l-11 6l246 387l2 6h4l658 1018l-45 287h247zM238 391h800l-157 998z" />
    <glyph glyph-name="uni1EB1" unicode="&#x1eb1;" horiz-adv-x="1083" 
d="M858 1384l-2 -12q-36 7 -65 14t-60 17t-53.5 22t-44 27.5t-34.5 36t-20.5 44.5t-6.5 55t10 67l178 37l6 -6q-30 -79 -28.5 -144t34 -108.5t86.5 -49.5zM913 1323l134 -43q-55 -186 -306 -186q-57 0 -99 7.5t-77.5 27t-52.5 57.5t-14 94l151 43l4 -2q-28 -76 -2.5 -136
t92.5 -75q72 17 118 76.5t46 134.5zM1018 43h-2q43 -49 119 -49h-236q-78 0 -121 49q-41 46 -28 121l106 567q-37 -99 -235 -156q-176 -58 -265 -183q-71 -101 -51 -189q19 -82 109 -106q62 -17 147 -1q-15 -7 -40 -18t-93.5 -35.5t-127 -38t-120 -12.5t-92.5 28
q-30 30 -41 73.5t-1 93t38 102t80.5 102.5t120.5 92.5t164 74.5t206 46q55 11 96.5 34t60.5 48t30.5 48.5t13.5 38.5l2 15q8 37 1 84.5t-28 71.5q-36 42 -133 45q-62 -3 -117 -30.5t-91 -67.5t-58.5 -80.5t-30.5 -75.5l-125 47q38 93 186 160.5t294 61.5q106 -3 189.5 -49.5
t115.5 -135.5q31 -62 16 -153l-88 -502q-12 -71 29 -121z" />
    <glyph glyph-name="uni1EB2" unicode="&#x1eb2;" 
d="M975 2378q116 67 203 30q65 -28 76 -97q14 -87 -67 -170q-41 -42 -102 -75l-8 2q95 97 71 166q-15 44 -69 51q-64 8 -113 -42q-9 -9 -16 -19l-2 4zM1194 2028l135 -43q-55 -187 -307 -187q-57 0 -99.5 8t-77.5 27.5t-52 57.5t-13 94l150 43l4 -3q-28 -77 -2 -136t94 -74
q71 17 117 76.5t45 133.5zM811 858zM1083 1700l265 -1698h-248l-60 377h-813l-245 -383l-11 6l246 387l2 6h4l658 1018l-45 287h247zM238 391h800l-157 998z" />
    <glyph glyph-name="uni1EB3" unicode="&#x1eb3;" horiz-adv-x="1083" 
d="M694 1673q116 68 203 30q64 -28 76 -97q14 -87 -68 -170q-40 -41 -100 -74l-10 2q95 97 72 166q-15 44 -69 51q-64 8 -114 -42q-8 -9 -16 -19v4zM913 1323l134 -43q-55 -186 -306 -186q-57 0 -99 7.5t-77.5 27t-52.5 57.5t-14 94l151 43l4 -2q-28 -76 -2.5 -136t92.5 -75
q72 17 118 76.5t46 134.5zM1018 43h-2q43 -49 119 -49h-236q-78 0 -121 49q-41 46 -28 121l106 567q-37 -99 -235 -156q-176 -58 -265 -183q-71 -101 -51 -189q19 -82 109 -106q62 -17 147 -1q-15 -7 -40 -18t-93.5 -35.5t-127 -38t-120 -12.5t-92.5 28q-30 30 -41 73.5
t-1 93t38 102t80.5 102.5t120.5 92.5t164 74.5t206 46q55 11 96.5 34t60.5 48t30.5 48.5t13.5 38.5l2 15q8 37 1 84.5t-28 71.5q-36 42 -133 45q-62 -3 -117 -30.5t-91 -67.5t-58.5 -80.5t-30.5 -75.5l-125 47q38 93 186 160.5t294 61.5q106 -3 189.5 -49.5t115.5 -135.5
q31 -62 16 -153l-88 -502q-12 -71 29 -121z" />
    <glyph glyph-name="uni1EB4" unicode="&#x1eb4;" 
d="M786 2232q57 47 114 53t100 -14t94 -63q52 -22 126 4.5t144 93.5l4 -2l43 -145q-60 -46 -116.5 -52.5t-99.5 14t-93 64.5q-49 23 -124 -4t-144 -92l-5 2zM1194 2028l135 -43q-55 -187 -307 -187q-57 0 -99.5 8t-77.5 27.5t-52 57.5t-13 94l150 43l4 -3q-28 -77 -2 -136
t94 -74q71 17 117 76.5t45 133.5zM811 858zM1083 1700l265 -1698h-248l-60 377h-813l-245 -383l-11 6l246 387l2 6h4l658 1018l-45 287h247zM238 391h800l-157 998z" />
    <glyph glyph-name="uni1EB5" unicode="&#x1eb5;" horiz-adv-x="1083" 
d="M504 1528q44 35 86.5 48t81 4.5t70.5 -27t69 -50.5q53 -22 126.5 5t143.5 94l6 -3l41 -145q-59 -46 -115.5 -52.5t-99.5 14.5t-92 65q-51 23 -125.5 -4.5t-142.5 -92.5l-4 2zM913 1323l134 -43q-55 -186 -306 -186q-57 0 -99 7.5t-77.5 27t-52.5 57.5t-14 94l151 43l4 -2
q-28 -76 -2.5 -136t92.5 -75q72 17 118 76.5t46 134.5zM1018 43h-2q43 -49 119 -49h-236q-78 0 -121 49q-41 46 -28 121l106 567q-37 -99 -235 -156q-176 -58 -265 -183q-71 -101 -51 -189q19 -82 109 -106q62 -17 147 -1q-15 -7 -40 -18t-93.5 -35.5t-127 -38t-120 -12.5
t-92.5 28q-30 30 -41 73.5t-1 93t38 102t80.5 102.5t120.5 92.5t164 74.5t206 46q55 11 96.5 34t60.5 48t30.5 48.5t13.5 38.5l2 15q8 37 1 84.5t-28 71.5q-36 42 -133 45q-62 -3 -117 -30.5t-91 -67.5t-58.5 -80.5t-30.5 -75.5l-125 47q38 93 186 160.5t294 61.5
q106 -3 189.5 -49.5t115.5 -135.5q31 -62 16 -153l-88 -502q-12 -71 29 -121z" />
    <glyph glyph-name="uni1EB6" unicode="&#x1eb6;" 
d="M649 -258l-147 -125l-103 125l146 123zM1194 2028l135 -43q-55 -187 -307 -187q-57 0 -99.5 8t-77.5 27.5t-52 57.5t-13 94l150 43l4 -3q-28 -77 -2 -136t94 -74q71 17 117 76.5t45 133.5zM811 858zM1083 1700l265 -1698h-248l-60 377h-813l-245 -383l-11 6l246 387l2 6
h4l658 1018l-45 287h247zM238 391h800l-157 998z" />
    <glyph glyph-name="uni1EB7" unicode="&#x1eb7;" horiz-adv-x="1083" 
d="M600 -258l-147 -125l-103 125l146 123zM913 1323l134 -43q-55 -186 -306 -186q-57 0 -99 7.5t-77.5 27t-52.5 57.5t-14 94l151 43l4 -2q-28 -76 -2.5 -136t92.5 -75q72 17 118 76.5t46 134.5zM1018 43h-2q43 -49 119 -49h-236q-78 0 -121 49q-41 46 -28 121l106 567
q-37 -99 -235 -156q-176 -58 -265 -183q-71 -101 -51 -189q19 -82 109 -106q62 -17 147 -1q-15 -7 -40 -18t-93.5 -35.5t-127 -38t-120 -12.5t-92.5 28q-30 30 -41 73.5t-1 93t38 102t80.5 102.5t120.5 92.5t164 74.5t206 46q55 11 96.5 34t60.5 48t30.5 48.5t13.5 38.5
l2 15q8 37 1 84.5t-28 71.5q-36 42 -133 45q-62 -3 -117 -30.5t-91 -67.5t-58.5 -80.5t-30.5 -75.5l-125 47q38 93 186 160.5t294 61.5q106 -3 189.5 -49.5t115.5 -135.5q31 -62 16 -153l-88 -502q-12 -71 29 -121z" />
    <glyph glyph-name="uni1EB8" unicode="&#x1eb8;" horiz-adv-x="1454" 
d="M879 -258l-148 -125l-102 125l145 123zM1761 1686h-1134l-148 -828h1137l-4 -14h-1135l-145 -828h1134l-2 -14h-1382v2l299 1696h248h1136z" />
    <glyph glyph-name="uni1EB9" unicode="&#x1eb9;" horiz-adv-x="989" 
d="M633 -258l-148 -125l-102 125l145 123zM725 483h4q-49 -41 -67.5 -56.5t-61 -47t-69.5 -45t-66 -27t-76 -16.5q62 -142 163.5 -209t197.5 -27q108 45 155 205l10 -110q-77 -65 -163 -101q-101 -42 -203 -44.5t-186 31t-147 101.5t-89 162q-34 125 3 259t134 244t232 167
q136 53 258.5 43.5t219.5 -81t138 -186.5h-2l2 -12q-23 -8 -84 -35l-133 -77q-77 -52 -170 -138zM381 303l-2 -2q37 2 75 15.5t64.5 26t69.5 45t61.5 48t69.5 58.5q129 106 178 139q-55 181 -171 276t-226 49q-75 -31 -122 -119.5t-54 -203.5t26 -244q5 -18 17 -50.5
t14 -37.5z" />
    <glyph glyph-name="uni1EBA" unicode="&#x1eba;" horiz-adv-x="1454" 
d="M1014 2132q116 68 203 30q64 -28 76 -96q14 -87 -67 -170q-41 -42 -102 -75l-8 2q96 98 72 166q-16 44 -72 50q-64 7 -114 -44q-8 -8 -15 -17v4zM1761 1686h-1134l-148 -828h1137l-4 -14h-1135l-145 -828h1134l-2 -14h-1382v2l299 1696h248h1136z" />
    <glyph glyph-name="uni1EBB" unicode="&#x1ebb;" horiz-adv-x="989" 
d="M629 1440q116 68 204 30q64 -27 76 -96q14 -87 -66 -170q-41 -42 -102 -76l-10 5q95 96 72 164q-15 44 -70 51q-63 8 -113 -43q-8 -9 -16 -19l-2 4zM725 483h4q-49 -41 -67.5 -56.5t-61 -47t-69.5 -45t-66 -27t-76 -16.5q62 -142 163.5 -209t197.5 -27q108 45 155 205
l10 -110q-77 -65 -163 -101q-101 -42 -203 -44.5t-186 31t-147 101.5t-89 162q-34 125 3 259t134 244t232 167q136 53 258.5 43.5t219.5 -81t138 -186.5h-2l2 -12q-23 -8 -84 -35l-133 -77q-77 -52 -170 -138zM381 303l-2 -2q37 2 75 15.5t64.5 26t69.5 45t61.5 48
t69.5 58.5q129 106 178 139q-55 181 -171 276t-226 49q-75 -31 -122 -119.5t-54 -203.5t26 -244q5 -18 17 -50.5t14 -37.5z" />
    <glyph glyph-name="uni1EBC" unicode="&#x1ebc;" horiz-adv-x="1454" 
d="M821 1970q58 46 115 52t100 -14.5t92 -63.5q53 -22 127.5 5t141.5 93l8 -2l41 -144q-59 -47 -115.5 -54t-100 14t-93.5 65q-50 23 -125 -3.5t-142 -92.5l-6 2zM1761 1686h-1134l-148 -828h1137l-4 -14h-1135l-145 -828h1134l-2 -14h-1382v2l299 1696h248h1136z" />
    <glyph glyph-name="uni1EBD" unicode="&#x1ebd;" horiz-adv-x="989" 
d="M422 1282q58 46 115 51.5t99.5 -15t92.5 -63.5q52 -22 125.5 5.5t142.5 93.5l7 -2l40 -144q-59 -47 -115 -54t-99 14t-93 65q-51 23 -124.5 -3.5t-141.5 -92.5l-6 2zM725 483h4q-49 -41 -67.5 -56.5t-61 -47t-69.5 -45t-66 -27t-76 -16.5q62 -142 163.5 -209t197.5 -27
q108 45 155 205l10 -110q-77 -65 -163 -101q-101 -42 -203 -44.5t-186 31t-147 101.5t-89 162q-34 125 3 259t134 244t232 167q136 53 258.5 43.5t219.5 -81t138 -186.5h-2l2 -12q-23 -8 -84 -35l-133 -77q-77 -52 -170 -138zM381 303l-2 -2q37 2 75 15.5t64.5 26t69.5 45
t61.5 48t69.5 58.5q129 106 178 139q-55 181 -171 276t-226 49q-75 -31 -122 -119.5t-54 -203.5t26 -244q5 -18 17 -50.5t14 -37.5z" />
    <glyph glyph-name="uni1EBE" unicode="&#x1ebe;" horiz-adv-x="1454" 
d="M1245 2093l2 12q87 9 146 97.5t55 203.5l6 7l166 -37q-5 -57 -28.5 -101.5t-56 -73t-82.5 -50.5t-97 -34.5t-111 -23.5zM1397 1815q-134 -11 -188.5 60.5t-49.5 201.5q-40 -128 -117 -199t-215 -63l7 147l4 2q90 -35 196.5 15.5t126.5 144.5h10q-7 -47 15.5 -86
t62.5 -59.5t90.5 -27t100.5 12.5l4 -2zM1761 1686h-1134l-148 -828h1137l-4 -14h-1135l-145 -828h1134l-2 -14h-1382v2l299 1696h248h1136z" />
    <glyph glyph-name="uni1EBF" unicode="&#x1ebf;" horiz-adv-x="989" 
d="M840 1389v12q88 9 147 97.5t55 203.5l5 6l167 -37q-5 -57 -28.5 -101t-56 -73t-82.5 -51t-97 -34t-110 -23zM991 1110q-135 -11 -188.5 59.5t-50.5 202.5q-38 -128 -115 -199t-215 -63l6 147l2 3q43 -19 96 -12.5t100 26.5t83.5 59t46.5 86h10q-7 -47 15.5 -86t62 -59
t90 -26.5t100.5 12.5l2 -3zM725 483h4q-49 -41 -67.5 -56.5t-61 -47t-69.5 -45t-66 -27t-76 -16.5q62 -142 163.5 -209t197.5 -27q108 45 155 205l10 -110q-77 -65 -163 -101q-101 -42 -203 -44.5t-186 31t-147 101.5t-89 162q-34 125 3 259t134 244t232 167
q136 53 258.5 43.5t219.5 -81t138 -186.5h-2l2 -12q-23 -8 -84 -35l-133 -77q-77 -52 -170 -138zM381 303l-2 -2q37 2 75 15.5t64.5 26t69.5 45t61.5 48t69.5 58.5q129 106 178 139q-55 181 -171 276t-226 49q-75 -31 -122 -119.5t-54 -203.5t26 -244q5 -18 17 -50.5
t14 -37.5z" />
    <glyph glyph-name="uni1EC0" unicode="&#x1ec0;" horiz-adv-x="1454" 
d="M1466 2105l-2 -12q-37 7 -66 14t-60 17t-54 22t-44.5 27.5t-34.5 36t-20.5 44.5t-6.5 55t10 67l180 37l4 -7q-29 -79 -27.5 -144t34 -108t87.5 -49zM1397 1815q-134 -11 -188.5 60.5t-49.5 201.5q-40 -128 -117 -199t-215 -63l7 147l4 2q90 -35 196.5 15.5t126.5 144.5
h10q-7 -47 15.5 -86t62.5 -59.5t90.5 -27t100.5 12.5l4 -2zM1761 1686h-1134l-148 -828h1137l-4 -14h-1135l-145 -828h1134l-2 -14h-1382v2l299 1696h248h1136z" />
    <glyph glyph-name="uni1EC1" unicode="&#x1ec1;" horiz-adv-x="989" 
d="M1061 1401l-2 -12q-37 7 -66 14t-60 16.5t-54 21.5t-44.5 28t-34.5 36t-21 44.5t-7 55t10 66.5l181 37l4 -6q-29 -79 -27.5 -144t34 -108t87.5 -49zM991 1110q-135 -11 -188.5 59.5t-50.5 202.5q-38 -128 -115 -199t-215 -63l6 147l2 3q43 -19 96 -12.5t100 26.5t83.5 59
t46.5 86h10q-7 -47 15.5 -86t62 -59t90 -26.5t100.5 12.5l2 -3zM725 483h4q-49 -41 -67.5 -56.5t-61 -47t-69.5 -45t-66 -27t-76 -16.5q62 -142 163.5 -209t197.5 -27q108 45 155 205l10 -110q-77 -65 -163 -101q-101 -42 -203 -44.5t-186 31t-147 101.5t-89 162
q-34 125 3 259t134 244t232 167q136 53 258.5 43.5t219.5 -81t138 -186.5h-2l2 -12q-23 -8 -84 -35l-133 -77q-77 -52 -170 -138zM381 303l-2 -2q37 2 75 15.5t64.5 26t69.5 45t61.5 48t69.5 58.5q129 106 178 139q-55 181 -171 276t-226 49q-75 -31 -122 -119.5t-54 -203.5
t26 -244q5 -18 17 -50.5t14 -37.5z" />
    <glyph glyph-name="uni1EC2" unicode="&#x1ec2;" horiz-adv-x="1454" 
d="M1249 2376q116 67 204 30q65 -28 76 -97q15 -87 -66 -170q-40 -42 -101 -75l-10 4q95 96 72 164q-15 44 -68 51q-63 9 -114 -41q-9 -9 -17 -20v4zM1397 1815q-134 -11 -188.5 60.5t-49.5 201.5q-40 -128 -117 -199t-215 -63l7 147l4 2q90 -35 196.5 15.5t126.5 144.5h10
q-7 -47 15.5 -86t62.5 -59.5t90.5 -27t100.5 12.5l4 -2zM1761 1686h-1134l-148 -828h1137l-4 -14h-1135l-145 -828h1134l-2 -14h-1382v2l299 1696h248h1136z" />
    <glyph glyph-name="uni1EC3" unicode="&#x1ec3;" horiz-adv-x="989" 
d="M844 1671q116 68 204 30q64 -28 75 -96q15 -87 -67 -170q-41 -42 -102 -75l-8 4q95 96 72 164q-16 44 -70 52q-63 8 -112 -42l-17 -20l-2 4zM991 1110q-135 -11 -188.5 59.5t-50.5 202.5q-38 -128 -115 -199t-215 -63l6 147l2 3q43 -19 96 -12.5t100 26.5t83.5 59
t46.5 86h10q-7 -47 15.5 -86t62 -59t90 -26.5t100.5 12.5l2 -3zM725 483h4q-49 -41 -67.5 -56.5t-61 -47t-69.5 -45t-66 -27t-76 -16.5q62 -142 163.5 -209t197.5 -27q108 45 155 205l10 -110q-77 -65 -163 -101q-101 -42 -203 -44.5t-186 31t-147 101.5t-89 162
q-34 125 3 259t134 244t232 167q136 53 258.5 43.5t219.5 -81t138 -186.5h-2l2 -12q-23 -8 -84 -35l-133 -77q-77 -52 -170 -138zM381 303l-2 -2q37 2 75 15.5t64.5 26t69.5 45t61.5 48t69.5 58.5q129 106 178 139q-55 181 -171 276t-226 49q-75 -31 -122 -119.5t-54 -203.5
t26 -244q5 -18 17 -50.5t14 -37.5z" />
    <glyph glyph-name="uni1EC4" unicode="&#x1ec4;" horiz-adv-x="1454" 
d="M889 2286q58 46 115.5 52t101 -15t92.5 -64q52 -20 126 6.5t142 91.5l7 -2l43 -143q-60 -46 -116.5 -52.5t-100 14t-93.5 64.5q-50 22 -125.5 -5t-142.5 -91h-4zM1397 1815q-134 -11 -188.5 60.5t-49.5 201.5q-40 -128 -117 -199t-215 -63l7 147l4 2q90 -35 196.5 15.5
t126.5 144.5h10q-7 -47 15.5 -86t62.5 -59.5t90.5 -27t100.5 12.5l4 -2zM1761 1686h-1134l-148 -828h1137l-4 -14h-1135l-145 -828h1134l-2 -14h-1382v2l299 1696h248h1136z" />
    <glyph glyph-name="uni1EC5" unicode="&#x1ec5;" horiz-adv-x="989" 
d="M485 1581q58 46 114.5 52t99.5 -15t92 -64q53 -20 127 6.5t143 92.5l6 -2l43 -144q-60 -46 -117 -52.5t-100 14.5t-92 65q-51 22 -126.5 -5t-142.5 -91h-4zM991 1110q-135 -11 -188.5 59.5t-50.5 202.5q-38 -128 -115 -199t-215 -63l6 147l2 3q43 -19 96 -12.5t100 26.5
t83.5 59t46.5 86h10q-7 -47 15.5 -86t62 -59t90 -26.5t100.5 12.5l2 -3zM725 483h4q-49 -41 -67.5 -56.5t-61 -47t-69.5 -45t-66 -27t-76 -16.5q62 -142 163.5 -209t197.5 -27q108 45 155 205l10 -110q-77 -65 -163 -101q-101 -42 -203 -44.5t-186 31t-147 101.5t-89 162
q-34 125 3 259t134 244t232 167q136 53 258.5 43.5t219.5 -81t138 -186.5h-2l2 -12q-23 -8 -84 -35l-133 -77q-77 -52 -170 -138zM381 303l-2 -2q37 2 75 15.5t64.5 26t69.5 45t61.5 48t69.5 58.5q129 106 178 139q-55 181 -171 276t-226 49q-75 -31 -122 -119.5t-54 -203.5
t26 -244q5 -18 17 -50.5t14 -37.5z" />
    <glyph glyph-name="uni1EC6" unicode="&#x1ec6;" horiz-adv-x="1454" 
d="M879 -258l-148 -125l-102 125l145 123zM1397 1815q-134 -11 -188.5 60.5t-49.5 201.5q-40 -128 -117 -199t-215 -63l7 147l4 2q90 -35 196.5 15.5t126.5 144.5h10q-7 -47 15.5 -86t62.5 -59.5t90.5 -27t100.5 12.5l4 -2zM1761 1686h-1134l-148 -828h1137l-4 -14h-1135
l-145 -828h1134l-2 -14h-1382v2l299 1696h248h1136z" />
    <glyph glyph-name="uni1EC7" unicode="&#x1ec7;" horiz-adv-x="989" 
d="M633 -258l-148 -125l-102 125l145 123zM991 1110q-135 -11 -188.5 59.5t-50.5 202.5q-38 -128 -115 -199t-215 -63l6 147l2 3q43 -19 96 -12.5t100 26.5t83.5 59t46.5 86h10q-7 -47 15.5 -86t62 -59t90 -26.5t100.5 12.5l2 -3zM725 483h4q-49 -41 -67.5 -56.5t-61 -47
t-69.5 -45t-66 -27t-76 -16.5q62 -142 163.5 -209t197.5 -27q108 45 155 205l10 -110q-77 -65 -163 -101q-101 -42 -203 -44.5t-186 31t-147 101.5t-89 162q-34 125 3 259t134 244t232 167q136 53 258.5 43.5t219.5 -81t138 -186.5h-2l2 -12q-23 -8 -84 -35l-133 -77
q-77 -52 -170 -138zM381 303l-2 -2q37 2 75 15.5t64.5 26t69.5 45t61.5 48t69.5 58.5q129 106 178 139q-55 181 -171 276t-226 49q-75 -31 -122 -119.5t-54 -203.5t26 -244q5 -18 17 -50.5t14 -37.5z" />
    <glyph glyph-name="uni1EC8" unicode="&#x1ec8;" horiz-adv-x="413" 
d="M424 2132q116 68 203 30q65 -28 76 -96q15 -87 -66 -170q-41 -42 -102 -75l-9 2q96 98 72 166q-16 44 -72 50q-64 7 -114 -44q-8 -8 -15 -17v4zM330 4h-248l299 1698h248z" />
    <glyph glyph-name="uni1EC9" unicode="&#x1ec9;" horiz-adv-x="442" 
d="M365 53l2 -2q40 -49 120 -49h-237q-78 0 -121 49q-42 47 -29 121l158 944q-8 -46 4 -80.5t35.5 -55.5t50.5 -49.5t48.5 -62t29.5 -93t-6 -142.5l-82 -459q-12 -70 27 -121zM291 1473q116 68 204 30q64 -27 76 -96q14 -87 -66 -170q-41 -42 -102 -76l-10 4q95 96 72 164
q-15 44 -68 51q-63 9 -114 -41q-9 -9 -17 -20v4z" />
    <glyph glyph-name="uni1ECA" unicode="&#x1eca;" horiz-adv-x="413" 
d="M283 -258l-148 -125l-100 125l145 123zM330 4h-248l299 1698h248z" />
    <glyph glyph-name="uni1ECB" unicode="&#x1ecb;" horiz-adv-x="442" 
d="M305 -258l-147 -125l-103 125l146 123zM365 53l2 -2q40 -49 120 -49h-237q-78 0 -121 49q-42 47 -29 121l158 944q-8 -46 4 -80.5t35.5 -55.5t50.5 -49.5t48.5 -62t29.5 -93t-6 -142.5l-82 -459q-12 -70 27 -121zM514 1247l-147 -125l-101 125l146 125z" />
    <glyph glyph-name="uni1ECC" unicode="&#x1ecc;" horiz-adv-x="1748" 
d="M954 -258l-147 -125l-102 125l145 123zM1176 1714q175 0 322 -68t241.5 -182.5t134 -273.5t8.5 -334q-31 -174 -127 -332.5t-231 -273t-305.5 -182.5t-344.5 -68t-320.5 67.5t-241 182.5t-134.5 273.5t-10 332.5q31 175 127 334t231 273.5t305.5 182.5t344.5 68zM1165 63
q163 56 283 208t168 361.5t10 424.5q-39 216 -152 371.5t-270 215.5t-321 5q-163 -56 -283 -208t-168 -361.5t-10 -424.5q39 -216 152 -371.5t270 -215.5t321 -5z" />
    <glyph glyph-name="uni1ECD" unicode="&#x1ecd;" horiz-adv-x="1062" 
d="M610 -258l-147 -125l-103 125l146 123zM1114 707q34 -125 -2.5 -259t-133 -244t-230.5 -167q-102 -42 -204 -44.5t-186 31.5t-146.5 102.5t-88.5 162.5q-34 125 2.5 258.5t133 242.5t230.5 166q102 42 204 44.5t186 -30.5t146.5 -101t88.5 -162zM743 45q115 49 159 215
t-9 352q-52 187 -169 285t-230 51q-115 -47 -159 -213.5t9 -353.5q53 -186 170 -284.5t229 -51.5z" />
    <glyph glyph-name="uni1ECE" unicode="&#x1ece;" horiz-adv-x="1748" 
d="M1112 2132q116 68 203 30q65 -28 76 -96q15 -87 -66 -170q-41 -42 -102 -75l-9 2q96 98 72 166q-16 44 -72 50q-64 7 -114 -44q-8 -8 -15 -17v4zM1176 1714q175 0 322 -68t241.5 -182.5t134 -273.5t8.5 -334q-31 -174 -127 -332.5t-231 -273t-305.5 -182.5t-344.5 -68
t-320.5 67.5t-241 182.5t-134.5 273.5t-10 332.5q31 175 127 334t231 273.5t305.5 182.5t344.5 68zM1165 63q163 56 283 208t168 361.5t10 424.5q-39 216 -152 371.5t-270 215.5t-321 5q-163 -56 -283 -208t-168 -361.5t-10 -424.5q39 -216 152 -371.5t270 -215.5t321 -5z
" />
    <glyph glyph-name="uni1ECF" unicode="&#x1ecf;" horiz-adv-x="1062" 
d="M612 1440q116 68 204 30q64 -27 76 -96q15 -87 -65 -170q-41 -42 -102 -76l-10 5q95 96 72 164q-15 44 -70 51q-63 8 -113 -43q-8 -9 -16 -19l-2 4zM1114 707q34 -125 -2.5 -259t-133 -244t-230.5 -167q-102 -42 -204 -44.5t-186 31.5t-146.5 102.5t-88.5 162.5
q-34 125 2.5 258.5t133 242.5t230.5 166q102 42 204 44.5t186 -30.5t146.5 -101t88.5 -162zM743 45q115 49 159 215t-9 352q-52 187 -169 285t-230 51q-115 -47 -159 -213.5t9 -353.5q53 -186 170 -284.5t229 -51.5z" />
    <glyph glyph-name="uni1ED0" unicode="&#x1ed0;" horiz-adv-x="1748" 
d="M1327 2093l2 12q87 9 146 97.5t55 203.5l6 7l166 -37q-5 -57 -28.5 -101.5t-56 -73t-82.5 -50.5t-97 -34.5t-111 -23.5zM1479 1815q-134 -11 -188.5 60.5t-49.5 201.5q-40 -128 -117 -199t-215 -63l6 147l5 2q90 -35 196.5 15.5t126.5 144.5h10q-7 -47 15.5 -86
t62.5 -59.5t90.5 -27t100.5 12.5l4 -2zM1176 1714q175 0 322 -68t241.5 -182.5t134 -273.5t8.5 -334q-31 -174 -127 -332.5t-231 -273t-305.5 -182.5t-344.5 -68t-320.5 67.5t-241 182.5t-134.5 273.5t-10 332.5q31 175 127 334t231 273.5t305.5 182.5t344.5 68zM1165 63
q163 56 283 208t168 361.5t10 424.5q-39 216 -152 371.5t-270 215.5t-321 5q-163 -56 -283 -208t-168 -361.5t-10 -424.5q39 -216 152 -371.5t270 -215.5t321 -5z" />
    <glyph glyph-name="uni1ED1" unicode="&#x1ed1;" horiz-adv-x="1062" 
d="M858 1389l2 12q88 9 147.5 97.5t53.5 203.5l6 6l166 -37q-5 -57 -28 -101t-55.5 -73t-83 -51t-97.5 -34t-111 -23zM1012 1110q-70 -6 -119.5 11.5t-75.5 55t-36.5 85.5t-8.5 110q-19 -61 -44 -106.5t-63.5 -84.5t-95 -57t-129.5 -14l6 147l5 3q90 -35 196.5 15t126.5 144
h10q-7 -47 16 -86t63 -59t90.5 -26.5t99.5 12.5l4 -3zM1114 707q34 -125 -2.5 -259t-133 -244t-230.5 -167q-102 -42 -204 -44.5t-186 31.5t-146.5 102.5t-88.5 162.5q-34 125 2.5 258.5t133 242.5t230.5 166q102 42 204 44.5t186 -30.5t146.5 -101t88.5 -162zM743 45
q115 49 159 215t-9 352q-52 187 -169 285t-230 51q-115 -47 -159 -213.5t9 -353.5q53 -186 170 -284.5t229 -51.5z" />
    <glyph glyph-name="uni1ED2" unicode="&#x1ed2;" horiz-adv-x="1748" 
d="M1548 2105l-2 -12q-37 7 -66 14t-60 17t-54 22t-44.5 27.5t-34.5 36t-20.5 44.5t-6.5 55t10 67l180 37l4 -7q-29 -79 -27.5 -144t34 -108t87.5 -49zM1479 1815q-134 -11 -188.5 60.5t-49.5 201.5q-40 -128 -117 -199t-215 -63l6 147l5 2q90 -35 196.5 15.5t126.5 144.5
h10q-7 -47 15.5 -86t62.5 -59.5t90.5 -27t100.5 12.5l4 -2zM1176 1714q175 0 322 -68t241.5 -182.5t134 -273.5t8.5 -334q-31 -174 -127 -332.5t-231 -273t-305.5 -182.5t-344.5 -68t-320.5 67.5t-241 182.5t-134.5 273.5t-10 332.5q31 175 127 334t231 273.5t305.5 182.5
t344.5 68zM1165 63q163 56 283 208t168 361.5t10 424.5q-39 216 -152 371.5t-270 215.5t-321 5q-163 -56 -283 -208t-168 -361.5t-10 -424.5q39 -216 152 -371.5t270 -215.5t321 -5z" />
    <glyph glyph-name="uni1ED3" unicode="&#x1ed3;" horiz-adv-x="1062" 
d="M1079 1401l-2 -12q-37 7 -66 14t-60 16.5t-54 21.5t-44.5 28t-34.5 36t-20.5 44.5t-6.5 55t10 66.5l180 37l6 -6q-30 -79 -28.5 -144t34 -108t86.5 -49zM1012 1110q-70 -6 -119.5 11.5t-75.5 55t-36.5 85.5t-8.5 110q-19 -61 -44 -106.5t-63.5 -84.5t-95 -57t-129.5 -14
l6 147l5 3q90 -35 196.5 15t126.5 144h10q-7 -47 16 -86t63 -59t90.5 -26.5t99.5 12.5l4 -3zM1114 707q34 -125 -2.5 -259t-133 -244t-230.5 -167q-102 -42 -204 -44.5t-186 31.5t-146.5 102.5t-88.5 162.5q-34 125 2.5 258.5t133 242.5t230.5 166q102 42 204 44.5
t186 -30.5t146.5 -101t88.5 -162zM743 45q115 49 159 215t-9 352q-52 187 -169 285t-230 51q-115 -47 -159 -213.5t9 -353.5q53 -186 170 -284.5t229 -51.5z" />
    <glyph glyph-name="uni1ED4" unicode="&#x1ed4;" horiz-adv-x="1748" 
d="M1331 2376q116 67 204 30q65 -28 76 -97q15 -87 -66 -170q-40 -42 -101 -75l-10 4q95 96 72 164q-15 44 -68 51q-63 9 -114 -41q-9 -9 -17 -20v4zM1479 1815q-134 -11 -188.5 60.5t-49.5 201.5q-40 -128 -117 -199t-215 -63l6 147l5 2q90 -35 196.5 15.5t126.5 144.5h10
q-7 -47 15.5 -86t62.5 -59.5t90.5 -27t100.5 12.5l4 -2zM1176 1714q175 0 322 -68t241.5 -182.5t134 -273.5t8.5 -334q-31 -174 -127 -332.5t-231 -273t-305.5 -182.5t-344.5 -68t-320.5 67.5t-241 182.5t-134.5 273.5t-10 332.5q31 175 127 334t231 273.5t305.5 182.5
t344.5 68zM1165 63q163 56 283 208t168 361.5t10 424.5q-39 216 -152 371.5t-270 215.5t-321 5q-163 -56 -283 -208t-168 -361.5t-10 -424.5q39 -216 152 -371.5t270 -215.5t321 -5z" />
    <glyph glyph-name="uni1ED5" unicode="&#x1ed5;" horiz-adv-x="1062" 
d="M864 1671q116 68 204 30q64 -28 75 -97q14 -87 -68 -170q-40 -41 -100 -74l-10 4q96 96 73 164q-15 44 -69 52q-63 8 -112 -42q-9 -9 -17 -20l-2 4zM1012 1110q-70 -6 -119.5 11.5t-75.5 55t-36.5 85.5t-8.5 110q-19 -61 -44 -106.5t-63.5 -84.5t-95 -57t-129.5 -14
l6 147l5 3q90 -35 196.5 15t126.5 144h10q-7 -47 16 -86t63 -59t90.5 -26.5t99.5 12.5l4 -3zM1114 707q34 -125 -2.5 -259t-133 -244t-230.5 -167q-102 -42 -204 -44.5t-186 31.5t-146.5 102.5t-88.5 162.5q-34 125 2.5 258.5t133 242.5t230.5 166q102 42 204 44.5
t186 -30.5t146.5 -101t88.5 -162zM743 45q115 49 159 215t-9 352q-52 187 -169 285t-230 51q-115 -47 -159 -213.5t9 -353.5q53 -186 170 -284.5t229 -51.5z" />
    <glyph glyph-name="uni1ED6" unicode="&#x1ed6;" horiz-adv-x="1748" 
d="M971 2286q58 46 115.5 52t101 -15t92.5 -64q52 -20 126 6.5t142 91.5l6 -2l43 -143q-60 -46 -116.5 -52.5t-99.5 14t-93 64.5q-50 22 -125.5 -5t-142.5 -91h-4zM1479 1815q-134 -11 -188.5 60.5t-49.5 201.5q-40 -128 -117 -199t-215 -63l6 147l5 2q90 -35 196.5 15.5
t126.5 144.5h10q-7 -47 15.5 -86t62.5 -59.5t90.5 -27t100.5 12.5l4 -2zM1176 1714q175 0 322 -68t241.5 -182.5t134 -273.5t8.5 -334q-31 -174 -127 -332.5t-231 -273t-305.5 -182.5t-344.5 -68t-320.5 67.5t-241 182.5t-134.5 273.5t-10 332.5q31 175 127 334t231 273.5
t305.5 182.5t344.5 68zM1165 63q163 56 283 208t168 361.5t10 424.5q-39 216 -152 371.5t-270 215.5t-321 5q-163 -56 -283 -208t-168 -361.5t-10 -424.5q39 -216 152 -371.5t270 -215.5t321 -5z" />
    <glyph glyph-name="uni1ED7" unicode="&#x1ed7;" horiz-adv-x="1062" 
d="M504 1581q58 46 115 52t100 -14.5t92 -64.5q53 -20 126 6.5t142 92.5l6 -2l43 -144q-60 -46 -116.5 -52.5t-99 14.5t-91.5 65q-51 22 -126 -5t-142 -91h-6zM1012 1110q-70 -6 -119.5 11.5t-75.5 55t-36.5 85.5t-8.5 110q-19 -61 -44 -106.5t-63.5 -84.5t-95 -57
t-129.5 -14l6 147l5 3q90 -35 196.5 15t126.5 144h10q-7 -47 16 -86t63 -59t90.5 -26.5t99.5 12.5l4 -3zM1114 707q34 -125 -2.5 -259t-133 -244t-230.5 -167q-102 -42 -204 -44.5t-186 31.5t-146.5 102.5t-88.5 162.5q-34 125 2.5 258.5t133 242.5t230.5 166
q102 42 204 44.5t186 -30.5t146.5 -101t88.5 -162zM743 45q115 49 159 215t-9 352q-52 187 -169 285t-230 51q-115 -47 -159 -213.5t9 -353.5q53 -186 170 -284.5t229 -51.5z" />
    <glyph glyph-name="uni1ED8" unicode="&#x1ed8;" horiz-adv-x="1748" 
d="M954 -258l-147 -125l-102 125l145 123zM1479 1815q-134 -11 -188.5 60.5t-49.5 201.5q-40 -128 -117 -199t-215 -63l6 147l5 2q90 -35 196.5 15.5t126.5 144.5h10q-7 -47 15.5 -86t62.5 -59.5t90.5 -27t100.5 12.5l4 -2zM1176 1714q175 0 322 -68t241.5 -182.5
t134 -273.5t8.5 -334q-31 -174 -127 -332.5t-231 -273t-305.5 -182.5t-344.5 -68t-320.5 67.5t-241 182.5t-134.5 273.5t-10 332.5q31 175 127 334t231 273.5t305.5 182.5t344.5 68zM1165 63q163 56 283 208t168 361.5t10 424.5q-39 216 -152 371.5t-270 215.5t-321 5
q-163 -56 -283 -208t-168 -361.5t-10 -424.5q39 -216 152 -371.5t270 -215.5t321 -5z" />
    <glyph glyph-name="uni1ED9" unicode="&#x1ed9;" horiz-adv-x="1062" 
d="M610 -258l-147 -125l-103 125l146 123zM1012 1110q-70 -6 -119.5 11.5t-75.5 55t-36.5 85.5t-8.5 110q-19 -61 -44 -106.5t-63.5 -84.5t-95 -57t-129.5 -14l6 147l5 3q90 -35 196.5 15t126.5 144h10q-7 -47 16 -86t63 -59t90.5 -26.5t99.5 12.5l4 -3zM1114 707
q34 -125 -2.5 -259t-133 -244t-230.5 -167q-102 -42 -204 -44.5t-186 31.5t-146.5 102.5t-88.5 162.5q-34 125 2.5 258.5t133 242.5t230.5 166q102 42 204 44.5t186 -30.5t146.5 -101t88.5 -162zM743 45q115 49 159 215t-9 352q-52 187 -169 285t-230 51
q-115 -47 -159 -213.5t9 -353.5q53 -186 170 -284.5t229 -51.5z" />
    <glyph glyph-name="uni1EDA" unicode="&#x1eda;" horiz-adv-x="1748" 
d="M1069 1831l4 12q87 9 147 97.5t54 203.5l6 6l166 -36q-5 -57 -28 -101.5t-55.5 -73t-83 -50.5t-98 -34.5t-112.5 -23.5zM1176 1714q156 0 289 -54.5t233 -152.5q57 36 82.5 98t15.5 125t-49 107l4 2l170 41q22 -50 22 -95t-16 -82t-51 -73.5t-76 -66t-98 -62.5
q117 -120 165 -287t15 -358q-31 -174 -127 -332.5t-231 -273t-305.5 -182.5t-344.5 -68t-320.5 67.5t-241 182.5t-134.5 273.5t-10 332.5q31 175 127 334t231 273.5t305.5 182.5t344.5 68zM1165 63q163 56 283 208t168 361.5t10 424.5q-39 216 -152 371.5t-270 215.5t-321 5
q-163 -56 -283 -208t-168 -361.5t-10 -424.5q39 -216 152 -371.5t270 -215.5t321 -5z" />
    <glyph glyph-name="uni1EDB" unicode="&#x1edb;" horiz-adv-x="1062" 
d="M635 1126l2 13q87 9 147 97.5t54 203.5l6 6l168 -37q-5 -57 -28.5 -101.5t-56.5 -73t-83 -50.5t-97.5 -34.5t-111.5 -23.5zM1114 707q34 -125 -2.5 -259t-133 -244t-230.5 -167q-102 -42 -204 -44.5t-186 31.5t-146.5 102.5t-88.5 162.5q-34 125 2.5 258.5t133 242.5
t230.5 166q174 71 333 31t243 -172q62 60 64 152t-50 149l4 2l168 41q21 -46 23 -88.5t-10.5 -78t-41.5 -69.5t-64.5 -62t-84.5 -58q25 -41 41 -96zM743 45q115 49 159 215t-9 352q-52 187 -169 285t-230 51q-115 -47 -159 -213.5t9 -353.5q53 -186 170 -284.5t229 -51.5z
" />
    <glyph glyph-name="uni1EDC" unicode="&#x1edc;" horiz-adv-x="1748" 
d="M1343 1843l-4 -12q-36 7 -65 14t-60 17t-53.5 22t-44 27.5t-34.5 36t-20.5 44.5t-6.5 55t10 67l180 36l4 -6q-29 -79 -27.5 -144t34 -108t87.5 -49zM1176 1714q156 0 289 -54.5t233 -152.5q57 36 82.5 98t15.5 125t-49 107l4 2l170 41q22 -50 22 -95t-16 -82t-51 -73.5
t-76 -66t-98 -62.5q117 -120 165 -287t15 -358q-31 -174 -127 -332.5t-231 -273t-305.5 -182.5t-344.5 -68t-320.5 67.5t-241 182.5t-134.5 273.5t-10 332.5q31 175 127 334t231 273.5t305.5 182.5t344.5 68zM1165 63q163 56 283 208t168 361.5t10 424.5q-39 216 -152 371.5
t-270 215.5t-321 5q-163 -56 -283 -208t-168 -361.5t-10 -424.5q39 -216 152 -371.5t270 -215.5t321 -5z" />
    <glyph glyph-name="uni1EDD" unicode="&#x1edd;" horiz-adv-x="1062" 
d="M864 1139v-13q-37 7 -66 14t-60 17t-54 22t-44.5 27.5t-34.5 36t-21 44.5t-7.5 55t9.5 67l180 37l4 -6q-29 -79 -27.5 -144t34 -108t87.5 -49zM1114 707q34 -125 -2.5 -259t-133 -244t-230.5 -167q-102 -42 -204 -44.5t-186 31.5t-146.5 102.5t-88.5 162.5
q-34 125 2.5 258.5t133 242.5t230.5 166q174 71 333 31t243 -172q62 60 64 152t-50 149l4 2l168 41q21 -46 23 -88.5t-10.5 -78t-41.5 -69.5t-64.5 -62t-84.5 -58q25 -41 41 -96zM743 45q115 49 159 215t-9 352q-52 187 -169 285t-230 51q-115 -47 -159 -213.5t9 -353.5
q53 -186 170 -284.5t229 -51.5z" />
    <glyph glyph-name="uni1EDE" unicode="&#x1ede;" horiz-adv-x="1748" 
d="M1112 2132q116 68 203 30q65 -28 76 -96q15 -87 -66 -170q-41 -42 -102 -75l-9 2q96 98 72 166q-16 44 -72 50q-64 7 -114 -44q-8 -8 -15 -17v4zM1176 1714q156 0 289 -54.5t233 -152.5q57 36 82.5 98t15.5 125t-49 107l4 2l170 41q22 -50 22 -95t-16 -82t-51 -73.5
t-76 -66t-98 -62.5q117 -120 165 -287t15 -358q-31 -174 -127 -332.5t-231 -273t-305.5 -182.5t-344.5 -68t-320.5 67.5t-241 182.5t-134.5 273.5t-10 332.5q31 175 127 334t231 273.5t305.5 182.5t344.5 68zM1165 63q163 56 283 208t168 361.5t10 424.5q-39 216 -152 371.5
t-270 215.5t-321 5q-163 -56 -283 -208t-168 -361.5t-10 -424.5q39 -216 152 -371.5t270 -215.5t321 -5z" />
    <glyph glyph-name="uni1EDF" unicode="&#x1edf;" horiz-adv-x="1062" 
d="M612 1440q116 68 204 30q64 -27 76 -96q15 -87 -65 -170q-41 -42 -102 -76l-10 5q95 96 72 164q-15 44 -70 51q-63 8 -113 -43q-8 -9 -16 -19l-2 4zM1114 707q34 -125 -2.5 -259t-133 -244t-230.5 -167q-102 -42 -204 -44.5t-186 31.5t-146.5 102.5t-88.5 162.5
q-34 125 2.5 258.5t133 242.5t230.5 166q174 71 333 31t243 -172q62 60 64 152t-50 149l4 2l168 41q21 -46 23 -88.5t-10.5 -78t-41.5 -69.5t-64.5 -62t-84.5 -58q25 -41 41 -96zM743 45q115 49 159 215t-9 352q-52 187 -169 285t-230 51q-115 -47 -159 -213.5t9 -353.5
q53 -186 170 -284.5t229 -51.5z" />
    <glyph glyph-name="uni1EE0" unicode="&#x1ee0;" horiz-adv-x="1748" 
d="M903 1970q58 46 115 52t100 -14.5t92 -63.5q53 -22 127.5 5t141.5 93l8 -2l41 -144q-59 -47 -115.5 -54t-100 14t-93.5 65q-50 23 -125 -3.5t-142 -92.5l-6 2zM1176 1714q156 0 289 -54.5t233 -152.5q57 36 82.5 98t15.5 125t-49 107l4 2l170 41q22 -50 22 -95t-16 -82
t-51 -73.5t-76 -66t-98 -62.5q117 -120 165 -287t15 -358q-31 -174 -127 -332.5t-231 -273t-305.5 -182.5t-344.5 -68t-320.5 67.5t-241 182.5t-134.5 273.5t-10 332.5q31 175 127 334t231 273.5t305.5 182.5t344.5 68zM1165 63q163 56 283 208t168 361.5t10 424.5
q-39 216 -152 371.5t-270 215.5t-321 5q-163 -56 -283 -208t-168 -361.5t-10 -424.5q39 -216 152 -371.5t270 -215.5t321 -5z" />
    <glyph glyph-name="uni1EE1" unicode="&#x1ee1;" horiz-adv-x="1062" 
d="M432 1249q57 46 114 52t100.5 -14.5t92.5 -63.5q51 -22 126 5t145 93l4 -2l43 -143q-59 -47 -115.5 -54t-99.5 13.5t-92 64.5q-51 23 -126.5 -3.5t-144.5 -92.5l-2 2zM1114 707q34 -125 -2.5 -259t-133 -244t-230.5 -167q-102 -42 -204 -44.5t-186 31.5t-146.5 102.5
t-88.5 162.5q-34 125 2.5 258.5t133 242.5t230.5 166q174 71 333 31t243 -172q62 60 64 152t-50 149l4 2l168 41q21 -46 23 -88.5t-10.5 -78t-41.5 -69.5t-64.5 -62t-84.5 -58q25 -41 41 -96zM743 45q115 49 159 215t-9 352q-52 187 -169 285t-230 51q-115 -47 -159 -213.5
t9 -353.5q53 -186 170 -284.5t229 -51.5z" />
    <glyph glyph-name="uni1EE2" unicode="&#x1ee2;" horiz-adv-x="1748" 
d="M954 -258l-147 -125l-102 125l145 123zM1176 1714q156 0 289 -54.5t233 -152.5q57 36 82.5 98t15.5 125t-49 107l4 2l170 41q22 -50 22 -95t-16 -82t-51 -73.5t-76 -66t-98 -62.5q117 -120 165 -287t15 -358q-31 -174 -127 -332.5t-231 -273t-305.5 -182.5t-344.5 -68
t-320.5 67.5t-241 182.5t-134.5 273.5t-10 332.5q31 175 127 334t231 273.5t305.5 182.5t344.5 68zM1165 63q163 56 283 208t168 361.5t10 424.5q-39 216 -152 371.5t-270 215.5t-321 5q-163 -56 -283 -208t-168 -361.5t-10 -424.5q39 -216 152 -371.5t270 -215.5t321 -5z
" />
    <glyph glyph-name="uni1EE3" unicode="&#x1ee3;" horiz-adv-x="1062" 
d="M610 -258l-147 -125l-103 125l146 123zM1114 707q34 -125 -2.5 -259t-133 -244t-230.5 -167q-102 -42 -204 -44.5t-186 31.5t-146.5 102.5t-88.5 162.5q-34 125 2.5 258.5t133 242.5t230.5 166q174 71 333 31t243 -172q62 60 64 152t-50 149l4 2l168 41q21 -46 23 -88.5
t-10.5 -78t-41.5 -69.5t-64.5 -62t-84.5 -58q25 -41 41 -96zM743 45q115 49 159 215t-9 352q-52 187 -169 285t-230 51q-115 -47 -159 -213.5t9 -353.5q53 -186 170 -284.5t229 -51.5z" />
    <glyph glyph-name="uni1EE4" unicode="&#x1ee4;" horiz-adv-x="1732" 
d="M944 -258l-147 -125l-103 125l146 123zM1825 823q-2 -10 -6 -27t-18.5 -62t-33 -90.5t-50.5 -107.5t-70 -118q-51 -76 -116.5 -141.5t-159 -129t-222 -104t-277.5 -47.5h-22q-118 6 -216 34.5t-163.5 69.5t-117 97t-80.5 109t-48 112q-62 188 -32 395v2l2 10l157 887h254
l-160 -905q-35 -195 18 -399t165 -304q72 -49 141 -72t102 -22l33 2q140 9 261 49t209.5 101.5t150.5 124t112 135.5q60 87 102.5 185.5t55 146.5t12.5 57v2v2l160 895h14z" />
    <glyph glyph-name="uni1EE5" unicode="&#x1ee5;" horiz-adv-x="1159" 
d="M698 -258l-147 -125l-102 125l145 123zM1094 49l2 -2q40 -49 118 -49h-235q-78 0 -121 49q-28 36 -31 80q-123 -72 -234.5 -102.5t-196 -18.5t-146 55.5t-93 118.5t-30.5 172q1 27 9.5 87.5t17.5 107.5l8 47l88 532q-7 -40 1.5 -71t26.5 -50.5t40.5 -42.5t44 -46
t37.5 -60.5t20 -87t-8 -125.5l-4 -16q-28 -115 -34 -204.5t5.5 -146.5t39.5 -97.5t60.5 -60.5t77.5 -34q103 -30 266 55q1 5 2 15t2 14l160 958q-7 -40 1.5 -71t26.5 -50.5t40.5 -42.5t44 -46t37.5 -60.5t20 -87t-8 -125.5l-84 -473q-13 -74 29 -121z" />
    <glyph glyph-name="uni1EE6" unicode="&#x1ee6;" horiz-adv-x="1732" 
d="M1145 2132q116 68 203 30q64 -28 76 -96q14 -87 -67 -170q-41 -42 -102 -75l-8 2q96 98 72 166q-16 44 -72 50q-64 7 -114 -44q-8 -8 -15 -17v4zM1825 823q-2 -10 -6 -27t-18.5 -62t-33 -90.5t-50.5 -107.5t-70 -118q-51 -76 -116.5 -141.5t-159 -129t-222 -104
t-277.5 -47.5h-22q-118 6 -216 34.5t-163.5 69.5t-117 97t-80.5 109t-48 112q-62 188 -32 395v2l2 10l157 887h254l-160 -905q-35 -195 18 -399t165 -304q72 -49 141 -72t102 -22l33 2q140 9 261 49t209.5 101.5t150.5 124t112 135.5q60 87 102.5 185.5t55 146.5t12.5 57v2
v2l160 895h14z" />
    <glyph glyph-name="uni1EE7" unicode="&#x1ee7;" horiz-adv-x="1159" 
d="M645 1440q116 68 204 30q64 -27 76 -96q15 -87 -65 -170q-41 -42 -102 -76l-10 5q95 96 72 164q-15 44 -70 51q-63 8 -113 -43q-8 -9 -16 -19l-3 4zM1094 49l2 -2q40 -49 118 -49h-235q-78 0 -121 49q-28 36 -31 80q-123 -72 -234.5 -102.5t-196 -18.5t-146 55.5
t-93 118.5t-30.5 172q1 27 9.5 87.5t17.5 107.5l8 47l88 532q-7 -40 1.5 -71t26.5 -50.5t40.5 -42.5t44 -46t37.5 -60.5t20 -87t-8 -125.5l-4 -16q-28 -115 -34 -204.5t5.5 -146.5t39.5 -97.5t60.5 -60.5t77.5 -34q103 -30 266 55q1 5 2 15t2 14l160 958q-7 -40 1.5 -71
t26.5 -50.5t40.5 -42.5t44 -46t37.5 -60.5t20 -87t-8 -125.5l-84 -473q-13 -74 29 -121z" />
    <glyph glyph-name="uni1EE8" unicode="&#x1ee8;" horiz-adv-x="1732" 
d="M1102 1831l4 12q87 9 147 97.5t54 203.5l6 6l166 -36q-5 -57 -28 -101.5t-55.5 -73t-83 -50.5t-98 -34.5t-112.5 -23.5zM1825 823q-2 -10 -6 -27t-18.5 -62t-33 -90.5t-50.5 -107.5t-70 -118q-51 -76 -116.5 -141.5t-159 -129t-222 -104t-277.5 -47.5h-22
q-118 6 -216 34.5t-163.5 69.5t-117 97t-80.5 109t-48 112q-62 188 -32 395v2l159 897h254l-160 -905q-35 -195 18 -399t165 -304q72 -49 141 -72t102 -22l33 2q140 9 261 49t209.5 101.5t150.5 124t112 135.5q60 87 102.5 185.5t55 146.5t12.5 57l160 899h14l-36 -211
q63 34 92 97.5t20 129t-49 111.5l4 2l170 41q23 -52 22.5 -99.5t-18.5 -85t-56.5 -75.5t-82 -68t-104.5 -65z" />
    <glyph glyph-name="uni1EE9" unicode="&#x1ee9;" horiz-adv-x="1159" 
d="M586 1126l2 13q87 9 146.5 97.5t53.5 203.5l7 6l168 -37q-5 -57 -28.5 -101.5t-56.5 -73t-83 -50.5t-97.5 -34.5t-111.5 -23.5zM1094 49l2 -2q34 -46 106 -49h-223q-78 0 -121 49q-28 36 -31 80q-123 -72 -234.5 -102.5t-196 -18.5t-146 55.5t-93 118.5t-30.5 172
q1 27 9.5 87.5t17.5 107.5l8 47l88 532q-7 -40 1.5 -71t26.5 -50.5t40.5 -42.5t44 -46t37.5 -60.5t20 -87t-8 -125.5l-4 -16q-28 -115 -34 -204.5t5.5 -146.5t39.5 -97.5t60.5 -60.5t77.5 -34q103 -30 266 55q1 5 2 15t2 14l160 958q-8 -44 3 -77t33.5 -56.5t47.5 -46
t48 -59t32 -82.5q46 39 65 97.5t8.5 116t-46.5 97.5l4 2l168 41q21 -48 22.5 -92t-13 -80t-46 -71.5t-69.5 -64.5t-91 -60q10 -64 -4 -148l-84 -473q-13 -74 29 -121z" />
    <glyph glyph-name="uni1EEA" unicode="&#x1eea;" horiz-adv-x="1732" 
d="M1409 1843l-4 -12q-36 7 -65 14t-60 17t-54 22t-44.5 27.5t-34.5 36t-20.5 44.5t-6.5 55t10 67l181 36l4 -6q-29 -79 -27.5 -144t34 -108t87.5 -49zM1825 823q-2 -10 -6 -27t-18.5 -62t-33 -90.5t-50.5 -107.5t-70 -118q-51 -76 -116.5 -141.5t-159 -129t-222 -104
t-277.5 -47.5h-22q-118 6 -216 34.5t-163.5 69.5t-117 97t-80.5 109t-48 112q-62 188 -32 395v2l159 897h254l-160 -905q-35 -195 18 -399t165 -304q72 -49 141 -72t102 -22l33 2q140 9 261 49t209.5 101.5t150.5 124t112 135.5q60 87 102.5 185.5t55 146.5t12.5 57l160 899
h14l-36 -211q63 34 92 97.5t20 129t-49 111.5l4 2l170 41q23 -52 22.5 -99.5t-18.5 -85t-56.5 -75.5t-82 -68t-104.5 -65z" />
    <glyph glyph-name="uni1EEB" unicode="&#x1eeb;" horiz-adv-x="1159" 
d="M848 1139v-13q-37 7 -66 14t-60 17t-54.5 22t-45 27.5t-34.5 36t-21 44.5t-7.5 55t9.5 67l181 37l4 -6q-29 -79 -27.5 -144t34 -108t87.5 -49zM1094 49l2 -2q34 -46 106 -49h-223q-78 0 -121 49q-28 36 -31 80q-123 -72 -234.5 -102.5t-196 -18.5t-146 55.5t-93 118.5
t-30.5 172q1 27 9.5 87.5t17.5 107.5l8 47l88 532q-7 -40 1.5 -71t26.5 -50.5t40.5 -42.5t44 -46t37.5 -60.5t20 -87t-8 -125.5l-4 -16q-28 -115 -34 -204.5t5.5 -146.5t39.5 -97.5t60.5 -60.5t77.5 -34q103 -30 266 55q1 5 2 15t2 14l160 958q-8 -44 3 -77t33.5 -56.5
t47.5 -46t48 -59t32 -82.5q46 39 65 97.5t8.5 116t-46.5 97.5l4 2l168 41q21 -48 22.5 -92t-13 -80t-46 -71.5t-69.5 -64.5t-91 -60q10 -64 -4 -148l-84 -473q-13 -74 29 -121z" />
    <glyph glyph-name="uni1EEC" unicode="&#x1eec;" horiz-adv-x="1732" 
d="M1145 2132q116 68 203 30q64 -28 76 -96q14 -87 -67 -170q-41 -42 -102 -75l-8 2q96 98 72 166q-16 44 -72 50q-64 7 -114 -44q-8 -8 -15 -17v4zM1825 823q-2 -10 -6 -27t-18.5 -62t-33 -90.5t-50.5 -107.5t-70 -118q-51 -76 -116.5 -141.5t-159 -129t-222 -104
t-277.5 -47.5h-22q-118 6 -216 34.5t-163.5 69.5t-117 97t-80.5 109t-48 112q-62 188 -32 395v2l159 897h254l-160 -905q-35 -195 18 -399t165 -304q72 -49 141 -72t102 -22l33 2q140 9 261 49t209.5 101.5t150.5 124t112 135.5q60 87 102.5 185.5t55 146.5t12.5 57l160 899
h14l-36 -211q63 34 92 97.5t20 129t-49 111.5l4 2l170 41q23 -52 22.5 -99.5t-18.5 -85t-56.5 -75.5t-82 -68t-104.5 -65z" />
    <glyph glyph-name="uni1EED" unicode="&#x1eed;" horiz-adv-x="1159" 
d="M645 1440q116 68 204 30q64 -27 76 -96q15 -87 -65 -170q-41 -42 -102 -76l-10 5q95 96 72 164q-15 44 -70 51q-63 8 -113 -43q-8 -9 -16 -19l-3 4zM1094 49l2 -2q34 -46 106 -49h-223q-78 0 -121 49q-28 36 -31 80q-123 -72 -234.5 -102.5t-196 -18.5t-146 55.5
t-93 118.5t-30.5 172q1 27 9.5 87.5t17.5 107.5l8 47l88 532q-7 -40 1.5 -71t26.5 -50.5t40.5 -42.5t44 -46t37.5 -60.5t20 -87t-8 -125.5l-4 -16q-28 -115 -34 -204.5t5.5 -146.5t39.5 -97.5t60.5 -60.5t77.5 -34q103 -30 266 55q1 5 2 15t2 14l160 958q-8 -44 3 -77
t33.5 -56.5t47.5 -46t48 -59t32 -82.5q46 39 65 97.5t8.5 116t-46.5 97.5l4 2l168 41q21 -48 22.5 -92t-13 -80t-46 -71.5t-69.5 -64.5t-91 -60q10 -64 -4 -148l-84 -473q-13 -74 29 -121z" />
    <glyph glyph-name="uni1EEE" unicode="&#x1eee;" horiz-adv-x="1732" 
d="M952 1970q44 35 86.5 47.5t81.5 3.5t71.5 -27.5t68.5 -49.5q53 -22 127 5t141 93l8 -2l41 -144q-59 -47 -115.5 -54t-100 14t-93.5 65q-50 23 -125 -3.5t-142 -92.5l-6 2zM1825 823q-2 -10 -6 -27t-18.5 -62t-33 -90.5t-50.5 -107.5t-70 -118q-51 -76 -116.5 -141.5
t-159 -129t-222 -104t-277.5 -47.5h-22q-118 6 -216 34.5t-163.5 69.5t-117 97t-80.5 109t-48 112q-62 188 -32 395v2l159 897h254l-160 -905q-35 -195 18 -399t165 -304q72 -49 141 -72t102 -22l33 2q140 9 261 49t209.5 101.5t150.5 124t112 135.5q60 87 102.5 185.5
t55 146.5t12.5 57l160 899h14l-36 -211q63 34 92 97.5t20 129t-49 111.5l4 2l170 41q23 -52 22.5 -99.5t-18.5 -85t-56.5 -75.5t-82 -68t-104.5 -65z" />
    <glyph glyph-name="uni1EEF" unicode="&#x1eef;" horiz-adv-x="1159" 
d="M389 1282q58 46 115 51.5t99.5 -15t92.5 -63.5q52 -22 126 5.5t143 93.5l6 -2l41 -144q-59 -47 -115 -54t-99 14t-93 65q-51 23 -125.5 -3.5t-141.5 -92.5l-6 2zM1094 49l2 -2q34 -46 106 -49h-223q-78 0 -121 49q-28 36 -31 80q-123 -72 -234.5 -102.5t-196 -18.5
t-146 55.5t-93 118.5t-30.5 172q1 27 9.5 87.5t17.5 107.5l8 47l88 532q-7 -40 1.5 -71t26.5 -50.5t40.5 -42.5t44 -46t37.5 -60.5t20 -87t-8 -125.5l-4 -16q-28 -115 -34 -204.5t5.5 -146.5t39.5 -97.5t60.5 -60.5t77.5 -34q103 -30 266 55q1 5 2 15t2 14l160 958
q-8 -44 3 -77t33.5 -56.5t47.5 -46t48 -59t32 -82.5q46 39 65 97.5t8.5 116t-46.5 97.5l4 2l168 41q21 -48 22.5 -92t-13 -80t-46 -71.5t-69.5 -64.5t-91 -60q10 -64 -4 -148l-84 -473q-13 -74 29 -121z" />
    <glyph glyph-name="uni1EF0" unicode="&#x1ef0;" horiz-adv-x="1732" 
d="M944 -258l-147 -125l-103 125l146 123zM1825 823q-2 -10 -6 -27t-18.5 -62t-33 -90.5t-50.5 -107.5t-70 -118q-51 -76 -116.5 -141.5t-159 -129t-222 -104t-277.5 -47.5h-22q-118 6 -216 34.5t-163.5 69.5t-117 97t-80.5 109t-48 112q-62 188 -32 395v2l159 897h254
l-160 -905q-35 -195 18 -399t165 -304q72 -49 141 -72t102 -22l33 2q140 9 261 49t209.5 101.5t150.5 124t112 135.5q60 87 102.5 185.5t55 146.5t12.5 57l160 899h14l-36 -211q63 34 92 97.5t20 129t-49 111.5l4 2l170 41q23 -52 22.5 -99.5t-18.5 -85t-56.5 -75.5t-82 -68
t-104.5 -65z" />
    <glyph glyph-name="uni1EF1" unicode="&#x1ef1;" horiz-adv-x="1159" 
d="M698 -258l-147 -125l-102 125l145 123zM1094 49l2 -2q34 -46 106 -49h-223q-78 0 -121 49q-28 36 -31 80q-123 -72 -234.5 -102.5t-196 -18.5t-146 55.5t-93 118.5t-30.5 172q1 27 9.5 87.5t17.5 107.5l8 47l88 532q-7 -40 1.5 -71t26.5 -50.5t40.5 -42.5t44 -46
t37.5 -60.5t20 -87t-8 -125.5l-4 -16q-28 -115 -34 -204.5t5.5 -146.5t39.5 -97.5t60.5 -60.5t77.5 -34q103 -30 266 55q1 5 2 15t2 14l160 958q-8 -44 3 -77t33.5 -56.5t47.5 -46t48 -59t32 -82.5q46 39 65 97.5t8.5 116t-46.5 97.5l4 2l168 41q21 -48 22.5 -92t-13 -80
t-46 -71.5t-69.5 -64.5t-91 -60q10 -64 -4 -148l-84 -473q-13 -74 29 -121z" />
    <glyph glyph-name="Ygrave" unicode="&#x1ef2;" horiz-adv-x="1830" 
d="M1423 1843l-2 -12q-37 7 -66 14t-60 17t-54 22t-44.5 27.5t-34.5 36t-20.5 44.5t-6.5 55t10 67l180 36l4 -6q-29 -79 -27.5 -144t34 -108t87.5 -49zM2159 1698l-936 -1446l116 -254h-284l-488 -754l-12 6l489 756l-782 1690h291l661 -1430l932 1438z" />
    <glyph glyph-name="ygrave" unicode="&#x1ef3;" horiz-adv-x="1073" 
d="M881 1139v-13q-37 7 -66 14t-60 17t-54.5 22t-45 27.5t-34.5 36t-21 44.5t-7.5 55t9.5 67l180 37l4 -6q-29 -79 -27 -144t34.5 -108t87.5 -49zM1247 1016l10 -12l-657 -955q-126 -224 -238 -362t-208 -189.5t-177.5 -37t-156.5 90.5q-37 63 -20 125t67 118t131.5 102.5
t172 79t188.5 47.5t182 8q-22 46 -52.5 96t-60 92t-62 89t-60.5 93t-54 97t-44 107t-28.5 118t-9 135.5t15.5 153.5h13h233q-25 -106 -16 -200t33.5 -160t65 -129t77.5 -107t71 -93.5t46 -89.5zM111 -426l-5 -2q44 -7 90 11.5t85.5 51.5t89 96t87.5 120t95 147l-2 2l2 4
q-2 4 -6 12.5t-6 12.5q-156 4 -298.5 -40t-222 -118.5t-63.5 -153.5q10 -58 51.5 -96t102.5 -47z" />
    <glyph glyph-name="uni1EF4" unicode="&#x1ef4;" horiz-adv-x="1830" 
d="M1305 -258l-148 -125l-102 125l145 123zM2159 1698l-936 -1446l116 -254h-284l-488 -754l-12 6l489 756l-782 1690h291l661 -1430l932 1438z" />
    <glyph glyph-name="uni1EF5" unicode="&#x1ef5;" horiz-adv-x="1073" 
d="M780 -258l-147 -125l-103 125l146 123zM1247 1016l10 -12l-657 -955q-126 -224 -238 -362t-208 -189.5t-177.5 -37t-156.5 90.5q-37 63 -20 125t67 118t131.5 102.5t172 79t188.5 47.5t182 8q-22 46 -52.5 96t-60 92t-62 89t-60.5 93t-54 97t-44 107t-28.5 118t-9 135.5
t15.5 153.5h13h233q-25 -106 -16 -200t33.5 -160t65 -129t77.5 -107t71 -93.5t46 -89.5zM111 -426l-5 -2q44 -7 90 11.5t85.5 51.5t89 96t87.5 120t95 147l-2 2l2 4q-2 4 -6 12.5t-6 12.5q-156 4 -298.5 -40t-222 -118.5t-63.5 -153.5q10 -58 51.5 -96t102.5 -47z" />
    <glyph glyph-name="uni1EF6" unicode="&#x1ef6;" horiz-adv-x="1830" 
d="M1210 2132q116 68 203 30q65 -28 76 -96q15 -87 -66 -170q-41 -42 -102 -75l-8 2q96 98 72 166q-16 44 -72 50q-64 7 -114 -44q-8 -8 -15 -17v4zM2159 1698l-936 -1446l116 -254h-284l-488 -754l-12 6l489 756l-782 1690h291l661 -1430l932 1438z" />
    <glyph glyph-name="uni1EF7" unicode="&#x1ef7;" horiz-adv-x="1073" 
d="M645 1440q116 68 204 30q64 -27 76 -96q15 -87 -65 -170q-41 -42 -102 -76l-10 5q95 96 72 164q-15 44 -70 51q-63 8 -113 -43q-8 -9 -16 -19l-3 4zM1247 1016l10 -12l-657 -955q-126 -224 -238 -362t-208 -189.5t-177.5 -37t-156.5 90.5q-37 63 -20 125t67 118
t131.5 102.5t172 79t188.5 47.5t182 8q-22 46 -52.5 96t-60 92t-62 89t-60.5 93t-54 97t-44 107t-28.5 118t-9 135.5t15.5 153.5h13h233q-25 -106 -16 -200t33.5 -160t65 -129t77.5 -107t71 -93.5t46 -89.5zM111 -426l-5 -2q44 -7 90 11.5t85.5 51.5t89 96t87.5 120t95 147
l-2 2l2 4q-2 4 -6 12.5t-6 12.5q-156 4 -298.5 -40t-222 -118.5t-63.5 -153.5q10 -58 51.5 -96t102.5 -47z" />
    <glyph glyph-name="uni1EF8" unicode="&#x1ef8;" horiz-adv-x="1830" 
d="M969 1970q58 46 115 52t100 -14.5t92 -63.5q53 -22 127 5t141 93l8 -2l41 -144q-59 -47 -115.5 -54t-100 14t-93.5 65q-50 23 -124.5 -3.5t-141.5 -92.5l-6 2zM2159 1698l-936 -1446l116 -254h-284l-488 -754l-12 6l489 756l-782 1690h291l661 -1430l932 1438z" />
    <glyph glyph-name="uni1EF9" unicode="&#x1ef9;" horiz-adv-x="1073" 
d="M471 1282q58 46 115 51.5t99.5 -15t92.5 -63.5q52 -22 126 5.5t143 93.5l6 -2l41 -144q-59 -47 -115.5 -54t-99.5 14t-93 65q-51 23 -124.5 -3.5t-141.5 -92.5l-6 2zM1247 1016l10 -12l-657 -955q-126 -224 -238 -362t-208 -189.5t-177.5 -37t-156.5 90.5q-37 63 -20 125
t67 118t131.5 102.5t172 79t188.5 47.5t182 8q-22 46 -52.5 96t-60 92t-62 89t-60.5 93t-54 97t-44 107t-28.5 118t-9 135.5t15.5 153.5h13h233q-25 -106 -16 -200t33.5 -160t65 -129t77.5 -107t71 -93.5t46 -89.5zM111 -426l-5 -2q44 -7 90 11.5t85.5 51.5t89 96t87.5 120
t95 147l-2 2l2 4q-2 4 -6 12.5t-6 12.5q-156 4 -298.5 -40t-222 -118.5t-63.5 -153.5q10 -58 51.5 -96t102.5 -47z" />
    </font>
</defs>
</svg>
