<?xml version="1.0" standalone="no"?>
<!DOCTYPE svg PUBLIC "-//W3C//DTD SVG 1.1//EN" "http://www.w3.org/Graphics/SVG/1.1/DTD/svg11.dtd" >
<svg xmlns="http://www.w3.org/2000/svg" xmlns:xlink="http://www.w3.org/1999/xlink" version="1.1">
<metadata>
Created by FontForge 20170731 at Fri Jul 22 16:41:32 2022
 By Aleksey,,,
@delipensil
</metadata>
<defs>
<font id="SVN-Agoka-Regular" horiz-adv-x="1327" >
  <font-face 
    font-family="SVN-Agoka"
    font-weight="400"
    font-stretch="normal"
    units-per-em="2048"
    panose-1="0 0 0 0 0 0 0 0 0 0"
    ascent="1638"
    descent="-410"
    x-height="1000.5"
    cap-height="1702"
    bbox="-340 -823 2888 2421.16"
    underline-thickness="0"
    underline-position="0"
    unicode-range="U+000A-F004"
  />
<missing-glyph horiz-adv-x="864" 
d="M82 1147h700v-1147h-700v1147zM127 1114l303 -506l305 506h-608zM412 573l-295 492v-985zM432 539l-303 -504h606zM453 573l297 -495v991z" />
    <glyph glyph-name="ok.liga" unicode="ok" horiz-adv-x="2082" 
d="M2052 23l41 -11h-264q-108 0 -187 82q-30 38 -81 133t-91 129q-36 28 -79 39h-15v-211q0 -72 49 -121t127 -49h-235q-77 0 -129 49q-51 48 -51 121l-2 215q-53 6 -105 15q-21 -119 -96.5 -217.5t-192.5 -151.5q-94 -42 -195.5 -44.5t-190.5 31t-164 101.5t-117 162
t-44.5 195.5t31 191t101.5 164.5t162 117t195.5 44.5t191 -31t165 -101.5t117.5 -162q62 -132 39 -283q33 -8 103 -16l-7 1294q0 -40 13.5 -70.5t35.5 -51.5t48 -41.5t52 -46.5t48 -59.5t35.5 -88.5t13.5 -125v-432q32 53 94 100t134 76.5t144 46t133 12.5t93 -29
q36 -30 55.5 -73.5t17.5 -93.5t-20.5 -102.5t-62.5 -103t-104.5 -93t-151 -74t-197.5 -45.5q-36 -7 -98 -13q89 -6 164.5 -30.5t126.5 -58t94 -73t75 -77.5t60 -69.5t58.5 -50.5t62.5 -19zM788 618v3q-73 161 -185.5 258.5t-213.5 91.5q-29 -7 -39 -29q-26 -53 43 -151
q64 -93 179.5 -175.5t265.5 -136.5q-14 54 -50 139zM739 53h2q83 38 110.5 154t-7.5 260q-156 54 -274.5 137.5t-184.5 177.5q-71 107 -45 166q10 15 12 17q-12 -3 -24 -9q-69 -31 -100 -118t-18 -206.5t69 -242.5q85 -186 219.5 -284.5t240.5 -51.5zM1579 930h-2
q-141 -40 -199 -166v-354q23 0 35 2q134 12 239 54.5t159.5 97t75.5 112.5t3 106q-34 79 -120 124t-191 24z" />
    <glyph glyph-name="al.liga" unicode="al" horiz-adv-x="1484" 
d="M1386 61l-6 5q50 -50 129 -50h-235q-78 0 -131 50q-49 49 -49 120l-9 1461q-25 -226 -98 -441q-61 -176 -147 -291q40 -34 67 -84q45 -62 45 -153v-502q0 -72 49 -121t127 -49h-235q-77 0 -129 49q-51 48 -51 121l10 449q-141 -14 -209 -37q-162 -57 -230 -176
q-56 -99 -23 -189q32 -86 131 -111q64 -17 147 -1q-14 -7 -37 -18t-87.5 -35.5t-120.5 -38t-118 -12.5t-98 28q-36 30 -55 73t-17 92.5t20.5 101.5t62.5 102.5t105 93t151 74.5t198 46l174 25l-2 145q-103 -71 -223 -71h-15q-91 0 -147 69q-43 49 -31 95q7 38 66 75
q45 32 106 48q92 20 192.5 -0.5t174.5 -81.5q58 80 104.5 190.5t72 207.5t42.5 189.5t22.5 140t5.5 56.5l15 -2q-2 -12 -6 -37q8 -41 36.5 -73t62.5 -58.5t67 -61t55 -99t22 -154.5v-1039q0 -72 49 -121zM473 731h14q127 0 226 74q0 74 -49 123q-54 49 -164 45.5t-168 -51.5
q-22 -22 -25 -43q-12 -39 27 -84q51 -61 139 -64z" />
    <glyph glyph-name="an.liga" unicode="an" horiz-adv-x="2224" 
d="M2236 0l-4 -2h-172v2h-69q-67 0 -115.5 48t-48.5 116v256q0 227 -67.5 360.5t-182.5 165.5q-109 33 -240 -28q-23 -14 -59 -39q61 -81 61 -236v-473q0 -71 50 -121q49 -49 129 -49h-236q-79 0 -131 49q-49 49 -49 121l-4 528q-20 -24 -41.5 -51t-48 -61.5t-41.5 -53.5
l-4 -4v-352q0 -72 49 -121t127 -49h-236q-80 0 -129 49q-51 48 -51 121l2 70q-209 -206 -422 -226q-149 -36 -217 13q-36 30 -55 73.5t-17 93t20.5 101.5t62.5 102t105 92.5t151 74.5t198 46q53 11 90.5 34t52.5 47.5t22.5 48t7.5 38.5l-1 15q0 40 -15.5 85.5t-39.5 69.5
q-44 44 -142 47q-50 -2 -92.5 -21t-70.5 -47t-48.5 -62t-30 -65t-10.5 -58l-133 45q14 62 83 115t166 81.5t192 24.5q104 -2 196.5 -48.5t141.5 -134.5q43 -67 43 -155v-127q121 153 137 170l-4 407q0 -56 25 -92t74.5 -75t72.5 -68q110 79 214.5 111t187 19t153.5 -57.5
t120.5 -110.5t81.5 -148q39 -100 39 -340v-234q10 -49 45 -82q49 -49 127 -49zM522 104l2 2q104 61 195 158l6 477q-3 -17 -12.5 -34t-30.5 -38.5t-62.5 -43.5t-99.5 -39q-163 -57 -231 -178q-57 -99 -23 -189q32 -87 131 -111q56 -14 125 -4z" />
    <glyph glyph-name="am.liga" unicode="am" horiz-adv-x="2840" 
d="M2888 4l-2 -2h-172v2h-70q-68 0 -116 48t-48 116v254q0 228 -67 362t-181 166q-139 41 -311 -65q71 -80 107 -176q38 -97 38 -342v-232q9 -48 43 -82q49 -49 129 -49h-172h-69q-67 0 -115.5 48t-48.5 116v256q0 228 -67 362t-181 166q-137 38 -307 -63q68 -94 68 -242
v-473q0 -72 49 -121t127 -49h-236q-77 0 -129 49q-51 48 -51 121l-4 553q-53 -62 -139 -182v-371q0 -72 49 -121t129 -49h-236q-79 0 -131 49q-49 49 -49 121v53q-106 -106 -229 -143q-45 -21 -93 -38t-109.5 -33t-116.5 -12.5t-89 28.5q-36 30 -55 73.5t-17 93t20.5 101.5
t62.5 102t105 92.5t151 74.5t198 46q53 11 90 34t52 48t23 48.5t8 39.5l-1 15q0 40 -15.5 85.5t-39.5 69.5q-44 42 -142 45q-50 -2 -92.5 -21t-70.5 -47t-48.5 -62t-30.5 -65.5t-12 -58.5l-131 48q22 93 157.5 160t283.5 61q106 -3 198 -49.5t140 -135.5q43 -67 43 -153
v-107q13 17 42 57.5t51 70t44 55.5l-2 383q0 -43 17 -76.5t39 -52.5t56.5 -48.5t55.5 -54.5q54 38 112 64q84 43 163.5 57.5t146.5 0.5t123 -46.5t102 -83.5q111 80 216 112t188.5 19.5t155 -57t121 -110.5t81.5 -148q39 -100 39 -342v-232q12 -49 45 -82q49 -49 127 -49z
M506 100l2 2q109 35 215 146l6 491q-16 -96 -207 -155q-162 -57 -231 -177q-56 -100 -22 -190q32 -86 131 -111q48 -12 106 -6z" />
    <glyph glyph-name="ar.liga" unicode="ar" horiz-adv-x="1888" 
d="M1759 987h-2q106 -36 172 -121l-172 -166h-4q-44 104 -134 151.5t-218 12.5q-33 -16 -64 -47l6 -450h-2v-60q0 -70 -13.5 -125t-35 -88.5t-47.5 -59.5t-52.5 -46.5t-48 -41.5t-35 -51.5t-13.5 -70.5l2 176h-195q-80 0 -129 49q-51 48 -51 121v47q-212 -177 -412 -203
q-159 -37 -225 13q-36 30 -55.5 73t-18 92.5t20 101.5t62.5 102.5t105 93t151 74.5t198 46q53 11 90.5 34t52.5 47.5t22.5 48t7.5 38.5l-1 15q0 41 -14.5 86t-38.5 69q-46 44 -144 47q-61 -3 -111.5 -31t-79 -68t-44 -80.5t-17.5 -74.5l-133 45q14 62 83 115t166 82t192 25
q106 -3 198 -49.5t140 -135.5q45 -67 45 -153v-201q12 13 34 37t33 37q38 40 72 75v226q0 72 -49 121t-129 49h235q79 0 131 -49q49 -49 49 -121v-8q17 14 31 22q14 12 31 25.5t48.5 34t63 34.5t74 27.5t83.5 14t89 -6.5zM528 100l2 2q94 51 195 136l6 499
q-16 -96 -207 -155q-163 -57 -231 -177q-57 -100 -24 -190q33 -87 132 -111q56 -14 127 -4zM1012 51q35 -35 88 -47l2 422v176q-10 -12 -31 -33t-31 -32q-15 -16 -40.5 -44t-36.5 -40v-281q0 -72 49 -121z" />
    <glyph glyph-name=".notdef" horiz-adv-x="864" 
d="M82 1147h700v-1147h-700v1147zM127 1114l303 -506l305 506h-608zM412 573l-295 492v-985zM432 539l-303 -504h606zM453 573l297 -495v991z" />
    <glyph glyph-name=".null" horiz-adv-x="0" 
 />
    <glyph glyph-name=".null" horiz-adv-x="0" 
 />
    <glyph glyph-name="nonmarkingreturn" horiz-adv-x="682" 
 />
    <glyph glyph-name="controlLF" unicode="&#xa;" horiz-adv-x="0" 
 />
    <glyph glyph-name="controlCR" unicode="&#xd;" horiz-adv-x="0" 
 />
    <glyph glyph-name="space" unicode=" " horiz-adv-x="505" 
 />
    <glyph glyph-name="exclam" unicode="!" horiz-adv-x="403" 
d="M326 356h-248v1391h248v-1391zM324 135l-123 -123l-125 123l125 125z" />
    <glyph glyph-name="numbersign" unicode="#" horiz-adv-x="1730" 
d="M1329 1184l-186 -590l385 -2v-33l-395 2l-181 -571l-32 10l178 561l-686 2l-183 -573l-32 10l178 563l-305 2v33l315 -2l184 586h-348v32h361l176 551l33 -10l-173 -541l687 3l174 548l32 -10l-172 -538h320v-33h-330zM1110 594l184 590l-686 -2l-186 -586z" />
    <glyph glyph-name="dollar" unicode="$" horiz-adv-x="1437" 
d="M1386 1163l-245 6q14 35 11.5 83.5t-12.5 101t-38.5 109t-66.5 107t-96.5 96t-129.5 75.5q-27 6 -74 14v-612q227 -54 377 -143.5t211 -208.5q33 -61 42 -139t0.5 -139t-26.5 -105l-2 -5v3q-45 -94 -125.5 -176t-173.5 -126q-98 -46 -207 -55q-44 -5 -98 -2v-67h-14v69
q-63 8 -96 14q-165 21 -299 85.5t-217.5 172t-86.5 240.5l244 29q-9 -53 8.5 -122t58 -140t114.5 -135.5t167 -100.5q58 -13 107 -16v772q-211 46 -355 132t-212 206q-19 35 -30 80.5t-6 106.5t29 120.5t84.5 123.5t151.5 114q153 74 342 51v80h14v-80q104 -14 217 -62
q25 -12 70 -39q181 -85 281.5 -221t80.5 -297zM1075 727v-2q-162 82 -342 117v-772q163 -10 295 55q18 7 74 43q59 41 89 122.5t26.5 166t-41 161.5t-101.5 109zM721 1143l4 608q-178 22 -330 -49h-6q-73 -35 -114 -95t-43 -123t34.5 -124.5t108.5 -99.5q140 -73 317 -111
q4 -1 29 -6z" />
    <glyph glyph-name="percent" unicode="%" horiz-adv-x="1589" 
d="M1133 1071v2q116 0 214.5 -72.5t156 -197.5t57.5 -273q0 -147 -57.5 -272t-156 -197.5t-214.5 -72.5t-214.5 72.5t-156 197.5t-57.5 272q0 140 51 261l-506 -803l-8 8l516 819q-59 -76 -137.5 -119t-165.5 -43q-117 0 -215.5 73t-155.5 198t-57 272t57 272t155.5 198
t215.5 73q116 0 214 -73t155 -198t57 -272q0 -158 -66 -293l539 854l10 -8l-514 -811q123 133 283 133zM549 682q75 13 126.5 95t65.5 203t-8 267q-25 140 -83 252.5t-134 169.5t-151 43q-115 -22 -169 -186.5t-16 -378.5q25 -140 83.5 -252.5t134.5 -169.5t151 -43z
M1225 16q115 22 168.5 187t15.5 379q-25 140 -83.5 252.5t-134.5 169.5t-151 43q-75 -13 -126.5 -95.5t-65.5 -203.5t8 -267q25 -140 83.5 -252.5t134.5 -169.5t151 -43z" />
    <glyph glyph-name="ampersand" unicode="&#x26;" horiz-adv-x="1974" 
d="M1845 479h6q60 -63 60 -139q0 -79 -60 -139q-61 -58 -139 -58q-80 0 -141 58q-58 61 -58 139q0 21 11 63q-12 -6 -49 -22t-61.5 -28.5t-47.5 -28.5q-77 -66 -80 -68l96 -121q7 -9 113 -133h-250q-34 38 -49 57h-2q-4 7 -14 19q-13 13 -29 33q-3 3 -23 28
q-202 -135 -419 -135q-45 0 -70 2q-54 -4 -78 -4q-79 0 -155 27q-154 49 -244 168q-88 116 -88 262q0 74 16 123q26 102 98 192q72 88 162 144q51 33 92 47q30 21 84 39q-106 205 -106 346q0 135 57 221q55 90 150 137q90 43 192 43q74 0 135 -20q13 -3 34 -12.5t52 -32
t57.5 -52.5t46.5 -78.5t23 -105.5q0 -59 -22 -133q-16 -67 -49 -121q-92 -140 -279 -152q-9 -1 -27.5 -3t-27.5 -3q54 -105 94 -174q183 -297 422 -598q13 12 40.5 36t41.5 36q6 5 17.5 14.5t17.5 14.5q31 33 112 98q93 72 179 72h12h10q79 0 137 -58zM733 1567h-2
q-57 -89 -57 -221q0 -121 82 -295q10 1 29 2t30 2q182 12 270 145q55 86 58 191q1 62 -17.5 117t-50 90.5t-71 60.5t-81 28t-79.5 -8q-70 -45 -111 -112zM682 16h2q224 -8 442 134q-360 469 -434 581q-133 219 -141 238q-6 8 -14 24q-10 -5 -11 -6h4q-49 -43 -91 -108.5
t-70.5 -149t-37.5 -172.5t13 -186t76 -181q86 -116 242 -170q8 0 20 -4z" />
    <glyph glyph-name="quotesingle" unicode="'" horiz-adv-x="348" 
d="M295 1087l-4 5q24 -34 24 -72q0 -28 -16 -57q-15 -41 -53 -91q-44 -58 -78 -92q31 39 63 111q-30 -12 -51 -12q-64 0 -106 39q-41 38 -41 100q0 65 41 100q44 41 106 41q24 0 62 -20q34 -20 53 -52z" />
    <glyph glyph-name="parenleft" unicode="(" horiz-adv-x="806" 
d="M723 4q2 -2 10 -6h-221q-120 0 -221 61q-103 64 -160 166q-59 106 -59 226v852q0 118 59 221q56 97 160 159q100 60 221 60h182q-85 -12 -157 -55q-101 -59 -160 -160q-60 -105 -60 -221v-852q0 -118 60 -226q58 -105 160 -168q88 -51 186 -57z" />
    <glyph glyph-name="parenright" unicode=")" horiz-adv-x="806" 
d="M674 1524q59 -103 59 -221v-852q0 -120 -59 -226q-57 -103 -162 -166q-98 -61 -221 -61h-219q2 1 5 3t5 3q96 6 184 57q103 62 162 168t59 226v852q0 118 -59 221q-60 101 -162 160q-73 43 -155 55h180q124 0 221 -60q106 -61 162 -159z" />
    <glyph glyph-name="asterisk" unicode="*" horiz-adv-x="847" 
d="M819 1393v-37h-350l248 -248l-27 -27l-248 248v-350h-36v350l-248 -248l-27 27l248 248h-350v37h350l-248 247l27 27l248 -248v350h36v-350l248 248l27 -27l-248 -247h350z" />
    <glyph glyph-name="plus" unicode="+" horiz-adv-x="1800" 
d="M920 899h811v-37h-811v-811h-39v811h-811v37h811v811h39v-811z" />
    <glyph glyph-name="comma" unicode="," horiz-adv-x="346" 
d="M293 217l-2 4q22 -31 22 -71q0 -28 -14 -56q-18 -43 -55 -92q-33 -44 -78 -92q28 36 63 110q-30 -12 -51 -12q-64 0 -106 39q-41 41 -41 100q0 62 41 103q45 39 106 39q27 0 62 -21t53 -51z" />
    <glyph glyph-name="hyphen" unicode="-" horiz-adv-x="1683" 
d="M1671 862h-1659v37h1659v-37z" />
    <glyph glyph-name="period" unicode="." horiz-adv-x="292" 
d="M272 102l-125 -125l-124 125l124 123z" />
    <glyph glyph-name="slash" unicode="/" horiz-adv-x="724" 
d="M653 1741l-551 -1739l-32 10l553 1737z" />
    <glyph glyph-name="zero" unicode="0" horiz-adv-x="1462" 
d="M731 1749q186 0 343.5 -116t249 -315.5t91.5 -436.5q0 -177 -54 -337.5t-145.5 -277t-218 -185.5t-266.5 -69q-186 0 -344 116.5t-250 316.5t-92 436q0 237 92 436.5t249.5 315.5t344.5 116zM881 53q90 17 160.5 97t108.5 203t47 280.5t-23 329.5q-40 225 -134 404.5
t-216 271t-242 69.5q-90 -16 -160.5 -95.5t-108.5 -202.5t-47 -280.5t23 -328.5q40 -225 133.5 -404.5t215.5 -272t243 -71.5z" />
    <glyph glyph-name="one" unicode="1" horiz-adv-x="487" 
d="M403 1755h3v-270v-1481h-246v1483h-2h-1h-2h-2h-1h-2h-2h-1h-2h-2h-2h-1h-2h-2h-1h-2h-2h-2h-1h-2h-2h-2h-2h-1h-2h-2h-2h-1h-2h-2h-2h-2h-1h-2h-2h-2h-2h-2h-2h-1h-2h-2h-2h-2h-2h-2h-2h-1h-2h-2h-2h-2h-2h-2h-2h-2h-2h-2h-2h-2h-2h-2h-2h-2h-2h-2h-2h-10l350 248l26 22
v-2z" />
    <glyph glyph-name="two" unicode="2" horiz-adv-x="1468" 
d="M1090 715l301 6q-47 0 -97.5 -40t-96.5 -103.5t-95 -140.5t-99.5 -154.5t-102 -141t-112 -103.5t-120.5 -40h-252h6h-131h-242v526q0 85 47.5 163.5t124.5 140.5t175.5 121t201 110t199.5 102t172 102.5t118.5 105t38.5 116.5t-67 131q-187 149 -412 108
q-127 -23 -274.5 -122t-184.5 -213l-12 4q20 60 85 130t169 132t213 82q43 8 85.5 9.5t96 -8t104 -30t107.5 -61t109 -97.5q105 -92 142.5 -170.5t13 -139t-87 -114.5t-156.5 -103.5t-196 -97.5t-204.5 -106t-184 -120.5t-132.5 -147.5t-51 -182v-357h157q39 25 101 108
t127 180t135 191.5t144.5 158t136.5 65.5z" />
    <glyph glyph-name="three" unicode="3" horiz-adv-x="1413" 
d="M756 1198l-2 4q122 0 233.5 -47.5t192.5 -128.5t128.5 -192.5t47.5 -233.5q0 -123 -47.5 -235t-128.5 -192.5t-192.5 -128.5t-233.5 -48t-233.5 48t-192.5 128.5t-128.5 192.5t-47.5 235q0 73 14 133l158 156l6 8q-15 -104 13.5 -229t98.5 -248q48 -83 109.5 -152.5
t126.5 -116t131 -72t128.5 -24t113.5 30.5q85 48 116.5 158t5 252.5t-107.5 281.5q-91 156 -218 254t-245 107v-2l-8 10l506 362h-1030l344 248h1030l4 2l4 -2h2l-2 -2l2 -6l-147 -107l-174 -135h-15l-436 -315q37 6 74 6z" />
    <glyph glyph-name="four" unicode="4" horiz-adv-x="1519" 
d="M1188 362h266v-14h-262v-237l-246 -279v516h-874v14l583 1330l226 -6v-15v-2l-566 -1307h627v363l-2 -2v14l236 176l2 -4l10 6v-553z" />
    <glyph glyph-name="five" unicode="5" horiz-adv-x="1355" 
d="M682 1178v-2q122 0 233.5 -48t192.5 -129t128.5 -193t47.5 -235q0 -122 -47.5 -233.5t-128.5 -192.5t-192.5 -128.5t-233.5 -47.5q-213 0 -371.5 109t-208.5 299l181 221q24 -92 88 -203q48 -83 109 -152.5t126.5 -116t131 -72t128 -24t113.5 30.5q85 48 116.5 158.5
t5 252.5t-107.5 280q-48 83 -109 152.5t-126.5 115.5t-131 71.5t-128 24t-113.5 -30.5q-105 -61 -127 -215v-61l-197 -250v801l189 149l287 246h868l-266 -248h-881v-503q84 82 193.5 128t230.5 46z" />
    <glyph glyph-name="six" unicode="6" horiz-adv-x="1267" 
d="M643 1186l4 -2q122 0 233.5 -48t192.5 -128.5t128.5 -192.5t47.5 -235q0 -163 -80.5 -302t-219.5 -220t-302 -81t-302 81t-219.5 220t-80.5 302v20q-3 55 4 123q7 81 43 199q12 40 33 94q15 35 41 90q44 88 96 168q99 154 232 303q133 152 266 268q-116 -132 -228 -299
q-102 -148 -178 -321q-36 -77 -59 -150q155 111 348 111zM942 70l-2 -2q85 48 116.5 157.5t5 251.5t-107.5 281q-48 83 -109 151.5t-126 115t-130.5 72t-127.5 24t-113 -30.5q-35 -20 -65 -58q-2 -9 -9 -32t-10 -37q-15 -67 -16 -82q-15 -105 -10 -170q7 -88 26 -156h-2
q25 -72 72 -154q48 -83 109 -152t126.5 -115t131 -71t128 -23.5t113.5 30.5z" />
    <glyph glyph-name="seven" unicode="7" horiz-adv-x="1519" 
d="M1438 1747l2 -4l-1161 -1055l12 -682l-246 -6l-4 471l-8 8l1130 1028h-1134l307 248h1110z" />
    <glyph glyph-name="eight" unicode="8" 
d="M1266 1200q0 -170 -90 -315q90 -145 90 -316q0 -122 -48 -233.5t-128.5 -192.5t-192.5 -128.5t-235 -47.5q-163 0 -302 80.5t-220 219.5t-81 302q0 169 88 316q-88 147 -88 315q0 163 81 302t220 219.5t302 80.5q123 0 235 -47.5t192.5 -128.5t128.5 -192.5t48 -233.5z
M367 1710h2q-121 -69 -132 -254.5t91 -386.5q148 102 338 102q122 0 232.5 -47t195.5 -131q-7 191 -119 385q-48 83 -109 151.5t-126.5 115t-131 72t-128 24t-113.5 -30.5zM995 713q-10 15 -20 35q-48 83 -109 151.5t-126.5 114.5t-131 71.5t-128 24t-113.5 -30.5
q-22 -11 -35 -24q3 -5 18 -35q48 -83 109 -151.5t126.5 -115t131 -72t128 -24t113.5 30.5q18 9 37 25zM961 59h-3q121 69 132 254.5t-91 386.5q-148 -102 -337 -102q-122 0 -233 47t-196 131q7 -191 119 -385q48 -83 109.5 -151.5t126.5 -115t131 -72t128.5 -24t113.5 30.5z
" />
    <glyph glyph-name="nine" unicode="9" horiz-adv-x="1259" 
d="M1223 1225l-6 4q0 -75 -7 -123q-7 -87 -43 -199q-7 -30 -32 -94q-20 -53 -41 -90q-45 -91 -95 -170q-105 -159 -231 -303q-138 -154 -266 -266q104 117 227 299q102 148 178 321q39 83 60 150q-155 -111 -349 -111q-122 0 -233.5 47.5t-192.5 128.5t-128.5 192.5
t-47.5 233.5t47.5 233.5t128.5 192.5t192.5 128.5t233.5 47.5q123 0 235 -47.5t193 -128.5t129 -192.5t48 -233.5v-20zM1010 946l2 2q13 96 8 170q-3 79 -25 156q-26 78 -71 153q-48 83 -109.5 152.5t-126.5 116t-131 72t-128.5 24t-113.5 -30.5q-85 -48 -116.5 -157.5
t-5 -252t107.5 -282.5q48 -83 109 -151.5t126.5 -115t131 -72t128 -24t113.5 30.5q33 19 64 58q3 10 10 32.5t10 36.5q15 66 17 82z" />
    <glyph glyph-name="colon" unicode=":" horiz-adv-x="317" 
d="M283 766l-123 -125l-125 125l125 123zM285 201l-125 -125l-123 125l123 123z" />
    <glyph glyph-name="semicolon" unicode=";" horiz-adv-x="372" 
d="M190 608v2q-67 0 -106 39q-41 38 -41 101q0 62 41 100q39 39 106 39q28 0 60 -19q34 -20 55 -51q23 -33 23 -71q0 -32 -23 -70q-21 -31 -55 -51q-32 -19 -60 -19zM250 367l-2 4q33 -23 53 -52q23 -33 23 -71q0 -31 -15 -55q-15 -42 -53 -93q-38 -49 -80 -92q23 26 66 111
q-32 -13 -52 -13q-67 0 -106 39q-41 38 -41 101q0 64 41 102q42 39 106 39q31 0 60 -20z" />
    <glyph glyph-name="less" unicode="&#x3c;" horiz-adv-x="765" 
d="M696 1454l-573 -573l573 -574l-26 -26l-600 600l14 12l586 586z" />
    <glyph glyph-name="greater" unicode="&#x3e;" horiz-adv-x="765" 
d="M684 893l12 -12l-600 -600l-26 26l573 574l-573 573l26 25z" />
    <glyph glyph-name="question" unicode="?" horiz-adv-x="1300" 
d="M1253 1333h-4q52 -133 30 -241t-91.5 -185.5t-177 -141t-227.5 -107.5t-242 -85.5t-220.5 -75.5t-163.5 -76.5t-71 -88.5q0 41 46 85t119.5 84t166.5 88.5t186.5 99t178.5 115.5t144 138t83 166t-6 199q-61 200 -200 312.5t-272 88.5q-90 -16 -160 -95.5t-109.5 -204
t-45.5 -278.5h-190q42 178 137.5 318.5t231 220.5t288.5 80q123 0 230 -41.5t198 -137t141 -237.5zM283 135l-125 -123l-125 123l125 125z" />
    <glyph glyph-name="at" unicode="@" horiz-adv-x="1906" 
d="M1860 864l6 6v-6q0 -12 -1 -36t-1 -37q-3 -52 -9 -102t-19.5 -115.5t-31.5 -122t-47 -113.5t-65.5 -98.5t-88 -69.5t-112.5 -33h-10q-126 0 -181 58q-28 30 -28 69h-2v142q-169 -150 -398 -150q-165 0 -305.5 81.5t-222.5 221.5t-82 305t82 306t222.5 223t305.5 82
q229 0 398 -150v119h248v-1178h-236q0 -34 25 -63q51 -54 178 -51q62 4 114 33t88 76t63.5 102t45 121.5t27.5 123.5t16 117v2q3 31 6 64q2 31 2 73q-1 182 -72 347.5t-191.5 285.5t-286.5 191t-349 71q-182 0 -348 -71t-286.5 -191.5t-191.5 -286.5t-71 -348
q0 -183 71 -349.5t191.5 -286.5t286.5 -191.5t348 -71.5q191 0 373 82l10 -8q-182 -84 -383 -84q-185 0 -353.5 72t-290 193.5t-193.5 290t-72 353.5q0 148 46 287t130 251t195.5 196t250.5 130t287 46q179 0 343.5 -68t285.5 -183.5t196.5 -275.5t84.5 -338h2v-43z
M1176 348q85 49 117 160.5t5.5 255.5t-108.5 285q-61 106 -141.5 188t-163 125.5t-164.5 53t-146 -29.5q-130 -75 -134.5 -280t120.5 -420q48 -85 110 -155t128 -116.5t132.5 -72.5t130 -24.5t114.5 30.5z" />
    <glyph glyph-name="A" unicode="A" 
d="M659 858zM782 1700l566 -1698h-248l-125 377h-813l-180 -383l-13 6l183 387v6h2l479 1018l-96 287h245zM168 391h803l-334 998z" />
    <glyph glyph-name="B" unicode="B" horiz-adv-x="1548" 
d="M1161 848h4q42 -9 81 -23.5t88.5 -46.5t85 -75t60.5 -114t25 -159q0 -93 -36 -175.5t-93 -136.5t-125 -85t-133 -31h-1009v2h-25v1696h248h760q9 0 23.5 -1.5t57.5 -10.5t81.5 -24.5t86 -47.5t81.5 -75t57.5 -112.5t23.5 -154.5q0 -86 -30 -162.5t-79.5 -130
t-109.5 -88.5t-123 -45zM332 1686v-830h639q63 0 128 61t107.5 159t42.5 196q0 64 -12.5 120.5t-44 111.5t-81.5 94.5t-131 63.5t-185 24h-463zM809 14v-2q125 0 228 62t157.5 157t54.5 197q0 98 -41 195t-106.5 158t-132.5 61h-637v-828h477z" />
    <glyph glyph-name="C" unicode="C" horiz-adv-x="1624" 
d="M1485 483l160 -4q-106 -218 -313.5 -350.5t-459.5 -132.5q-174 0 -332.5 68t-273 183t-182.5 274t-68 333t68 332.5t182.5 273t273 182.5t332.5 68q293 0 521 -174l-136 -154q-140 176 -320 250.5t-343 16.5q-92 -33 -164.5 -104t-116.5 -169t-62 -214t-4 -247t60 -260
q77 -215 217.5 -371t308.5 -216t322 -5q124 45 209 155.5t121 264.5z" />
    <glyph glyph-name="D" unicode="D" horiz-adv-x="1507" 
d="M662 1700h2q169 -5 322 -74.5t264 -183t176 -268.5t65 -326q0 -227 -110.5 -420t-300.5 -308t-416 -122h-7h-20h-4h-303h-248v1702h248h332zM639 12q122 0 232 66t190 178t127 266.5t47 325.5q0 227 -79.5 419t-217 304t-299.5 112h-4h-303v-1671h303h4z" />
    <glyph glyph-name="E" unicode="E" horiz-adv-x="1454" 
d="M1464 1686h-1134v-828h1134v-14h-1134v-828h1134v-14h-1382v2v1696h248h1134v-14z" />
    <glyph glyph-name="F" unicode="F" horiz-adv-x="1445" 
d="M1464 1686h-1134v-828h1134v-14h-1134v-840h-248v1696h248h1134v-14z" />
    <glyph glyph-name="G" unicode="G" horiz-adv-x="1744" 
d="M1724 748l5 -7v-16h-5l5 -741q0 43 -15 75t-40 54.5t-52 43.5t-56.5 53.5t-47.5 72.5q-121 -135 -288 -211t-356 -76q-174 0 -332.5 68t-273 182.5t-182.5 273t-68 332.5t68 332.5t182.5 273t273 182.5t332.5 68q283 0 508 -166l-149 -131q-139 160 -310.5 225t-328.5 9
q-115 -41 -198 -141t-122 -233t-31.5 -296t64.5 -324q77 -215 217.5 -370.5t308.5 -215.5t322 -4q121 42 204.5 148t119.5 254v10v260h-291v15h291h245z" />
    <glyph glyph-name="H" unicode="H" horiz-adv-x="1554" 
d="M1225 1700h248v-1696h-248v840h-895v-840h-248v1696h248v-842h895v842z" />
    <glyph glyph-name="I" unicode="I" horiz-adv-x="413" 
d="M330 4h-248v1698h248v-1698z" />
    <glyph glyph-name="J" unicode="J" horiz-adv-x="1650" 
d="M1599 815l3 4v-4q0 -10 -1 -28t-9.5 -73.5t-22.5 -109.5t-44.5 -127t-72 -135.5t-108 -126.5t-148 -109t-198.5 -73.5t-253 -28.5q-251 0 -458.5 132t-313.5 349h162q34 -154 119 -264t209 -155q58 -21 128 -22t143 15t148 50.5t143 82.5t128 114t104 141t69.5 167.5
t25.5 190.5v905h247v-895z" />
    <glyph glyph-name="K" unicode="K" horiz-adv-x="1503" 
d="M502 987l1036 -985h-305l-903 838v-836h-248v1696h248v-826l1116 836l8 -10z" />
    <glyph glyph-name="L" unicode="L" horiz-adv-x="1423" 
d="M330 14h1134v-14h-1382v2v1698h248v-1686z" />
    <glyph glyph-name="M" unicode="M" horiz-adv-x="2451" 
d="M2126 1698h244v-1696v0h-244v1661l-885 -1657v6l-4 -8q2 2 -284.5 417t-573.5 832t-287 422v-1671h-10v1694h-12l278 -2q-3 -2 247.5 -364.5t502.5 -725.5t252 -364z" />
    <glyph glyph-name="N" unicode="N" horiz-adv-x="1339" 
d="M1241 1696h14v-1692h-14v0v6l-6 -10q3 2 -283.5 417t-574 832t-287.5 422v-1671h-10v1694h-12l278 -2q-2 -1 159.5 -234.5t401 -579t334.5 -483.5v1301z" />
    <glyph glyph-name="O" unicode="O" horiz-adv-x="1748" 
d="M874 1714q174 0 333 -68t274.5 -182.5t183.5 -273.5t68 -334q0 -174 -68 -332.5t-183.5 -273t-274.5 -182.5t-333 -68t-332.5 68t-273 182.5t-182.5 273t-68 332.5q0 175 67.5 334t182.5 273.5t273.5 182.5t332.5 68zM1155 63q115 42 198 142t121 233t30.5 295.5
t-64.5 323.5q-77 215 -217.5 371t-308 216t-320.5 5q-92 -33 -164.5 -104t-116.5 -169t-62 -214t-4 -247t60 -260q77 -215 217.5 -371t308.5 -216t322 -5z" />
    <glyph glyph-name="P" unicode="P" horiz-adv-x="1503" 
d="M1090 1700h2q9 0 23.5 -1.5t57.5 -10.5t81.5 -24.5t86 -47.5t81.5 -75t57.5 -112.5t23.5 -154.5q0 -94 -36 -177t-92.5 -137t-124.5 -85t-134 -31h-786v-840h-248v1696h248h760zM971 858l-2 -2q63 0 128.5 61t108.5 159t43 196q0 64 -12.5 120.5t-44.5 111.5t-82.5 94.5
t-131.5 63.5t-185 24h-461v-828h639z" />
    <glyph glyph-name="Q" unicode="Q" horiz-adv-x="2052" 
d="M2087 45l4 -16q-276 -76 -494 -76q-258 0 -415 102q-151 -55 -308 -55q-174 0 -332.5 68t-273 182.5t-182.5 273t-68 332.5q0 175 67.5 334t182.5 273.5t273.5 182.5t332.5 68t333 -68t274.5 -182.5t183.5 -273.5t68 -334q0 -264 -148 -479.5t-387 -313.5
q92 -57 214 -80.5t247.5 -14t227.5 28.5t200 48zM1155 63l-2 5q2 1 5 2t5 2q-204 145 -219 463q-7 106 35 189t127 130q79 44 169.5 40.5t162.5 -54.5q38 -29 65 -66q-13 148 -63 283q-77 215 -217.5 371t-308 216t-320.5 5q-92 -33 -164.5 -104t-116.5 -169t-62 -214
t-4 -247t60 -260q77 -215 217.5 -371t308.5 -216t322 -5zM1180 78l2 -2q163 70 249 253.5t72 418.5q-35 55 -73 81q-68 47 -154.5 50.5t-163.5 -39.5q-82 -46 -123 -126.5t-35 -183.5q18 -307 215 -448q8 -4 11 -4z" />
    <glyph glyph-name="R" unicode="R" horiz-adv-x="1525" 
d="M600 846l924 -842h-305l-887 823v-823h-248v1698h248h760q9 0 23.5 -1.5t57.5 -10.5t81.5 -24.5t86 -48t81.5 -75.5t57.5 -113t23.5 -155q0 -94 -36 -176t-92.5 -136t-124.5 -85t-134 -31h-516zM332 1686l-2 -830h639q63 0 128.5 61t108.5 159t43 196q0 64 -12.5 120.5
t-44.5 111.5t-82.5 94.5t-131.5 63.5t-185 24h-461z" />
    <glyph glyph-name="S" unicode="S" horiz-adv-x="1402" 
d="M1370 1090l-242 4q12 36 12 83.5t-11.5 100.5t-38.5 109t-65.5 107t-97 96t-128.5 75q-226 54 -420 -35h-6q-73 -35 -114 -95t-43.5 -123t34 -124.5t108.5 -99.5q144 -78 318 -111q245 -53 406 -144.5t227 -215.5q33 -61 41.5 -139t-0.5 -139t-27 -107v-4v2
q-44 -94 -125 -175.5t-174 -125.5q-100 -47 -207 -56q-104 -9 -207 15q-165 21 -299 84.5t-217.5 171t-85.5 239.5l242 29q-9 -53 9 -122t58.5 -140t115 -135.5t167.5 -100.5q225 -51 414 37q22 9 71 43q60 41 90.5 122.5t27.5 166t-40.5 161.5t-101.5 109q-149 76 -346 119
q-215 44 -363 131t-217 209q-19 35 -29 80.5t-5 106.5t29 120.5t84.5 123.5t150.5 114q142 61 287 56t286 -66q25 -12 70 -39q181 -85 281.5 -221t80.5 -297z" />
    <glyph glyph-name="T" unicode="T" horiz-adv-x="1275" 
d="M764 1700h551v-14h-551v-1682h-248v1682h-557v14h557h248z" />
    <glyph glyph-name="U" unicode="U" horiz-adv-x="1732" 
d="M1681 823q0 -22 -4.5 -66t-30.5 -147t-71 -192q-30 -60 -68.5 -112.5t-99.5 -108.5t-134.5 -97t-176.5 -69.5t-222 -34.5h-22q-119 6 -222 34.5t-176 69.5t-134 97t-99.5 108.5t-68.5 112.5q-44 89 -69 192.5t-28.5 144t-3.5 60.5v10v887h254v-905q0 -196 88 -400
t217 -303q81 -49 154 -72t106 -22l33 2q112 7 209 36t166 68.5t127 93.5t94.5 104.5t65.5 107.5q28 55 49 115.5t30.5 105t15 87.5t6.5 58.5t1 22.5v2v2v895h14v-887z" />
    <glyph glyph-name="V" unicode="V" horiz-adv-x="1830" 
d="M1860 1698l-682 -1448l161 -252h-290l-1086 1698h289l917 -1432l678 1440z" />
    <glyph glyph-name="W" unicode="W" horiz-adv-x="2818" 
d="M2847 1698l-680 -1448l160 -252h-291l-566 883l-299 -623l168 -260h-290l-7 12l-6 2l2 2l-1075 1682h289l911 -1422l299 623l-512 799h291l918 -1432l675 1440z" />
    <glyph glyph-name="X" unicode="X" horiz-adv-x="1339" 
d="M1358 1696l-606 -754l604 -944h-289l-475 743l-592 -737l-12 8l596 740l-604 942h290l473 -740l605 750z" />
    <glyph glyph-name="Y" unicode="Y" horiz-adv-x="1830" 
d="M1860 1698l-682 -1446l161 -254h-282l-357 -754l-12 6l356 756l-1081 1690h291l913 -1430l680 1438z" />
    <glyph glyph-name="Z" unicode="Z" 
d="M1348 1696h2l-4 -8v0l-1076 -1680h1078v-14h-1360v4h-15l1082 1688h-1067v14h1360v-4z" />
    <glyph glyph-name="bracketleft" unicode="[" horiz-adv-x="700" 
d="M629 1708h-297v-1679h297v-33h-297h-250v1745h94h131h25h297v-33z" />
    <glyph glyph-name="backslash" unicode="\" horiz-adv-x="724" 
d="M653 12l-30 -8l-553 1737l32 10z" />
    <glyph glyph-name="bracketright" unicode="]" horiz-adv-x="700" 
d="M524 1741l94 -2v-1745h-251h-297v33h297v1681h-297v33h297h26h131z" />
    <glyph glyph-name="asciicircum" unicode="^" horiz-adv-x="724" 
d="M362 1759l345 -346l-15 -16l-332 332l-331 -332l-15 16l340 338z" />
    <glyph glyph-name="a" unicode="a" horiz-adv-x="1083" 
d="M1012 43h-2q49 -49 127 -49h-236q-77 0 -129 49q-51 48 -51 121l6 567q-16 -97 -207 -156q-162 -57 -230 -177q-56 -100 -22 -190q33 -87 133 -112q63 -15 144 0q-14 -7 -37 -18t-87.5 -35.5t-120 -38t-117.5 -12.5t-97 28q-28 24 -46 55.5t-24 68t-1.5 76.5t23.5 80.5
t48 79t74.5 74.5t101 65.5t129.5 51.5t158 33q53 11 90.5 34t52.5 48t22.5 48.5t7.5 38.5l-1 15q0 41 -14.5 86.5t-38.5 69.5q-47 42 -144 45q-50 -2 -92.5 -21t-70.5 -47t-48.5 -62t-30 -65.5t-10.5 -58.5l-133 47q22 93 158.5 160.5t282.5 61.5q106 -3 198 -49.5
t140 -135.5q45 -70 45 -153v-502q0 -72 49 -121z" />
    <glyph glyph-name="b" unicode="b" horiz-adv-x="1034" 
d="M307 909v-2q246 134 440 34q137 -71 208 -237q72 -168 43 -342q-31 -186 -165 -282q-46 -32 -102 -51q-49 -7 -90 -6.5t-83.5 14t-74.5 27.5t-63.5 34.5t-48.5 34t-31 25.5q-1 1 -14 10.5t-19 15.5v-12q0 -72 49 -121t129 -49h-235q-79 0 -131 49q-49 49 -49 121l-4 553
q-5 0 -5 -2q0 2 5 2l-5 971q0 -40 13.5 -70.5t35.5 -51.5t48 -41.5t52 -47t48 -60t35.5 -88.5t13.5 -125v-303zM375 154l-2 2q187 -50 297 74q87 98 94 263q6 162 -68 284q-84 137 -231 142q-74 2 -158 -32v-678q26 -33 68 -55z" />
    <glyph glyph-name="c" unicode="c" horiz-adv-x="978" 
d="M856 256l123 10q-82 -152 -238 -221q-94 -42 -195.5 -44.5t-190.5 31t-164 101.5t-117 162t-44.5 195.5t31 191t101.5 164.5t162 117q141 63 285.5 41t254.5 -119q-27 -16 -53 -37t-56 -49.5t-46 -42.5q-87 126 -193 182t-190 18q-69 -31 -100.5 -118t-18.5 -206.5
t69 -242.5q85 -186 220 -284.5t241 -51.5q100 48 119 203z" />
    <glyph glyph-name="d" unicode="d" horiz-adv-x="1099" 
d="M1012 53v-4q49 -49 129 -49h-236q-79 0 -131 49q-49 49 -49 121v8q-17 -14 -31 -22q-12 -11 -25.5 -21t-38.5 -27.5t-49.5 -30t-59.5 -27.5t-67 -20.5t-72.5 -8.5t-76.5 8q-167 55 -237 223q-65 156 -24 341q40 180 159 288q150 135 357 88q78 -17 159 -60l-2 785
q0 -40 13.5 -70.5t35.5 -51.5t48 -41.5t52 -47t48 -60t35.5 -88.5t13.5 -125v-479q1 -2 4 -5t4 -5q-1 2 -4 5t-4 5v-557q0 -72 49 -121zM659 152l3 -2q39 19 63 49l-2 684q-195 76 -324 -39q-98 -88 -123 -249q-25 -160 35 -289q64 -139 196 -163q69 -13 152 9z" />
    <glyph glyph-name="e" unicode="e" horiz-adv-x="989" 
d="M639 483h4q-46 -47 -71 -70.5t-66 -55t-82 -47t-86 -19.5q89 -142 201 -208.5t202 -27.5q101 46 117 205l31 -110q-63 -64 -146 -101q-94 -42 -195.5 -44.5t-190.5 31t-164 101.5t-117 162t-44.5 195.5t31 191.5t101.5 165.5t162 117.5q127 53 250.5 43.5t233 -81
t171.5 -186.5h-2l6 -12q-25 -9 -80 -35l-119 -77q-41 -32 -147 -138zM330 303l-4 -2q37 2 72.5 15t61.5 27t61 44t54 48.5t58 58.5q94 94 151 139q-57 119 -137 204.5t-164 118t-151 2.5q-69 -31 -100.5 -118t-18 -206.5t69.5 -242.5q7 -15 47 -88z" />
    <glyph glyph-name="f" unicode="f" horiz-adv-x="606" 
d="M823 1288h-2q-7 55 -79.5 85.5t-158 25t-128.5 -44.5q-49 -49 -49 -125v-160v-188h204v-15h-204v-633q0 -70 -13.5 -125t-35.5 -88.5t-48 -59.5t-52 -46.5t-48 -41.5t-35.5 -51.5t-13.5 -70.5l6 1118h-172v15h172l2 211v12q0 90 43 154q62 113 190.5 156.5t253.5 15.5
q87 -23 127.5 -66t40.5 -78z" />
    <glyph glyph-name="g" unicode="g" horiz-adv-x="1073" 
d="M860 -98l4 -6q60 -24 109 -64t78.5 -90t41 -105.5t-8.5 -113.5t-66.5 -111.5t-136 -101.5t-213.5 -82q-137 -51 -275 -51q-68 0 -137 16q-88 20 -153 64t-99 106q-58 103 -15.5 222.5t175.5 232.5q-123 13 -158 39l176 147q20 20 74 70q-119 80 -180 211
q-42 94 -44.5 195.5t31 191t101.5 165t162 117.5q165 72 336 28t276 -183q100 193 39 329l12 7q66 -146 -45 -347q33 -50 47 -83q42 -94 44.5 -195.5t-31 -191t-101.5 -164.5t-162 -117q-124 -54 -247 -44t-230 77q-7 -7 -30 -28.5t-33 -33.5q36 -18 157 -27.5t267 -26.5
t235 -52zM741 39v2q101 46 118 202.5t-58 336.5q-130 -157 -398 -396q82 -98 173.5 -137.5t164.5 -7.5zM332 946v-2q-69 -31 -100.5 -118t-18 -206.5t69.5 -242.5q46 -104 112 -182q266 238 402 399q-1 3 -3 8t-3 8q-85 186 -220 284.5t-239 51.5zM651 -762l-2 4
q137 80 206 170t60 166.5t-90 124.5q-45 27 -105 46t-137.5 31t-132.5 18t-146 12.5t-122 9.5q-135 -109 -180 -228t12 -219q52 -93 162 -138t233 -41t242 44z" />
    <glyph glyph-name="h" unicode="h" horiz-adv-x="1159" 
d="M1202 4v-4h-172v2h-67q-67 0 -115.5 48t-48.5 116v256q0 226 -68 360t-182 166q-109 32 -242 -26v-750q0 -72 49 -121t129 -49h-235q-79 0 -131 49q-49 49 -49 121l-9 1522q0 -40 13.5 -70.5t35.5 -51.5t48 -41.5t52 -47t48 -60t35.5 -88.5t13.5 -125v-266
q123 72 236.5 82t199 -33t148.5 -115.5t100 -168.5q39 -100 39 -342v-232q8 -45 45 -82q49 -49 127 -49z" />
    <glyph glyph-name="i" unicode="i" horiz-adv-x="442" 
d="M356 53l2 -2q49 -49 129 -49h-237q-77 0 -129 49q-51 48 -51 121l-9 944q0 -40 13.5 -70.5t35.5 -51.5t48 -41.5t52 -46.5t48 -59.5t35.5 -88.5t13.5 -125v-459q0 -72 49 -121zM295 1247l-125 -125l-125 125l125 125z" />
    <glyph glyph-name="j" unicode="j" horiz-adv-x="374" 
d="M311 1249l-125 -125l-125 125l125 123zM70 1122l6 -2q0 -40 13.5 -70.5t35.5 -51.5t48 -41.5t52 -46.5t48 -59.5t35.5 -88.5t13.5 -125l-5 -827v-13q0 -89 -43 -153q-62 -113 -191.5 -156.5t-254.5 -15.5q-88 22 -128 64.5t-40 78.5q6 -54 78.5 -85t158.5 -25.5t128 44.5
q49 49 49 125v160z" />
    <glyph glyph-name="k" unicode="k" horiz-adv-x="1011" 
d="M987 10l41 -10h-262q-113 0 -186 82q-30 37 -81.5 132.5t-90.5 127.5q-39 30 -86 41h-11v-209q0 -72 49 -121t127 -49h-235q-77 0 -129 49q-51 48 -51 121l-9 1522q0 -40 13.5 -70.5t35.5 -51.5t48 -41.5t52 -47t48 -60t35.5 -88.5t13.5 -125v-432q32 52 94 99t134 76.5
t144 46t133 13t93 -27.5q36 -30 55.5 -73.5t17.5 -93.5t-20.5 -103t-62.5 -103.5t-104.5 -93t-151 -75t-197.5 -46.5q-8 -2 -98 -10q89 -7 164.5 -31.5t126.5 -58.5t94 -73t75 -77t60 -69.5t58.5 -50.5t62.5 -19zM313 393v2q73 5 139 18t117 32.5t94.5 44.5t73 52.5t52.5 57
t31.5 58.5t11 56.5t-8.5 51.5q-34 80 -120 125t-191 24q-141 -41 -199 -165v-357z" />
    <glyph glyph-name="l" unicode="l" horiz-adv-x="444" 
d="M356 53q49 -49 129 -49h-235q-79 0 -131 49q-49 49 -49 121l-9 1522q0 -40 13.5 -70.5t35.5 -51.5t48 -41.5t52 -47t48 -60t35.5 -88.5t13.5 -125v-1038q0 -72 49 -121z" />
    <glyph glyph-name="m" unicode="m" horiz-adv-x="1841" 
d="M1853 0l-6 -2h-172v2h-67q-68 0 -116 48t-48 116v256q0 226 -68 360t-182 166q-138 41 -309 -65q64 -69 104 -176q39 -100 39 -340v-234q13 -50 45 -82q49 -49 127 -49h-172v2h-67q-67 0 -115.5 48t-48.5 116v256q0 226 -68 360t-182 166q-135 38 -305 -63
q65 -90 65 -242v-473q0 -72 49 -121t129 -49h-235q-79 0 -131 49q-49 49 -49 121l-9 958q0 -44 17.5 -78t40 -53t57.5 -48.5t57 -55.5q103 74 200.5 106.5t178.5 24.5t148 -42t121 -93q111 81 216 113t188 19.5t154 -57t121 -111t82 -148.5q39 -100 39 -340v-234
q9 -48 43 -82q49 -49 129 -49z" />
    <glyph glyph-name="n" unicode="n" horiz-adv-x="1159" 
d="M1204 4v-2h-172v2h-69q-67 0 -115.5 48t-48.5 116v254q0 228 -67 362t-181 166q-137 38 -307 -63q67 -88 67 -242v-473q0 -72 49 -121t127 -49h-235q-77 0 -129 49q-51 48 -51 121l-9 958q0 -57 25 -93t75 -74.5t73 -67.5q110 79 214.5 110t187 18.5t153.5 -57
t120.5 -110t81.5 -147.5q39 -100 39 -342v-232q9 -49 45 -82q49 -49 127 -49z" />
    <glyph glyph-name="o" unicode="o" horiz-adv-x="1062" 
d="M991 707q42 -94 44.5 -195.5t-31 -191.5t-101.5 -165.5t-162 -117.5t-195.5 -44.5t-191 31.5t-165 102.5t-117.5 162.5t-44.5 195.5t31.5 190.5t102.5 164t162.5 117t195 44.5t190.5 -30.5t164.5 -101t117 -162zM737 45q69 32 100 119.5t18 206.5t-69 241
q-85 187 -219.5 285t-240.5 51q-69 -31 -100.5 -118t-18.5 -206.5t69 -242.5q85 -186 220 -284.5t241 -51.5z" />
    <glyph glyph-name="p" unicode="p" horiz-adv-x="1095" 
d="M788 946h-2q166 -55 236 -222q65 -156 24 -341q-40 -181 -160 -289q-150 -134 -357 -88q-76 18 -156 60v-267v-57q0 -70 -13.5 -124.5t-35.5 -88t-48 -59.5t-52 -47t-48 -42t-35.5 -51.5t-13.5 -70.5l2 602v387l-10 10l10 -10v557q0 72 -49 121t-127 49h235q77 0 129 -49
t52 -121v-8q20 16 28 22q12 11 25.5 21t39 27.5t49.5 30t59 27.5t67.5 20.5t73.5 8.5t77 -8zM373 92q194 -76 322 39q98 88 122 251q24 160 -37 290q-66 138 -200 161q-68 12 -148 -10q-31 -15 -63 -47z" />
    <glyph glyph-name="q" unicode="q" horiz-adv-x="1101" 
d="M1149 1012h-2q-92 0 -133 -41q-49 -49 -49 -123l4 -549v0l2 -510q0 -70 -13.5 -125t-35.5 -88.5t-48 -59.5t-52 -46.5t-48 -41.5t-35.5 -51.5t-13.5 -70.5l2 811q-245 -134 -438 -35q-137 70 -208 234q-73 167 -44 342q30 187 165 283q46 33 103 52q48 7 89 6.5t83.5 -14
t74 -27.5t63 -34.5t48.5 -34t31 -25.5q21 -14 33 -26v12q0 73 51 121q52 49 129 49zM725 137v678q-30 33 -68 53q-187 50 -297 -74q-88 -98 -94 -263q-7 -164 69 -285q85 -138 233 -141q74 -2 157 32z" />
    <glyph glyph-name="r" unicode="r" horiz-adv-x="964" 
d="M795 989l-2 -2q107 -36 174 -119l-172 -166h-4q-46 104 -135.5 150.5t-217.5 13.5q-35 -17 -65 -47l8 -450h-2v-62q0 -70 -13.5 -124.5t-35.5 -88t-48 -59.5t-52 -47t-48 -42t-35.5 -51.5t-13.5 -70.5l2 602v422q0 72 -49 121t-127 49h236q80 0 129 -49q51 -48 51 -121
v-8q17 14 31 22q13 12 30 25t48 33t63 34t74.5 27.5t83.5 14t90 -6.5z" />
    <glyph glyph-name="s" unicode="s" horiz-adv-x="1069" 
d="M539 666l-7 2q361 -59 463 -207q34 -63 33.5 -122.5t-22.5 -100.5l-2 -5q-51 -88 -162 -147q2 1 5 3t5 3q-113 -68 -260 -91.5t-306.5 6t-291.5 112.5l135 123l-2 4l2 -4l64 57q65 -108 205.5 -183.5t295.5 -62.5q31 4 86 23q27 9 51 24q65 34 85 78.5t-8.5 86.5
t-98.5 69q-111 44 -248 65q-317 53 -422 195q-14 20 -22 55.5t-3.5 84t22 96t61.5 93.5t110 74q178 66 398 2q149 -48 239 -135.5t90 -173.5h-178q21 54 -14.5 133.5t-122.5 137.5q-77 50 -180 53q-121 10 -224 -29q-53 -20 -82 -54.5t-30.5 -71t25.5 -72.5t79 -58
q95 -41 232 -63z" />
    <glyph glyph-name="t" unicode="t" horiz-adv-x="610" 
d="M414 864h196v-14h-196q8 -36 8 -80v-602q0 -72 49 -121t129 -49h-235q-80 0 -132 49q-49 49 -49 121l-6 680h-184v16h184l-2 391q0 -48 20 -84.5t50.5 -63.5t63 -55.5t62 -76.5t42.5 -111z" />
    <glyph glyph-name="u" unicode="u" horiz-adv-x="1159" 
d="M1085 49l2 -2q49 -49 130 -49h-238q-77 0 -129 49q-34 34 -43 80q-138 -90 -267.5 -114t-225.5 11.5t-161.5 120.5t-84.5 207q-4 27 -7 87.5t-3 107.5l-1 47l-4 532q0 -40 13.5 -70.5t35.5 -51.5t48 -41.5t52 -46.5t48 -59.5t35.5 -88.5t13.5 -125v-16
q-8 -115 1.5 -204.5t31 -146.5t57 -97.5t72 -60.5t84.5 -34q106 -30 256 55q-2 10 -2 29l-8 958q0 -40 13.5 -70.5t35 -51.5t48 -41.5t52.5 -46.5t47.5 -59.5t35 -88.5t13.5 -125v-473q0 -72 49 -121z" />
    <glyph glyph-name="v" unicode="v" horiz-adv-x="1075" 
d="M1069 1016l10 -4l-516 -1012l-6 4v-2l-4 2v2q-49 78 -130 173t-147 172.5t-129.5 174t-100 219.5t-36.5 267h10h236q-4 -106 19 -200t61 -160t88 -129t95 -107t87.5 -93.5t61.5 -89.5z" />
    <glyph glyph-name="w" unicode="w" horiz-adv-x="1849" 
d="M1845 1016l13 -8l-517 -1010l-6 4v-2l-4 2v2q-44 71 -112 154.5t-125.5 146.5t-120.5 149.5t-103 170.5l-305 -629l-6 4v-2l-6 2l2 4q-42 68 -107 147t-121 139.5t-116 141.5t-102 160t-69.5 187.5t-27.5 230.5h11h235q-3 -91 13 -172.5t45.5 -144t67 -117t80 -100.5
t80 -84.5t72 -79t52.5 -74.5l194 403v4l166 367h6q-4 -106 19 -200t61 -160t88 -129t95 -107t87.5 -93.5t61.5 -89.5z" />
    <glyph glyph-name="x" unicode="x" horiz-adv-x="1024" 
d="M586 590q162 -108 227 -165q168 -148 191 -330q4 -31 4 -64h-252q0 57 -17.5 108.5t-44 91t-71 81.5t-83 71t-96.5 68l-417 -414l-11 10l416 412q-157 107 -214 154q-166 141 -198 307q-8 43 -8 90h8h232q0 -55 18.5 -105t45 -88t73.5 -80t85.5 -70t100.5 -69l429 422
l8 -10z" />
    <glyph glyph-name="y" unicode="y" horiz-adv-x="1073" 
d="M1069 1016l10 -12l-487 -955q-69 -180 -139.5 -304t-138.5 -191t-139 -87.5t-138.5 1.5t-138.5 83q-39 52 -41.5 107t26.5 103.5t79 93t119 79t144.5 59t157 34.5t154.5 4q-48 73 -129 166.5t-143.5 168.5t-124 170.5t-96 215.5t-34.5 260h10h236q-4 -106 19 -200
t61 -160t88 -129t95 -107t87.5 -93.5t61.5 -89.5zM184 -426v-2q45 -7 87 11.5t75.5 52t71.5 95.5t66.5 120t68.5 147l-2 2l2 4q-3 4 -8 12.5t-8 12.5q-156 4 -290.5 -40t-202 -118.5t-38.5 -153.5q22 -58 69.5 -96t108.5 -47z" />
    <glyph glyph-name="z" unicode="z" horiz-adv-x="1024" 
d="M913 1008h-2q52 10 99 10v-8v-246q-70 0 -132.5 -28t-110 -74t-96 -106.5t-90 -125t-92.5 -129t-102.5 -118.5t-121 -95t-146.5 -57l870 -8v-15l-971 10v15h2v256q79 0 148.5 32t123.5 86t104 119.5t100.5 137t102 135t120 116.5t143.5 78l-844 8v15z" />
    <glyph glyph-name="braceleft" unicode="{" horiz-adv-x="1036" 
d="M743 1749l2 -6h224h-25h-121q-115 0 -196.5 -78t-81.5 -188v-424q-10 -89 -69 -134.5t-148 -50.5h-6v0h-7h9q85 -5 144 -46.5t73 -121.5v-430q0 -99 67 -178t166 -96h-35h-170q-114 0 -196 83.5t-82 194.5v431q-14 80 -72 121t-143 46h-8h4v0h6q91 6 150 51t69 134v424
q0 110 81 189t195 79h170z" />
    <glyph glyph-name="braceright" unicode="}" horiz-adv-x="1036" 
d="M967 872l2 2h-8q-85 -5 -143.5 -45.5t-74.5 -121.5v-431q0 -111 -81.5 -194.5t-194.5 -83.5h-170h-37q100 17 168 96t68 178v428q14 82 72 123.5t143 46.5h8h-4v0h-6q-91 5 -150.5 50t-69.5 133v426q0 110 -81 188t-195 78h-121h-24h223v2h170q114 0 195 -79t81 -189
v-424q10 -89 68.5 -133.5t148.5 -49.5h9v0h4z" />
    <glyph glyph-name="nonbreakingspace" unicode="&#xa0;" horiz-adv-x="505" 
 />
    <glyph glyph-name="softhyphen" unicode="&#xad;" horiz-adv-x="0" 
 />
    <glyph glyph-name="Agrave" unicode="&#xc0;" 
d="M823 1843v-12q-62 11 -107.5 23.5t-91.5 34.5t-74 50.5t-43.5 73t-10.5 101.5l174 36l6 -6q-26 -115 17.5 -203.5t129.5 -97.5zM659 858zM782 1700l566 -1698h-248l-125 377h-813l-180 -383l-13 6l183 387v6h2l479 1018l-96 287h245zM168 391h803l-334 998z" />
    <glyph glyph-name="Aacute" unicode="&#xc1;" 
d="M537 1831v12q85 9 128.5 97.5t18.5 203.5l4 6l174 -36q5 -57 -10.5 -101.5t-43 -73t-73.5 -50.5t-91 -34.5t-107 -23.5zM659 858zM782 1700l566 -1698h-248l-125 377h-813l-180 -383l-13 6l183 387v6h2l479 1018l-96 287h245zM168 391h803l-334 998z" />
    <glyph glyph-name="Acircumflex" unicode="&#xc2;" 
d="M983 1815q-244 -21 -285 262q-8 -61 -25 -106.5t-48.5 -84.5t-84.5 -57t-126 -14l-21 147l4 2q65 -19 130 -7.5t114 58.5t51 109h10q3 -62 52 -109t114 -58.5t131 7.5l5 -2zM659 858zM782 1700l566 -1698h-248l-125 377h-813l-180 -383l-13 6l183 387v6h2l479 1018
l-96 287h245zM168 391h803l-334 998z" />
    <glyph glyph-name="Atilde" unicode="&#xc3;" 
d="M360 1970q49 46 105 52t103 -14.5t104 -63.5q56 -22 125.5 5t126.5 93l6 -2l67 -144q-51 -47 -106 -54t-102 14t-105 65q-54 23 -123.5 -3.5t-126.5 -92.5l-4 2zM659 858zM782 1700l566 -1698h-248l-125 377h-813l-180 -383l-13 6l183 387v6h2l479 1018l-96 287h245z
M168 391h803l-334 998z" />
    <glyph glyph-name="Egrave" unicode="&#xc8;" horiz-adv-x="1454" 
d="M889 1843v-12q-62 11 -107.5 23.5t-92 34.5t-74.5 50.5t-43.5 73t-10.5 101.5l174 36l6 -6q-26 -115 17.5 -203.5t130.5 -97.5zM1464 1686h-1134v-828h1134v-14h-1134v-828h1134v-14h-1382v2v1696h248h1134v-14z" />
    <glyph glyph-name="Eacute" unicode="&#xc9;" horiz-adv-x="1454" 
d="M668 1831v12q85 9 128.5 97.5t18.5 203.5l4 6l174 -36q5 -57 -10.5 -101.5t-43 -73t-73.5 -50.5t-91 -34.5t-107 -23.5zM1464 1686h-1134v-828h1134v-14h-1134v-828h1134v-14h-1382v2v1696h248h1134v-14z" />
    <glyph glyph-name="Ecircumflex" unicode="&#xca;" horiz-adv-x="1454" 
d="M1077 1815q-243 -21 -284 262q-7 -60 -24.5 -106.5t-49 -84.5t-85 -56.5t-126.5 -14.5l-21 147l5 2q47 -19 98 -12.5t94.5 27t72.5 59.5t31 86h11q2 -62 51 -109t114 -58.5t130 7.5l4 -2zM1464 1686h-1134v-828h1134v-14h-1134v-828h1134v-14h-1382v2v1696h248h1134v-14z
" />
    <glyph glyph-name="Igrave" unicode="&#xcc;" horiz-adv-x="413" 
d="M348 1843v-12q-62 11 -107.5 23.5t-92 34.5t-74.5 50.5t-43.5 73t-10.5 101.5l175 36l6 -6q-26 -115 17.5 -203.5t129.5 -97.5zM330 4h-248v1698h248v-1698z" />
    <glyph glyph-name="Iacute" unicode="&#xcd;" horiz-adv-x="413" 
d="M61 1831v12q85 9 129 97.5t19 203.5l4 6l174 -36q5 -57 -10.5 -101.5t-43.5 -73t-74 -50.5t-91 -34.5t-107 -23.5zM330 4h-248v1698h248v-1698z" />
    <glyph glyph-name="Ograve" unicode="&#xd2;" horiz-adv-x="1748" 
d="M1020 1843v-12q-62 11 -107.5 23.5t-92 34.5t-74.5 50.5t-43.5 73t-10.5 101.5l174 36l6 -6q-26 -115 17.5 -203.5t130.5 -97.5zM874 1714q174 0 333 -68t274.5 -182.5t183.5 -273.5t68 -334q0 -174 -68 -332.5t-183.5 -273t-274.5 -182.5t-333 -68t-332.5 68t-273 182.5
t-182.5 273t-68 332.5q0 175 67.5 334t182.5 273.5t273.5 182.5t332.5 68zM1155 63q115 42 198 142t121 233t30.5 295.5t-64.5 323.5q-77 215 -217.5 371t-308 216t-320.5 5q-92 -33 -164.5 -104t-116.5 -169t-62 -214t-4 -247t60 -260q77 -215 217.5 -371t308.5 -216
t322 -5z" />
    <glyph glyph-name="Oacute" unicode="&#xd3;" horiz-adv-x="1748" 
d="M750 1831v12q85 9 128.5 97.5t18.5 203.5l4 6l174 -36q5 -57 -10.5 -101.5t-43 -73t-73.5 -50.5t-91 -34.5t-107 -23.5zM874 1714q174 0 333 -68t274.5 -182.5t183.5 -273.5t68 -334q0 -174 -68 -332.5t-183.5 -273t-274.5 -182.5t-333 -68t-332.5 68t-273 182.5
t-182.5 273t-68 332.5q0 175 67.5 334t182.5 273.5t273.5 182.5t332.5 68zM1155 63q115 42 198 142t121 233t30.5 295.5t-64.5 323.5q-77 215 -217.5 371t-308 216t-320.5 5q-92 -33 -164.5 -104t-116.5 -169t-62 -214t-4 -247t60 -260q77 -215 217.5 -371t308.5 -216
t322 -5z" />
    <glyph glyph-name="Ocircumflex" unicode="&#xd4;" horiz-adv-x="1748" 
d="M1159 1815q-244 -21 -285 262q-7 -60 -24 -106.5t-48.5 -84.5t-85 -56.5t-126.5 -14.5l-21 147l4 2q66 -19 131 -7.5t114 58.5t52 109h11q2 -62 51 -109t114 -58.5t130 7.5l4 -2zM874 1714q174 0 333 -68t274.5 -182.5t183.5 -273.5t68 -334q0 -174 -68 -332.5
t-183.5 -273t-274.5 -182.5t-333 -68t-332.5 68t-273 182.5t-182.5 273t-68 332.5q0 175 67.5 334t182.5 273.5t273.5 182.5t332.5 68zM1155 63q115 42 198 142t121 233t30.5 295.5t-64.5 323.5q-77 215 -217.5 371t-308 216t-320.5 5q-92 -33 -164.5 -104t-116.5 -169
t-62 -214t-4 -247t60 -260q77 -215 217.5 -371t308.5 -216t322 -5z" />
    <glyph glyph-name="Otilde" unicode="&#xd5;" horiz-adv-x="1748" 
d="M557 1970q49 46 105 52t102.5 -14.5t103.5 -63.5q56 -22 125.5 5t126.5 93l6 -2l68 -144q-51 -47 -106 -54t-102 14t-105 65q-54 23 -123.5 -3.5t-126.5 -92.5l-4 2zM874 1714q174 0 333 -68t274.5 -182.5t183.5 -273.5t68 -334q0 -174 -68 -332.5t-183.5 -273
t-274.5 -182.5t-333 -68t-332.5 68t-273 182.5t-182.5 273t-68 332.5q0 175 67.5 334t182.5 273.5t273.5 182.5t332.5 68zM1155 63q115 42 198 142t121 233t30.5 295.5t-64.5 323.5q-77 215 -217.5 371t-308 216t-320.5 5q-92 -33 -164.5 -104t-116.5 -169t-62 -214t-4 -247
t60 -260q77 -215 217.5 -371t308.5 -216t322 -5z" />
    <glyph glyph-name="Ugrave" unicode="&#xd9;" horiz-adv-x="1732" 
d="M1085 1843v-12q-62 11 -107.5 23.5t-91.5 34.5t-74 50.5t-43.5 73t-10.5 101.5l174 36l6 -6q-26 -115 17.5 -203.5t129.5 -97.5zM1681 823q0 -22 -4.5 -66t-30.5 -147t-71 -192q-30 -60 -68.5 -112.5t-99.5 -108.5t-134.5 -97t-176.5 -69.5t-222 -34.5h-22
q-119 6 -222 34.5t-176 69.5t-134 97t-99.5 108.5t-68.5 112.5q-44 89 -69 192.5t-28.5 144t-3.5 60.5v10v887h254v-905q0 -196 88 -400t217 -303q81 -49 154 -72t106 -22l33 2q112 7 209 36t166 68.5t127 93.5t94.5 104.5t65.5 107.5q28 55 49 115.5t30.5 105t15 87.5
t6.5 58.5t1 22.5v2v2v895h14v-887z" />
    <glyph glyph-name="Uacute" unicode="&#xda;" horiz-adv-x="1732" 
d="M782 1831v12q85 9 129 97.5t19 203.5l4 6l174 -36q5 -57 -10.5 -101.5t-43.5 -73t-74 -50.5t-91 -34.5t-107 -23.5zM1681 823q0 -22 -4.5 -66t-30.5 -147t-71 -192q-30 -60 -68.5 -112.5t-99.5 -108.5t-134.5 -97t-176.5 -69.5t-222 -34.5h-22q-119 6 -222 34.5
t-176 69.5t-134 97t-99.5 108.5t-68.5 112.5q-44 89 -69 192.5t-28.5 144t-3.5 60.5v10v887h254v-905q0 -196 88 -400t217 -303q81 -49 154 -72t106 -22l33 2q112 7 209 36t166 68.5t127 93.5t94.5 104.5t65.5 107.5q28 55 49 115.5t30.5 105t15 87.5t6.5 58.5t1 22.5v2v2
v895h14v-887z" />
    <glyph glyph-name="Yacute" unicode="&#xdd;" horiz-adv-x="1830" 
d="M913 1831v12q85 9 129 97.5t19 203.5l4 6l174 -36q5 -57 -10.5 -101.5t-43.5 -73t-74 -50.5t-91 -34.5t-107 -23.5zM1860 1698l-682 -1446l161 -254h-282l-357 -754l-12 6l356 756l-1081 1690h291l913 -1430l680 1438z" />
    <glyph glyph-name="germandbls" unicode="&#xdf;" horiz-adv-x="1363" 
 />
    <glyph glyph-name="agrave" unicode="&#xe0;" horiz-adv-x="1083" 
d="M666 1139v-13q-62 11 -107.5 23.5t-91.5 34.5t-73.5 50.5t-43 73t-10.5 101.5l172 37l6 -6q-26 -115 18.5 -203.5t129.5 -97.5zM1012 43h-2q49 -49 127 -49h-236q-77 0 -129 49q-51 48 -51 121l6 567q-16 -97 -207 -156q-162 -57 -230 -177q-56 -100 -22 -190
q33 -87 133 -112q63 -15 144 0q-14 -7 -37 -18t-87.5 -35.5t-120 -38t-117.5 -12.5t-97 28q-28 24 -46 55.5t-24 68t-1.5 76.5t23.5 80.5t48 79t74.5 74.5t101 65.5t129.5 51.5t158 33q53 11 90.5 34t52.5 48t22.5 48.5t7.5 38.5l-1 15q0 41 -14.5 86.5t-38.5 69.5
q-47 42 -144 45q-50 -2 -92.5 -21t-70.5 -47t-48.5 -62t-30 -65.5t-10.5 -58.5l-133 47q22 93 158.5 160.5t282.5 61.5q106 -3 198 -49.5t140 -135.5q45 -70 45 -153v-502q0 -72 49 -121z" />
    <glyph glyph-name="aacute" unicode="&#xe1;" horiz-adv-x="1083" 
d="M504 1126v13q85 9 128.5 97.5t18.5 203.5l4 6l174 -37q5 -57 -10.5 -101.5t-43 -73t-73.5 -50.5t-91 -34.5t-107 -23.5zM1012 43h-2q49 -49 127 -49h-236q-77 0 -129 49q-51 48 -51 121l6 567q-16 -97 -207 -156q-162 -57 -230 -177q-56 -100 -22 -190q33 -87 133 -112
q63 -15 144 0q-14 -7 -37 -18t-87.5 -35.5t-120 -38t-117.5 -12.5t-97 28q-28 24 -46 55.5t-24 68t-1.5 76.5t23.5 80.5t48 79t74.5 74.5t101 65.5t129.5 51.5t158 33q53 11 90.5 34t52.5 48t22.5 48.5t7.5 38.5l-1 15q0 41 -14.5 86.5t-38.5 69.5q-47 42 -144 45
q-50 -2 -92.5 -21t-70.5 -47t-48.5 -62t-30 -65.5t-10.5 -58.5l-133 47q22 93 158.5 160.5t282.5 61.5q106 -3 198 -49.5t140 -135.5q45 -70 45 -153v-502q0 -72 49 -121z" />
    <glyph glyph-name="acircumflex" unicode="&#xe2;" horiz-adv-x="1083" 
d="M1012 43h-2q49 -49 127 -49h-236q-77 0 -129 49q-51 48 -51 121l6 567q-16 -97 -207 -156q-162 -57 -230 -177q-56 -100 -22 -190q33 -87 133 -112q63 -15 144 0q-14 -7 -37 -18t-87.5 -35.5t-120 -38t-117.5 -12.5t-97 28q-28 24 -46 55.5t-24 68t-1.5 76.5t23.5 80.5
t48 79t74.5 74.5t101 65.5t129.5 51.5t158 33q53 11 90.5 34t52.5 48t22.5 48.5t7.5 38.5l-1 15q0 41 -14.5 86.5t-38.5 69.5q-47 42 -144 45q-50 -2 -92.5 -21t-70.5 -47t-48.5 -62t-30 -65.5t-10.5 -58.5l-133 47q22 93 158.5 160.5t282.5 61.5q106 -3 198 -49.5
t140 -135.5q45 -70 45 -153v-502q0 -72 49 -121zM829 1110q-243 -21 -284 262q-6 -48 -17.5 -86.5t-33.5 -74t-53 -58t-77.5 -34.5t-105.5 -9l-18 147l2 3q47 -19 98.5 -12.5t95 26.5t73 59t30.5 86h10q1 -47 30.5 -86t73 -59t95 -26.5t98.5 12.5l2 -3z" />
    <glyph glyph-name="atilde" unicode="&#xe3;" horiz-adv-x="1083" 
d="M229 1249q49 46 105 52t103 -14.5t104 -63.5q56 -22 125.5 5t126.5 93l6 -2l67 -143q-51 -47 -106 -54t-102.5 13.5t-104.5 64.5q-54 23 -123.5 -3.5t-126.5 -92.5l-4 2zM1012 43h-2q49 -49 127 -49h-236q-77 0 -129 49q-51 48 -51 121l6 567q-16 -97 -207 -156
q-162 -57 -230 -177q-56 -100 -22 -190q33 -87 133 -112q63 -15 144 0q-14 -7 -37 -18t-87.5 -35.5t-120 -38t-117.5 -12.5t-97 28q-28 24 -46 55.5t-24 68t-1.5 76.5t23.5 80.5t48 79t74.5 74.5t101 65.5t129.5 51.5t158 33q53 11 90.5 34t52.5 48t22.5 48.5t7.5 38.5
l-1 15q0 41 -14.5 86.5t-38.5 69.5q-47 42 -144 45q-50 -2 -92.5 -21t-70.5 -47t-48.5 -62t-30 -65.5t-10.5 -58.5l-133 47q22 93 158.5 160.5t282.5 61.5q106 -3 198 -49.5t140 -135.5q45 -70 45 -153v-502q0 -72 49 -121z" />
    <glyph glyph-name="egrave" unicode="&#xe8;" horiz-adv-x="989" 
d="M666 1139v-13q-62 11 -107.5 23.5t-91.5 34.5t-73.5 50.5t-43 73t-10.5 101.5l172 37l6 -6q-26 -115 18.5 -203.5t129.5 -97.5zM639 483h4q-46 -47 -71 -70.5t-66 -55t-82 -47t-86 -19.5q89 -142 201 -208.5t202 -27.5q101 46 117 205l31 -110q-63 -64 -146 -101
q-94 -42 -195.5 -44.5t-190.5 31t-164 101.5t-117 162t-44.5 195.5t31 191.5t101.5 165.5t162 117.5q127 53 250.5 43.5t233 -81t171.5 -186.5h-2l6 -12q-25 -9 -80 -35l-119 -77q-41 -32 -147 -138zM330 303l-4 -2q37 2 72.5 15t61.5 27t61 44t54 48.5t58 58.5
q94 94 151 139q-57 119 -137 204.5t-164 118t-151 2.5q-69 -31 -100.5 -118t-18 -206.5t69.5 -242.5q7 -15 47 -88z" />
    <glyph glyph-name="eacute" unicode="&#xe9;" horiz-adv-x="989" 
d="M406 1126v13q85 9 128.5 97.5t18.5 203.5l4 6l174 -37q5 -57 -10.5 -101.5t-43 -73t-73.5 -50.5t-91 -34.5t-107 -23.5zM639 483h4q-46 -47 -71 -70.5t-66 -55t-82 -47t-86 -19.5q89 -142 201 -208.5t202 -27.5q101 46 117 205l31 -110q-63 -64 -146 -101
q-94 -42 -195.5 -44.5t-190.5 31t-164 101.5t-117 162t-44.5 195.5t31 191.5t101.5 165.5t162 117.5q127 53 250.5 43.5t233 -81t171.5 -186.5h-2l6 -12q-25 -9 -80 -35l-119 -77q-41 -32 -147 -138zM330 303l-4 -2q37 2 72.5 15t61.5 27t61 44t54 48.5t58 58.5
q94 94 151 139q-57 119 -137 204.5t-164 118t-151 2.5q-69 -31 -100.5 -118t-18 -206.5t69.5 -242.5q7 -15 47 -88z" />
    <glyph glyph-name="ecircumflex" unicode="&#xea;" horiz-adv-x="989" 
d="M797 1110q-244 -21 -285 262q-6 -48 -17.5 -86.5t-33.5 -74t-53 -58t-77.5 -34.5t-105.5 -9l-18 147l2 3q47 -19 98.5 -12.5t95 26.5t73 59t30.5 86h10q1 -47 30.5 -86t73 -59t95 -26.5t98.5 12.5l2 -3zM639 483h4q-46 -47 -71 -70.5t-66 -55t-82 -47t-86 -19.5
q89 -142 201 -208.5t202 -27.5q101 46 117 205l31 -110q-63 -64 -146 -101q-94 -42 -195.5 -44.5t-190.5 31t-164 101.5t-117 162t-44.5 195.5t31 191.5t101.5 165.5t162 117.5q127 53 250.5 43.5t233 -81t171.5 -186.5h-2l6 -12q-25 -9 -80 -35l-119 -77q-41 -32 -147 -138
zM330 303l-4 -2q37 2 72.5 15t61.5 27t61 44t54 48.5t58 58.5q94 94 151 139q-57 119 -137 204.5t-164 118t-151 2.5q-69 -31 -100.5 -118t-18 -206.5t69.5 -242.5q7 -15 47 -88z" />
    <glyph glyph-name="igrave" unicode="&#xec;" horiz-adv-x="442" 
d="M356 53l2 -2q49 -49 129 -49h-237q-77 0 -129 49q-51 48 -51 121l-9 944q0 -40 13.5 -70.5t35.5 -51.5t48 -41.5t52 -46.5t48 -59.5t35.5 -88.5t13.5 -125v-459q0 -72 49 -121zM338 1139v-13q-62 11 -107.5 23.5t-91.5 34.5t-73.5 50.5t-43 73t-10.5 101.5l172 37l6 -6
q-26 -115 18.5 -203.5t129.5 -97.5z" />
    <glyph glyph-name="iacute" unicode="&#xed;" horiz-adv-x="442" 
d="M356 53l2 -2q49 -49 129 -49h-237q-77 0 -129 49q-51 48 -51 121l-9 944q0 -40 13.5 -70.5t35.5 -51.5t48 -41.5t52 -46.5t48 -59.5t35.5 -88.5t13.5 -125v-459q0 -72 49 -121zM45 1126v13q85 9 129 97.5t19 203.5l4 6l174 -37q5 -57 -10.5 -101.5t-43.5 -73t-74 -50.5
t-91 -34.5t-107 -23.5z" />
    <glyph glyph-name="ograve" unicode="&#xf2;" horiz-adv-x="1062" 
d="M666 1139v-13q-62 11 -107.5 23.5t-91.5 34.5t-73.5 50.5t-43 73t-10.5 101.5l172 37l6 -6q-26 -115 18.5 -203.5t129.5 -97.5zM991 707q42 -94 44.5 -195.5t-31 -191.5t-101.5 -165.5t-162 -117.5t-195.5 -44.5t-191 31.5t-165 102.5t-117.5 162.5t-44.5 195.5
t31.5 190.5t102.5 164t162.5 117t195 44.5t190.5 -30.5t164.5 -101t117 -162zM737 45q69 32 100 119.5t18 206.5t-69 241q-85 187 -219.5 285t-240.5 51q-69 -31 -100.5 -118t-18.5 -206.5t69 -242.5q85 -186 220 -284.5t241 -51.5z" />
    <glyph glyph-name="oacute" unicode="&#xf3;" horiz-adv-x="1062" 
d="M438 1126v13q85 9 129 97.5t19 203.5l4 6l174 -37q5 -57 -10.5 -101.5t-43.5 -73t-74 -50.5t-91 -34.5t-107 -23.5zM991 707q42 -94 44.5 -195.5t-31 -191.5t-101.5 -165.5t-162 -117.5t-195.5 -44.5t-191 31.5t-165 102.5t-117.5 162.5t-44.5 195.5t31.5 190.5
t102.5 164t162.5 117t195 44.5t190.5 -30.5t164.5 -101t117 -162zM737 45q69 32 100 119.5t18 206.5t-69 241q-85 187 -219.5 285t-240.5 51q-69 -31 -100.5 -118t-18.5 -206.5t69 -242.5q85 -186 220 -284.5t241 -51.5z" />
    <glyph glyph-name="ocircumflex" unicode="&#xf4;" horiz-adv-x="1062" 
d="M815 1110q-244 -21 -285 262q-7 -60 -24 -106.5t-48.5 -84.5t-85 -56.5t-126.5 -14.5l-21 147l4 3q47 -19 98.5 -12.5t94.5 27t72.5 59t31.5 85.5h11q1 -47 30 -86t72.5 -59t94.5 -26.5t97 12.5l5 -3zM991 707q42 -94 44.5 -195.5t-31 -191.5t-101.5 -165.5t-162 -117.5
t-195.5 -44.5t-191 31.5t-165 102.5t-117.5 162.5t-44.5 195.5t31.5 190.5t102.5 164t162.5 117t195 44.5t190.5 -30.5t164.5 -101t117 -162zM737 45q69 32 100 119.5t18 206.5t-69 241q-85 187 -219.5 285t-240.5 51q-69 -31 -100.5 -118t-18.5 -206.5t69 -242.5
q85 -186 220 -284.5t241 -51.5z" />
    <glyph glyph-name="otilde" unicode="&#xf5;" horiz-adv-x="1062" 
d="M213 1249q49 46 105 52t102.5 -14.5t103.5 -63.5q56 -22 125.5 5t126.5 93l6 -2l68 -143q-51 -47 -106 -54t-102.5 13.5t-104.5 64.5q-54 23 -123.5 -3.5t-126.5 -92.5l-4 2zM991 707q42 -94 44.5 -195.5t-31 -191.5t-101.5 -165.5t-162 -117.5t-195.5 -44.5t-191 31.5
t-165 102.5t-117.5 162.5t-44.5 195.5t31.5 190.5t102.5 164t162.5 117t195 44.5t190.5 -30.5t164.5 -101t117 -162zM737 45q69 32 100 119.5t18 206.5t-69 241q-85 187 -219.5 285t-240.5 51q-69 -31 -100.5 -118t-18.5 -206.5t69 -242.5q85 -186 220 -284.5t241 -51.5z
" />
    <glyph glyph-name="ugrave" unicode="&#xf9;" horiz-adv-x="1159" 
d="M649 1139v-13q-79 14 -133 31.5t-103.5 48.5t-72 82t-16.5 121l172 37l6 -6q-26 -115 18 -203.5t129 -97.5zM1085 49l2 -2q49 -49 130 -49h-238q-77 0 -129 49q-34 34 -43 80q-138 -90 -267.5 -114t-225.5 11.5t-161.5 120.5t-84.5 207q-4 27 -7 87.5t-3 107.5l-1 47
l-4 532q0 -40 13.5 -70.5t35.5 -51.5t48 -41.5t52 -46.5t48 -59.5t35.5 -88.5t13.5 -125v-16q-8 -115 1.5 -204.5t31 -146.5t57 -97.5t72 -60.5t84.5 -34q106 -30 256 55q-2 10 -2 29l-8 958q0 -40 13.5 -70.5t35 -51.5t48 -41.5t52.5 -46.5t47.5 -59.5t35 -88.5t13.5 -125
v-473q0 -72 49 -121z" />
    <glyph glyph-name="uacute" unicode="&#xfa;" horiz-adv-x="1159" 
d="M389 1126v13q85 9 129 97.5t19 203.5l4 6l174 -37q5 -57 -10.5 -101.5t-43.5 -73t-74 -50.5t-91 -34.5t-107 -23.5zM1085 49l2 -2q49 -49 130 -49h-238q-77 0 -129 49q-34 34 -43 80q-138 -90 -267.5 -114t-225.5 11.5t-161.5 120.5t-84.5 207q-4 27 -7 87.5t-3 107.5
l-1 47l-4 532q0 -40 13.5 -70.5t35.5 -51.5t48 -41.5t52 -46.5t48 -59.5t35.5 -88.5t13.5 -125v-16q-8 -115 1.5 -204.5t31 -146.5t57 -97.5t72 -60.5t84.5 -34q106 -30 256 55q-2 10 -2 29l-8 958q0 -40 13.5 -70.5t35 -51.5t48 -41.5t52.5 -46.5t47.5 -59.5t35 -88.5
t13.5 -125v-473q0 -72 49 -121z" />
    <glyph glyph-name="yacute" unicode="&#xfd;" horiz-adv-x="1073" 
d="M438 1126v13q85 9 129 97.5t19 203.5l4 6l174 -37q5 -57 -10.5 -101.5t-43.5 -73t-74 -50.5t-91 -34.5t-107 -23.5zM1069 1016l10 -12l-487 -955q-69 -180 -139.5 -304t-138.5 -191t-139 -87.5t-138.5 1.5t-138.5 83q-39 52 -41.5 107t26.5 103.5t79 93t119 79t144.5 59
t157 34.5t154.5 4q-48 73 -129 166.5t-143.5 168.5t-124 170.5t-96 215.5t-34.5 260h10h236q-4 -106 19 -200t61 -160t88 -129t95 -107t87.5 -93.5t61.5 -89.5zM184 -426v-2q45 -7 87 11.5t75.5 52t71.5 95.5t66.5 120t68.5 147l-2 2l2 4q-3 4 -8 12.5t-8 12.5
q-156 4 -290.5 -40t-202 -118.5t-38.5 -153.5q22 -58 69.5 -96t108.5 -47z" />
    <glyph glyph-name="Abreve" unicode="&#x102;" 
d="M838 2028l141 -43q-22 -187 -272 -187q-57 0 -101 8t-83 27.5t-62.5 57.5t-30.5 94l143 43l5 -3q-14 -77 22.5 -136t106.5 -74q69 17 103.5 76t20.5 134zM659 858zM782 1700l566 -1698h-248l-125 377h-813l-180 -383l-13 6l183 387v6h2l479 1018l-96 287h245zM168 391
h803l-334 998z" />
    <glyph glyph-name="abreve" unicode="&#x103;" horiz-adv-x="1083" 
d="M680 1323l143 -43q-21 -186 -274 -186q-45 0 -81.5 4.5t-71.5 17t-59.5 32.5t-41 53.5t-21.5 78.5l142 43l6 -2q-15 -77 21 -136.5t106 -74.5q69 17 104 76.5t23 134.5zM1012 43h-2q49 -49 127 -49h-236q-77 0 -129 49q-51 48 -51 121l6 567q-16 -97 -207 -156
q-162 -57 -230 -177q-56 -100 -22 -190q33 -87 133 -112q63 -15 144 0q-14 -7 -37 -18t-87.5 -35.5t-120 -38t-117.5 -12.5t-97 28q-28 24 -46 55.5t-24 68t-1.5 76.5t23.5 80.5t48 79t74.5 74.5t101 65.5t129.5 51.5t158 33q53 11 90.5 34t52.5 48t22.5 48.5t7.5 38.5
l-1 15q0 41 -14.5 86.5t-38.5 69.5q-47 42 -144 45q-50 -2 -92.5 -21t-70.5 -47t-48.5 -62t-30 -65.5t-10.5 -58.5l-133 47q22 93 158.5 160.5t282.5 61.5q106 -3 198 -49.5t140 -135.5q45 -70 45 -153v-502q0 -72 49 -121z" />
    <glyph glyph-name="Dcroat" unicode="&#x110;" horiz-adv-x="1507" 
d="M662 1700h2q169 -5 322 -74.5t264 -183t176 -268.5t65 -326q0 -227 -110.5 -420t-300.5 -308t-416 -122h-582v848h-160v16h160v838h580zM639 12q122 0 232 66t190 178t127 266.5t47 325.5q0 227 -79.5 419t-217 304t-299.5 112h-4h-303v-821h459v-16h-459v-834h303h4z
" />
    <glyph glyph-name="dcroat" unicode="&#x111;" horiz-adv-x="1099" 
d="M1012 53v-4q46 -46 116 -49h-223q-79 0 -131 49q-49 49 -49 121v8q-17 -14 -31 -22q-12 -11 -25.5 -21t-38.5 -27.5t-49.5 -30t-59.5 -27.5t-67 -20.5t-72.5 -8.5t-76.5 8q-167 55 -237 223q-65 156 -24 341q40 180 159 288q150 135 357 88q78 -17 159 -60l-2 232h-320
v16h320v537q0 -40 13.5 -70.5t35.5 -51.5t48 -41.5t52 -47t48 -60t35.5 -88.5t13.5 -125v-53h155v-16h-155v-967q0 -72 49 -121zM659 152l3 -2q39 19 63 49l-2 684q-195 76 -324 -39q-98 -88 -123 -249q-25 -160 35 -289q64 -139 196 -163q69 -13 152 9z" />
    <glyph glyph-name="Itilde" unicode="&#x128;" horiz-adv-x="413" 
d="M-115 1970q49 46 105 52t103 -14.5t104 -63.5q56 -22 125.5 5t126.5 93l6 -2l67 -144q-51 -47 -106 -54t-102 14t-105 65q-54 23 -123.5 -3.5t-126.5 -92.5l-4 2zM330 4h-248v1698h248v-1698z" />
    <glyph glyph-name="itilde" unicode="&#x129;" horiz-adv-x="442" 
d="M356 53l2 -2q49 -49 129 -49h-237q-77 0 -129 49q-51 48 -51 121l-9 944q0 -40 13.5 -70.5t35.5 -51.5t48 -41.5t52 -46.5t48 -59.5t35.5 -88.5t13.5 -125v-459q0 -72 49 -121zM-180 1266q49 46 105 51.5t102.5 -15t103.5 -63.5q56 -22 125.5 5t126.5 93l6 -2l68 -143
q-51 -47 -106.5 -54t-102.5 14t-105 65q-54 23 -123 -4t-126 -93l-5 2z" />
    <glyph glyph-name="Utilde" unicode="&#x168;" horiz-adv-x="1732" 
d="M606 1970q49 46 105 52t103 -14.5t104 -63.5q56 -22 125 5t126 93l7 -2l67 -144q-51 -47 -106 -54t-102 14t-105 65q-54 23 -123.5 -3.5t-126.5 -92.5l-4 2zM1681 823q0 -22 -4.5 -66t-30.5 -147t-71 -192q-30 -60 -68.5 -112.5t-99.5 -108.5t-134.5 -97t-176.5 -69.5
t-222 -34.5h-22q-119 6 -222 34.5t-176 69.5t-134 97t-99.5 108.5t-68.5 112.5q-44 89 -69 192.5t-28.5 144t-3.5 60.5v10v887h254v-905q0 -196 88 -400t217 -303q81 -49 154 -72t106 -22l33 2q112 7 209 36t166 68.5t127 93.5t94.5 104.5t65.5 107.5q28 55 49 115.5
t30.5 105t15 87.5t6.5 58.5t1 22.5v2v2v895h14v-887z" />
    <glyph glyph-name="utilde" unicode="&#x169;" horiz-adv-x="1159" 
d="M164 1282q49 46 105 51.5t102.5 -15t103.5 -63.5q56 -22 125.5 5.5t126.5 93.5l6 -2l68 -144q-51 -47 -106.5 -54t-102.5 14t-105 65q-54 23 -123 -3.5t-126 -92.5l-5 2zM1085 49l2 -2q49 -49 130 -49h-238q-77 0 -129 49q-34 34 -43 80q-138 -90 -267.5 -114
t-225.5 11.5t-161.5 120.5t-84.5 207q-4 27 -7 87.5t-3 107.5l-1 47l-4 532q0 -40 13.5 -70.5t35.5 -51.5t48 -41.5t52 -46.5t48 -59.5t35.5 -88.5t13.5 -125v-16q-8 -115 1.5 -204.5t31 -146.5t57 -97.5t72 -60.5t84.5 -34q106 -30 256 55q-2 10 -2 29l-8 958
q0 -40 13.5 -70.5t35 -51.5t48 -41.5t52.5 -46.5t47.5 -59.5t35 -88.5t13.5 -125v-473q0 -72 49 -121z" />
    <glyph glyph-name="Ohorn" unicode="&#x1a0;" horiz-adv-x="1748" 
d="M874 1714q156 0 299 -54.5t259 -152.5q77 58 70.5 159.5t-79.5 170.5l4 2l162 41q38 -62 43.5 -116t-21.5 -100t-67.5 -83.5t-105.5 -79.5q138 -121 216.5 -288.5t78.5 -356.5q0 -174 -68 -332.5t-183.5 -273t-274.5 -182.5t-333 -68t-332.5 68t-273 182.5t-182.5 273
t-68 332.5q0 175 67.5 334t182.5 273.5t273.5 182.5t332.5 68zM1155 63q115 42 198 142t121 233t30.5 295.5t-64.5 323.5q-77 215 -217.5 371t-308 216t-320.5 5q-92 -33 -164.5 -104t-116.5 -169t-62 -214t-4 -247t60 -260q77 -215 217.5 -371t308.5 -216t322 -5z" />
    <glyph glyph-name="ohorn" unicode="&#x1a1;" horiz-adv-x="1062" 
d="M991 707q42 -94 44.5 -195.5t-31 -191.5t-101.5 -165.5t-162 -117.5t-195.5 -44.5t-191 31.5t-165 102.5t-117.5 162.5t-44.5 195.5t31.5 190.5t102.5 164t162.5 117q161 71 327 31t271 -172q51 63 37.5 152t-76.5 149l4 2l162 41q35 -58 42 -108.5t-13.5 -94
t-55.5 -79.5t-90 -74q36 -45 59 -96zM737 45q69 32 100 119.5t18 206.5t-69 241q-85 187 -219.5 285t-240.5 51q-69 -31 -100.5 -118t-18.5 -206.5t69 -242.5q85 -186 220 -284.5t241 -51.5z" />
    <glyph glyph-name="Uhorn" unicode="&#x1af;" horiz-adv-x="1732" 
d="M1681 823q0 -22 -4.5 -66t-30.5 -147t-71 -192q-30 -60 -68.5 -112.5t-99.5 -108.5t-134.5 -97t-176.5 -69.5t-222 -34.5h-22q-119 6 -222 34.5t-176 69.5t-134 97t-99.5 108.5t-68.5 112.5q-44 89 -69 192.5t-28.5 144t-3.5 60.5v897h254v-905q0 -196 88 -400t217 -303
q81 -49 154 -72t106 -22l33 2q112 7 209 36t166 68.5t127 93.5t94.5 104.5t65.5 107.5q28 55 49 115.5t30.5 105t15 87.5t6.5 58.5t1 22.5v899h14v-211q86 56 83 161t-78 177l4 2l161 41q32 -52 40 -99.5t-3 -85t-43 -76t-70.5 -68t-93.5 -64.5v-664z" />
    <glyph glyph-name="uhorn" unicode="&#x1b0;" horiz-adv-x="1159" 
d="M1085 49l2 -2q46 -46 117 -49h-225q-77 0 -129 49q-34 34 -43 80q-138 -90 -267.5 -114t-225.5 11.5t-161.5 120.5t-84.5 207q-4 27 -7 87.5t-3 107.5l-1 47l-4 532q0 -40 13.5 -70.5t35.5 -51.5t48 -41.5t52 -46.5t48 -59.5t35.5 -88.5t13.5 -125v-16
q-8 -115 1.5 -204.5t31 -146.5t57 -97.5t72 -60.5t84.5 -34q106 -30 256 55q-2 10 -2 29l-8 958q0 -44 16.5 -77t43.5 -56.5t55.5 -46t58.5 -59t47 -82.5q59 61 47.5 155.5t-78.5 155.5l4 2l162 41q36 -60 42.5 -112.5t-17 -97.5t-61 -81.5t-97.5 -76.5q22 -61 22 -148v-473
q0 -72 49 -121z" />
    <glyph glyph-name="uni1EA0" unicode="&#x1ea0;" 
d="M694 -258l-125 -125l-123 125l123 123zM659 858zM782 1700l566 -1698h-248l-125 377h-813l-180 -383l-13 6l183 387v6h2l479 1018l-96 287h245zM168 391h803l-334 998z" />
    <glyph glyph-name="uni1EA1" unicode="&#x1ea1;" horiz-adv-x="1083" 
d="M645 -258l-125 -125l-123 125l123 123zM1012 43h-2q49 -49 127 -49h-236q-77 0 -129 49q-51 48 -51 121l6 567q-16 -97 -207 -156q-162 -57 -230 -177q-56 -100 -22 -190q33 -87 133 -112q63 -15 144 0q-14 -7 -37 -18t-87.5 -35.5t-120 -38t-117.5 -12.5t-97 28
q-28 24 -46 55.5t-24 68t-1.5 76.5t23.5 80.5t48 79t74.5 74.5t101 65.5t129.5 51.5t158 33q53 11 90.5 34t52.5 48t22.5 48.5t7.5 38.5l-1 15q0 41 -14.5 86.5t-38.5 69.5q-47 42 -144 45q-50 -2 -92.5 -21t-70.5 -47t-48.5 -62t-30 -65.5t-10.5 -58.5l-133 47
q22 93 158.5 160.5t282.5 61.5q106 -3 198 -49.5t140 -135.5q45 -70 45 -153v-502q0 -72 49 -121z" />
    <glyph glyph-name="uni1EA2" unicode="&#x1ea2;" 
d="M557 2132q102 67 196 30q70 -27 94 -95q31 -86 -34 -169q-33 -43 -90 -77l-10 2q79 98 43 166q-25 46 -83 50q-65 5 -104 -45l-10 -16l-2 4v150zM659 858zM782 1700l566 -1698h-248l-125 377h-813l-180 -383l-13 6l183 387v6h2l479 1018l-96 287h245zM168 391h803
l-334 998z" />
    <glyph glyph-name="uni1EA3" unicode="&#x1ea3;" horiz-adv-x="1083" 
d="M426 1440q102 67 196 31q69 -27 94 -95q32 -85 -32 -169q-34 -44 -92 -79l-10 5q79 96 44 164q-24 46 -82 51q-64 7 -103 -43q-7 -9 -13 -19l-2 4v150zM1012 43h-2q49 -49 127 -49h-236q-77 0 -129 49q-51 48 -51 121l6 567q-16 -97 -207 -156q-162 -57 -230 -177
q-56 -100 -22 -190q33 -87 133 -112q63 -15 144 0q-14 -7 -37 -18t-87.5 -35.5t-120 -38t-117.5 -12.5t-97 28q-28 24 -46 55.5t-24 68t-1.5 76.5t23.5 80.5t48 79t74.5 74.5t101 65.5t129.5 51.5t158 33q53 11 90.5 34t52.5 48t22.5 48.5t7.5 38.5l-1 15q0 41 -14.5 86.5
t-38.5 69.5q-47 42 -144 45q-50 -2 -92.5 -21t-70.5 -47t-48.5 -62t-30 -65.5t-10.5 -58.5l-133 47q22 93 158.5 160.5t282.5 61.5q106 -3 198 -49.5t140 -135.5q45 -70 45 -153v-502q0 -72 49 -121z" />
    <glyph glyph-name="uni1EA4" unicode="&#x1ea4;" 
d="M782 2093v12q85 9 129 97.5t19 203.5l4 7l174 -37q5 -57 -10.5 -101.5t-43.5 -73t-74 -50.5t-91 -34.5t-107 -23.5zM983 1815q-244 -21 -285 262q-8 -61 -25 -106.5t-48.5 -84.5t-84.5 -57t-126 -14l-21 147l4 2q65 -19 130 -7.5t114 58.5t51 109h10q3 -62 52 -109
t114 -58.5t131 7.5l5 -2zM659 858zM782 1700l566 -1698h-248l-125 377h-813l-180 -383l-13 6l183 387v6h2l479 1018l-96 287h245zM168 391h803l-334 998z" />
    <glyph glyph-name="uni1EA5" unicode="&#x1ea5;" horiz-adv-x="1083" 
d="M627 1389v12q86 9 129.5 97.5t17.5 203.5l6 6l174 -37q5 -57 -10.5 -101t-43 -73t-74 -51t-92 -34t-107.5 -23zM1012 43h-2q49 -49 127 -49h-236q-77 0 -129 49q-51 48 -51 121l6 567q-16 -97 -207 -156q-162 -57 -230 -177q-56 -100 -22 -190q33 -87 133 -112
q63 -15 144 0q-14 -7 -37 -18t-87.5 -35.5t-120 -38t-117.5 -12.5t-97 28q-28 24 -46 55.5t-24 68t-1.5 76.5t23.5 80.5t48 79t74.5 74.5t101 65.5t129.5 51.5t158 33q53 11 90.5 34t52.5 48t22.5 48.5t7.5 38.5l-1 15q0 41 -14.5 86.5t-38.5 69.5q-47 42 -144 45
q-50 -2 -92.5 -21t-70.5 -47t-48.5 -62t-30 -65.5t-10.5 -58.5l-133 47q22 93 158.5 160.5t282.5 61.5q106 -3 198 -49.5t140 -135.5q45 -70 45 -153v-502q0 -72 49 -121zM829 1110q-243 -21 -284 262q-6 -48 -17.5 -86.5t-33.5 -74t-53 -58t-77.5 -34.5t-105.5 -9l-18 147
l2 3q47 -19 98.5 -12.5t95 26.5t73 59t30.5 86h10q1 -47 30.5 -86t73 -59t95 -26.5t98.5 12.5l2 -3z" />
    <glyph glyph-name="uni1EA6" unicode="&#x1ea6;" 
d="M1001 2105v-12q-79 14 -133 31.5t-103.5 48.5t-72 82t-16.5 121l172 37l6 -7q-26 -115 18 -203.5t129 -97.5zM983 1815q-244 -21 -285 262q-8 -61 -25 -106.5t-48.5 -84.5t-84.5 -57t-126 -14l-21 147l4 2q65 -19 130 -7.5t114 58.5t51 109h10q3 -62 52 -109t114 -58.5
t131 7.5l5 -2zM659 858zM782 1700l566 -1698h-248l-125 377h-813l-180 -383l-13 6l183 387v6h2l479 1018l-96 287h245zM168 391h803l-334 998z" />
    <glyph glyph-name="uni1EA7" unicode="&#x1ea7;" horiz-adv-x="1083" 
d="M848 1401v-12q-62 11 -107.5 23t-92 34t-74.5 51t-43.5 73t-10.5 101l174 37l6 -6q-26 -115 17.5 -203.5t130.5 -97.5zM1012 43h-2q49 -49 127 -49h-236q-77 0 -129 49q-51 48 -51 121l6 567q-16 -97 -207 -156q-162 -57 -230 -177q-56 -100 -22 -190q33 -87 133 -112
q63 -15 144 0q-14 -7 -37 -18t-87.5 -35.5t-120 -38t-117.5 -12.5t-97 28q-28 24 -46 55.5t-24 68t-1.5 76.5t23.5 80.5t48 79t74.5 74.5t101 65.5t129.5 51.5t158 33q53 11 90.5 34t52.5 48t22.5 48.5t7.5 38.5l-1 15q0 41 -14.5 86.5t-38.5 69.5q-47 42 -144 45
q-50 -2 -92.5 -21t-70.5 -47t-48.5 -62t-30 -65.5t-10.5 -58.5l-133 47q22 93 158.5 160.5t282.5 61.5q106 -3 198 -49.5t140 -135.5q45 -70 45 -153v-502q0 -72 49 -121zM829 1110q-243 -21 -284 262q-6 -48 -17.5 -86.5t-33.5 -74t-53 -58t-77.5 -34.5t-105.5 -9l-18 147
l2 3q47 -19 98.5 -12.5t95 26.5t73 59t30.5 86h10q1 -47 30.5 -86t73 -59t95 -26.5t98.5 12.5l2 -3z" />
    <glyph glyph-name="uni1EA8" unicode="&#x1ea8;" 
d="M737 2376q103 67 198 30q69 -28 93 -96q30 -87 -36 -170q-33 -42 -89 -76l-10 4q79 96 44 164q-24 46 -82 52q-64 7 -103 -43l-13 -19l-2 4v150zM983 1815q-244 -21 -285 262q-8 -61 -25 -106.5t-48.5 -84.5t-84.5 -57t-126 -14l-21 147l4 2q65 -19 130 -7.5t114 58.5
t51 109h10q3 -62 52 -109t114 -58.5t131 7.5l5 -2zM659 858zM782 1700l566 -1698h-248l-125 377h-813l-180 -383l-13 6l183 387v6h2l479 1018l-96 287h245zM168 391h803l-334 998z" />
    <glyph glyph-name="uni1EA9" unicode="&#x1ea9;" horiz-adv-x="1083" 
d="M584 1671q102 67 196 30q69 -27 94 -95q30 -86 -34 -169q-34 -43 -90 -77l-11 4q79 97 42 166q-25 46 -82 50q-64 5 -103 -46q-5 -7 -10 -16l-2 4v149zM1012 43h-2q49 -49 127 -49h-236q-77 0 -129 49q-51 48 -51 121l6 567q-16 -97 -207 -156q-162 -57 -230 -177
q-56 -100 -22 -190q33 -87 133 -112q63 -15 144 0q-14 -7 -37 -18t-87.5 -35.5t-120 -38t-117.5 -12.5t-97 28q-28 24 -46 55.5t-24 68t-1.5 76.5t23.5 80.5t48 79t74.5 74.5t101 65.5t129.5 51.5t158 33q53 11 90.5 34t52.5 48t22.5 48.5t7.5 38.5l-1 15q0 41 -14.5 86.5
t-38.5 69.5q-47 42 -144 45q-50 -2 -92.5 -21t-70.5 -47t-48.5 -62t-30 -65.5t-10.5 -58.5l-133 47q22 93 158.5 160.5t282.5 61.5q106 -3 198 -49.5t140 -135.5q45 -70 45 -153v-502q0 -72 49 -121zM829 1110q-243 -21 -284 262q-6 -48 -17.5 -86.5t-33.5 -74t-53 -58
t-77.5 -34.5t-105.5 -9l-18 147l2 3q47 -19 98.5 -12.5t95 26.5t73 59t30.5 86h10q1 -47 30.5 -86t73 -59t95 -26.5t98.5 12.5l2 -3z" />
    <glyph glyph-name="uni1EAA" unicode="&#x1eaa;" 
d="M393 2286q49 46 105 52t103 -15t104 -64q56 -20 125.5 6.5t125.5 91.5l7 -2l67 -143q-51 -46 -106 -52.5t-102.5 14t-104.5 64.5q-54 22 -123.5 -5t-126.5 -91h-4zM983 1815q-244 -21 -285 262q-8 -61 -25 -106.5t-48.5 -84.5t-84.5 -57t-126 -14l-21 147l4 2
q65 -19 130 -7.5t114 58.5t51 109h10q3 -62 52 -109t114 -58.5t131 7.5l5 -2zM659 858zM782 1700l566 -1698h-248l-125 377h-813l-180 -383l-13 6l183 387v6h2l479 1018l-96 287h245zM168 391h803l-334 998z" />
    <glyph glyph-name="uni1EAB" unicode="&#x1eab;" horiz-adv-x="1083" 
d="M240 1581q49 46 105 52t102.5 -15t103.5 -64q56 -20 125 6.5t127 92.5l6 -2l68 -144q-51 -46 -106.5 -52.5t-103 14.5t-104.5 65q-54 22 -123.5 -5t-126.5 -91h-6zM1012 43h-2q49 -49 127 -49h-236q-77 0 -129 49q-51 48 -51 121l6 567q-16 -97 -207 -156
q-162 -57 -230 -177q-56 -100 -22 -190q33 -87 133 -112q63 -15 144 0q-14 -7 -37 -18t-87.5 -35.5t-120 -38t-117.5 -12.5t-97 28q-28 24 -46 55.5t-24 68t-1.5 76.5t23.5 80.5t48 79t74.5 74.5t101 65.5t129.5 51.5t158 33q53 11 90.5 34t52.5 48t22.5 48.5t7.5 38.5
l-1 15q0 41 -14.5 86.5t-38.5 69.5q-47 42 -144 45q-50 -2 -92.5 -21t-70.5 -47t-48.5 -62t-30 -65.5t-10.5 -58.5l-133 47q22 93 158.5 160.5t282.5 61.5q106 -3 198 -49.5t140 -135.5q45 -70 45 -153v-502q0 -72 49 -121zM829 1110q-243 -21 -284 262q-6 -48 -17.5 -86.5
t-33.5 -74t-53 -58t-77.5 -34.5t-105.5 -9l-18 147l2 3q47 -19 98.5 -12.5t95 26.5t73 59t30.5 86h10q1 -47 30.5 -86t73 -59t95 -26.5t98.5 12.5l2 -3z" />
    <glyph glyph-name="uni1EAC" unicode="&#x1eac;" 
d="M694 -258l-125 -125l-123 125l123 123zM983 1815q-244 -21 -285 262q-8 -61 -25 -106.5t-48.5 -84.5t-84.5 -57t-126 -14l-21 147l4 2q65 -19 130 -7.5t114 58.5t51 109h10q3 -62 52 -109t114 -58.5t131 7.5l5 -2zM659 858zM782 1700l566 -1698h-248l-125 377h-813
l-180 -383l-13 6l183 387v6h2l479 1018l-96 287h245zM168 391h803l-334 998z" />
    <glyph glyph-name="uni1EAD" unicode="&#x1ead;" horiz-adv-x="1083" 
d="M645 -258l-125 -125l-123 125l123 123zM1012 43h-2q49 -49 127 -49h-236q-77 0 -129 49q-51 48 -51 121l6 567q-16 -97 -207 -156q-162 -57 -230 -177q-56 -100 -22 -190q33 -87 133 -112q63 -15 144 0q-14 -7 -37 -18t-87.5 -35.5t-120 -38t-117.5 -12.5t-97 28
q-28 24 -46 55.5t-24 68t-1.5 76.5t23.5 80.5t48 79t74.5 74.5t101 65.5t129.5 51.5t158 33q53 11 90.5 34t52.5 48t22.5 48.5t7.5 38.5l-1 15q0 41 -14.5 86.5t-38.5 69.5q-47 42 -144 45q-50 -2 -92.5 -21t-70.5 -47t-48.5 -62t-30 -65.5t-10.5 -58.5l-133 47
q22 93 158.5 160.5t282.5 61.5q106 -3 198 -49.5t140 -135.5q45 -70 45 -153v-502q0 -72 49 -121zM829 1110q-243 -21 -284 262q-6 -48 -17.5 -86.5t-33.5 -74t-53 -58t-77.5 -34.5t-105.5 -9l-18 147l2 3q47 -19 98.5 -12.5t95 26.5t73 59t30.5 86h10q1 -47 30.5 -86
t73 -59t95 -26.5t98.5 12.5l2 -3z" />
    <glyph glyph-name="uni1EAE" unicode="&#x1eae;" 
d="M668 2077v12q85 9 128.5 97.5t18.5 203.5l4 6l174 -37q5 -57 -10.5 -101t-43 -73t-73.5 -51t-91 -34t-107 -23zM838 2028l141 -43q-22 -187 -272 -187q-57 0 -101 8t-83 27.5t-62.5 57.5t-30.5 94l143 43l5 -3q-14 -77 22.5 -136t106.5 -74q69 17 103.5 76t20.5 134z
M659 858zM782 1700l566 -1698h-248l-125 377h-813l-180 -383l-13 6l183 387v6h2l479 1018l-96 287h245zM168 391h803l-334 998z" />
    <glyph glyph-name="uni1EAF" unicode="&#x1eaf;" horiz-adv-x="1083" 
d="M510 1372v12q85 9 129 98t18 204l5 6l174 -37q5 -57 -10.5 -101.5t-43.5 -73t-74 -50.5t-91 -34.5t-107 -23.5zM680 1323l143 -43q-21 -186 -274 -186q-45 0 -81.5 4.5t-71.5 17t-59.5 32.5t-41 53.5t-21.5 78.5l142 43l6 -2q-15 -77 21 -136.5t106 -74.5q69 17 104 76.5
t23 134.5zM1012 43h-2q49 -49 127 -49h-236q-77 0 -129 49q-51 48 -51 121l6 567q-16 -97 -207 -156q-162 -57 -230 -177q-56 -100 -22 -190q33 -87 133 -112q63 -15 144 0q-14 -7 -37 -18t-87.5 -35.5t-120 -38t-117.5 -12.5t-97 28q-28 24 -46 55.5t-24 68t-1.5 76.5
t23.5 80.5t48 79t74.5 74.5t101 65.5t129.5 51.5t158 33q53 11 90.5 34t52.5 48t22.5 48.5t7.5 38.5l-1 15q0 41 -14.5 86.5t-38.5 69.5q-47 42 -144 45q-50 -2 -92.5 -21t-70.5 -47t-48.5 -62t-30 -65.5t-10.5 -58.5l-133 47q22 93 158.5 160.5t282.5 61.5
q106 -3 198 -49.5t140 -135.5q45 -70 45 -153v-502q0 -72 49 -121z" />
    <glyph glyph-name="uni1EB0" unicode="&#x1eb0;" 
d="M774 2089v-12q-62 11 -107.5 23t-92 34t-74.5 51t-43.5 73t-10.5 101l175 37l6 -6q-26 -115 17.5 -203.5t129.5 -97.5zM838 2028l141 -43q-22 -187 -272 -187q-57 0 -101 8t-83 27.5t-62.5 57.5t-30.5 94l143 43l5 -3q-14 -77 22.5 -136t106.5 -74q69 17 103.5 76
t20.5 134zM659 858zM782 1700l566 -1698h-248l-125 377h-813l-180 -383l-13 6l183 387v6h2l479 1018l-96 287h245zM168 391h803l-334 998z" />
    <glyph glyph-name="uni1EB1" unicode="&#x1eb1;" horiz-adv-x="1083" 
d="M616 1384v-12q-79 14 -133 31.5t-103.5 48.5t-72 82t-16.5 121l172 37l6 -6q-26 -115 18 -204t129 -98zM680 1323l143 -43q-21 -186 -274 -186q-45 0 -81.5 4.5t-71.5 17t-59.5 32.5t-41 53.5t-21.5 78.5l142 43l6 -2q-15 -77 21 -136.5t106 -74.5q69 17 104 76.5
t23 134.5zM1012 43h-2q49 -49 127 -49h-236q-77 0 -129 49q-51 48 -51 121l6 567q-16 -97 -207 -156q-162 -57 -230 -177q-56 -100 -22 -190q33 -87 133 -112q63 -15 144 0q-14 -7 -37 -18t-87.5 -35.5t-120 -38t-117.5 -12.5t-97 28q-28 24 -46 55.5t-24 68t-1.5 76.5
t23.5 80.5t48 79t74.5 74.5t101 65.5t129.5 51.5t158 33q53 11 90.5 34t52.5 48t22.5 48.5t7.5 38.5l-1 15q0 41 -14.5 86.5t-38.5 69.5q-47 42 -144 45q-50 -2 -92.5 -21t-70.5 -47t-48.5 -62t-30 -65.5t-10.5 -58.5l-133 47q22 93 158.5 160.5t282.5 61.5
q106 -3 198 -49.5t140 -135.5q45 -70 45 -153v-502q0 -72 49 -121z" />
    <glyph glyph-name="uni1EB2" unicode="&#x1eb2;" 
d="M557 2378q103 67 198 30q69 -28 93 -96q30 -87 -36 -170q-33 -42 -89 -76l-10 2q79 97 43 166q-24 46 -82 51q-64 6 -103 -43l-12 -18l-2 4v150zM838 2028l141 -43q-22 -187 -272 -187q-57 0 -101 8t-83 27.5t-62.5 57.5t-30.5 94l143 43l5 -3q-14 -77 22.5 -136
t106.5 -74q69 17 103.5 76t20.5 134zM659 858zM782 1700l566 -1698h-248l-125 377h-813l-180 -383l-13 6l183 387v6h2l479 1018l-96 287h245zM168 391h803l-334 998z" />
    <glyph glyph-name="uni1EB3" unicode="&#x1eb3;" horiz-adv-x="1083" 
d="M399 1673q105 68 199 30q70 -28 93 -96q30 -87 -37 -170q-34 -42 -89 -75l-10 2q79 97 43 166q-24 46 -82 51q-64 6 -103 -43q-7 -8 -12 -18l-2 4v149zM680 1323l143 -43q-21 -186 -274 -186q-45 0 -81.5 4.5t-71.5 17t-59.5 32.5t-41 53.5t-21.5 78.5l142 43l6 -2
q-15 -77 21 -136.5t106 -74.5q69 17 104 76.5t23 134.5zM1012 43h-2q49 -49 127 -49h-236q-77 0 -129 49q-51 48 -51 121l6 567q-16 -97 -207 -156q-162 -57 -230 -177q-56 -100 -22 -190q33 -87 133 -112q63 -15 144 0q-14 -7 -37 -18t-87.5 -35.5t-120 -38t-117.5 -12.5
t-97 28q-28 24 -46 55.5t-24 68t-1.5 76.5t23.5 80.5t48 79t74.5 74.5t101 65.5t129.5 51.5t158 33q53 11 90.5 34t52.5 48t22.5 48.5t7.5 38.5l-1 15q0 41 -14.5 86.5t-38.5 69.5q-47 42 -144 45q-50 -2 -92.5 -21t-70.5 -47t-48.5 -62t-30 -65.5t-10.5 -58.5l-133 47
q22 93 158.5 160.5t282.5 61.5q106 -3 198 -49.5t140 -135.5q45 -70 45 -153v-502q0 -72 49 -121z" />
    <glyph glyph-name="uni1EB4" unicode="&#x1eb4;" 
d="M393 2232q49 47 105 53t103 -14t104 -63q56 -22 125.5 4.5t125.5 93.5l7 -2l67 -145q-51 -46 -106 -52.5t-102.5 14t-104.5 64.5q-54 23 -123.5 -4t-126.5 -92l-4 2zM838 2028l141 -43q-22 -187 -272 -187q-57 0 -101 8t-83 27.5t-62.5 57.5t-30.5 94l143 43l5 -3
q-14 -77 22.5 -136t106.5 -74q69 17 103.5 76t20.5 134zM659 858zM782 1700l566 -1698h-248l-125 377h-813l-180 -383l-13 6l183 387v6h2l479 1018l-96 287h245zM168 391h803l-334 998z" />
    <glyph glyph-name="uni1EB5" unicode="&#x1eb5;" horiz-adv-x="1083" 
d="M236 1528q38 35 78 48t80 4.5t76 -27.5t77 -50q56 -22 125.5 5t126.5 94l8 -3l65 -145q-51 -46 -106 -52.5t-102 14.5t-103 65q-55 23 -124.5 -4.5t-127.5 -92.5l-4 2zM680 1323l143 -43q-21 -186 -274 -186q-45 0 -81.5 4.5t-71.5 17t-59.5 32.5t-41 53.5t-21.5 78.5
l142 43l6 -2q-15 -77 21 -136.5t106 -74.5q69 17 104 76.5t23 134.5zM1012 43h-2q49 -49 127 -49h-236q-77 0 -129 49q-51 48 -51 121l6 567q-16 -97 -207 -156q-162 -57 -230 -177q-56 -100 -22 -190q33 -87 133 -112q63 -15 144 0q-14 -7 -37 -18t-87.5 -35.5t-120 -38
t-117.5 -12.5t-97 28q-28 24 -46 55.5t-24 68t-1.5 76.5t23.5 80.5t48 79t74.5 74.5t101 65.5t129.5 51.5t158 33q53 11 90.5 34t52.5 48t22.5 48.5t7.5 38.5l-1 15q0 41 -14.5 86.5t-38.5 69.5q-47 42 -144 45q-50 -2 -92.5 -21t-70.5 -47t-48.5 -62t-30 -65.5t-10.5 -58.5
l-133 47q22 93 158.5 160.5t282.5 61.5q106 -3 198 -49.5t140 -135.5q45 -70 45 -153v-502q0 -72 49 -121z" />
    <glyph glyph-name="uni1EB6" unicode="&#x1eb6;" 
d="M694 -258l-125 -125l-123 125l123 123zM838 2028l141 -43q-22 -187 -272 -187q-57 0 -101 8t-83 27.5t-62.5 57.5t-30.5 94l143 43l5 -3q-14 -77 22.5 -136t106.5 -74q69 17 103.5 76t20.5 134zM659 858zM782 1700l566 -1698h-248l-125 377h-813l-180 -383l-13 6l183 387
v6h2l479 1018l-96 287h245zM168 391h803l-334 998z" />
    <glyph glyph-name="uni1EB7" unicode="&#x1eb7;" horiz-adv-x="1083" 
d="M645 -258l-125 -125l-123 125l123 123zM680 1323l143 -43q-21 -186 -274 -186q-45 0 -81.5 4.5t-71.5 17t-59.5 32.5t-41 53.5t-21.5 78.5l142 43l6 -2q-15 -77 21 -136.5t106 -74.5q69 17 104 76.5t23 134.5zM1012 43h-2q49 -49 127 -49h-236q-77 0 -129 49
q-51 48 -51 121l6 567q-16 -97 -207 -156q-162 -57 -230 -177q-56 -100 -22 -190q33 -87 133 -112q63 -15 144 0q-14 -7 -37 -18t-87.5 -35.5t-120 -38t-117.5 -12.5t-97 28q-28 24 -46 55.5t-24 68t-1.5 76.5t23.5 80.5t48 79t74.5 74.5t101 65.5t129.5 51.5t158 33
q53 11 90.5 34t52.5 48t22.5 48.5t7.5 38.5l-1 15q0 41 -14.5 86.5t-38.5 69.5q-47 42 -144 45q-50 -2 -92.5 -21t-70.5 -47t-48.5 -62t-30 -65.5t-10.5 -58.5l-133 47q22 93 158.5 160.5t282.5 61.5q106 -3 198 -49.5t140 -135.5q45 -70 45 -153v-502q0 -72 49 -121z" />
    <glyph glyph-name="uni1EB8" unicode="&#x1eb8;" horiz-adv-x="1454" 
d="M924 -258l-125 -125l-123 125l123 123zM1464 1686h-1134v-828h1134v-14h-1134v-828h1134v-14h-1382v2v1696h248h1134v-14z" />
    <glyph glyph-name="uni1EB9" unicode="&#x1eb9;" horiz-adv-x="989" 
d="M678 -258l-125 -125l-123 125l123 123zM639 483h4q-46 -47 -71 -70.5t-66 -55t-82 -47t-86 -19.5q89 -142 201 -208.5t202 -27.5q101 46 117 205l31 -110q-63 -64 -146 -101q-94 -42 -195.5 -44.5t-190.5 31t-164 101.5t-117 162t-44.5 195.5t31 191.5t101.5 165.5
t162 117.5q127 53 250.5 43.5t233 -81t171.5 -186.5h-2l6 -12q-25 -9 -80 -35l-119 -77q-41 -32 -147 -138zM330 303l-4 -2q37 2 72.5 15t61.5 27t61 44t54 48.5t58 58.5q94 94 151 139q-57 119 -137 204.5t-164 118t-151 2.5q-69 -31 -100.5 -118t-18 -206.5t69.5 -242.5
q7 -15 47 -88z" />
    <glyph glyph-name="uni1EBA" unicode="&#x1eba;" horiz-adv-x="1454" 
d="M639 2132q102 67 196 30q70 -27 94 -95q31 -86 -34 -169q-33 -43 -90 -77l-10 2q79 98 43 166q-25 46 -83 50q-65 5 -104 -45l-10 -16l-2 4v150zM1464 1686h-1134v-828h1134v-14h-1134v-828h1134v-14h-1382v2v1696h248h1134v-14z" />
    <glyph glyph-name="uni1EBB" unicode="&#x1ebb;" horiz-adv-x="989" 
d="M377 1440q102 67 196 31q69 -27 94 -95q32 -85 -32 -169q-34 -44 -92 -79l-11 5q79 96 44 164q-24 46 -82 51q-64 6 -103 -44q-7 -8 -12 -18l-2 4v150zM639 483h4q-46 -47 -71 -70.5t-66 -55t-82 -47t-86 -19.5q89 -142 201 -208.5t202 -27.5q101 46 117 205l31 -110
q-63 -64 -146 -101q-94 -42 -195.5 -44.5t-190.5 31t-164 101.5t-117 162t-44.5 195.5t31 191.5t101.5 165.5t162 117.5q127 53 250.5 43.5t233 -81t171.5 -186.5h-2l6 -12q-25 -9 -80 -35l-119 -77q-41 -32 -147 -138zM330 303l-4 -2q37 2 72.5 15t61.5 27t61 44t54 48.5
t58 58.5q94 94 151 139q-57 119 -137 204.5t-164 118t-151 2.5q-69 -31 -100.5 -118t-18 -206.5t69.5 -242.5q7 -15 47 -88z" />
    <glyph glyph-name="uni1EBC" unicode="&#x1ebc;" horiz-adv-x="1454" 
d="M475 1970q49 46 105 52t102.5 -14.5t103.5 -63.5q56 -22 125.5 5t126.5 93l6 -2l68 -144q-51 -47 -106 -54t-102 14t-105 65q-54 23 -123.5 -3.5t-126.5 -92.5l-4 2zM1464 1686h-1134v-828h1134v-14h-1134v-828h1134v-14h-1382v2v1696h248h1134v-14z" />
    <glyph glyph-name="uni1EBD" unicode="&#x1ebd;" horiz-adv-x="989" 
d="M197 1282q49 46 105 51.5t102.5 -15t103.5 -63.5q56 -22 125.5 5.5t126.5 93.5l6 -2l68 -144q-51 -47 -106.5 -54t-102.5 14t-105 65q-54 23 -123.5 -3.5t-126.5 -92.5l-4 2zM639 483h4q-46 -47 -71 -70.5t-66 -55t-82 -47t-86 -19.5q89 -142 201 -208.5t202 -27.5
q101 46 117 205l31 -110q-63 -64 -146 -101q-94 -42 -195.5 -44.5t-190.5 31t-164 101.5t-117 162t-44.5 195.5t31 191.5t101.5 165.5t162 117.5q127 53 250.5 43.5t233 -81t171.5 -186.5h-2l6 -12q-25 -9 -80 -35l-119 -77q-41 -32 -147 -138zM330 303l-4 -2q37 2 72.5 15
t61.5 27t61 44t54 48.5t58 58.5q94 94 151 139q-57 119 -137 204.5t-164 118t-151 2.5q-69 -31 -100.5 -118t-18 -206.5t69.5 -242.5q7 -15 47 -88z" />
    <glyph glyph-name="uni1EBE" unicode="&#x1ebe;" horiz-adv-x="1454" 
d="M877 2093v12q85 9 129 97.5t18 203.5l4 7l174 -37q5 -57 -10.5 -101.5t-43 -73t-73.5 -50.5t-91 -34.5t-107 -23.5zM1077 1815q-243 -21 -284 262q-7 -60 -24.5 -106.5t-49 -84.5t-85 -56.5t-126.5 -14.5l-21 147l5 2q47 -19 98 -12.5t94.5 27t72.5 59.5t31 86h11
q2 -62 51 -109t114 -58.5t130 7.5l4 -2zM1464 1686h-1134v-828h1134v-14h-1134v-828h1134v-14h-1382v2v1696h248h1134v-14z" />
    <glyph glyph-name="uni1EBF" unicode="&#x1ebf;" horiz-adv-x="989" 
d="M594 1389v12q86 9 129.5 97.5t17.5 203.5l7 6l174 -37q5 -57 -10.5 -101t-43.5 -73t-74.5 -51t-92 -34t-107.5 -23zM797 1110q-244 -21 -285 262q-6 -48 -17.5 -86.5t-33.5 -74t-53 -58t-77.5 -34.5t-105.5 -9l-18 147l2 3q47 -19 98.5 -12.5t95 26.5t73 59t30.5 86h10
q1 -47 30.5 -86t73 -59t95 -26.5t98.5 12.5l2 -3zM639 483h4q-46 -47 -71 -70.5t-66 -55t-82 -47t-86 -19.5q89 -142 201 -208.5t202 -27.5q101 46 117 205l31 -110q-63 -64 -146 -101q-94 -42 -195.5 -44.5t-190.5 31t-164 101.5t-117 162t-44.5 195.5t31 191.5
t101.5 165.5t162 117.5q127 53 250.5 43.5t233 -81t171.5 -186.5h-2l6 -12q-25 -9 -80 -35l-119 -77q-41 -32 -147 -138zM330 303l-4 -2q37 2 72.5 15t61.5 27t61 44t54 48.5t58 58.5q94 94 151 139q-57 119 -137 204.5t-164 118t-151 2.5q-69 -31 -100.5 -118t-18 -206.5
t69.5 -242.5q7 -15 47 -88z" />
    <glyph glyph-name="uni1EC0" unicode="&#x1ec0;" horiz-adv-x="1454" 
d="M1096 2105v-12q-62 11 -107 23.5t-91 34.5t-74 50.5t-43.5 73t-10.5 101.5l174 37l4 -7q-26 -115 18.5 -203.5t129.5 -97.5zM1077 1815q-243 -21 -284 262q-7 -60 -24.5 -106.5t-49 -84.5t-85 -56.5t-126.5 -14.5l-21 147l5 2q47 -19 98 -12.5t94.5 27t72.5 59.5t31 86
h11q2 -62 51 -109t114 -58.5t130 7.5l4 -2zM1464 1686h-1134v-828h1134v-14h-1134v-828h1134v-14h-1382v2v1696h248h1134v-14z" />
    <glyph glyph-name="uni1EC1" unicode="&#x1ec1;" horiz-adv-x="989" 
d="M815 1401v-12q-62 11 -107.5 23t-92 34t-74.5 51t-43.5 73t-10.5 101l175 37l6 -6q-26 -115 17.5 -203.5t129.5 -97.5zM797 1110q-244 -21 -285 262q-6 -48 -17.5 -86.5t-33.5 -74t-53 -58t-77.5 -34.5t-105.5 -9l-18 147l2 3q47 -19 98.5 -12.5t95 26.5t73 59t30.5 86
h10q1 -47 30.5 -86t73 -59t95 -26.5t98.5 12.5l2 -3zM639 483h4q-46 -47 -71 -70.5t-66 -55t-82 -47t-86 -19.5q89 -142 201 -208.5t202 -27.5q101 46 117 205l31 -110q-63 -64 -146 -101q-94 -42 -195.5 -44.5t-190.5 31t-164 101.5t-117 162t-44.5 195.5t31 191.5
t101.5 165.5t162 117.5q127 53 250.5 43.5t233 -81t171.5 -186.5h-2l6 -12q-25 -9 -80 -35l-119 -77q-41 -32 -147 -138zM330 303l-4 -2q37 2 72.5 15t61.5 27t61 44t54 48.5t58 58.5q94 94 151 139q-57 119 -137 204.5t-164 118t-151 2.5q-69 -31 -100.5 -118t-18 -206.5
t69.5 -242.5q7 -15 47 -88z" />
    <glyph glyph-name="uni1EC2" unicode="&#x1ec2;" horiz-adv-x="1454" 
d="M831 2376q105 67 199 30q70 -28 93 -97q30 -87 -37 -170q-34 -42 -89 -75l-10 4q79 96 44 164q-23 46 -80 52q-64 7 -104 -43q-7 -9 -13 -19l-3 4v150zM1077 1815q-243 -21 -284 262q-7 -60 -24.5 -106.5t-49 -84.5t-85 -56.5t-126.5 -14.5l-21 147l5 2q47 -19 98 -12.5
t94.5 27t72.5 59.5t31 86h11q2 -62 51 -109t114 -58.5t130 7.5l4 -2zM1464 1686h-1134v-828h1134v-14h-1134v-828h1134v-14h-1382v2v1696h248h1134v-14z" />
    <glyph glyph-name="uni1EC3" unicode="&#x1ec3;" horiz-adv-x="989" 
d="M551 1671q102 67 196 30q69 -27 94 -95q30 -86 -34 -169q-34 -43 -90 -77l-10 4q78 96 43 164q-24 46 -82 52q-64 6 -103 -44q-7 -8 -12 -18l-2 4v149zM797 1110q-244 -21 -285 262q-6 -48 -17.5 -86.5t-33.5 -74t-53 -58t-77.5 -34.5t-105.5 -9l-18 147l2 3
q47 -19 98.5 -12.5t95 26.5t73 59t30.5 86h10q1 -47 30.5 -86t73 -59t95 -26.5t98.5 12.5l2 -3zM639 483h4q-46 -47 -71 -70.5t-66 -55t-82 -47t-86 -19.5q89 -142 201 -208.5t202 -27.5q101 46 117 205l31 -110q-63 -64 -146 -101q-94 -42 -195.5 -44.5t-190.5 31
t-164 101.5t-117 162t-44.5 195.5t31 191.5t101.5 165.5t162 117.5q127 53 250.5 43.5t233 -81t171.5 -186.5h-2l6 -12q-25 -9 -80 -35l-119 -77q-41 -32 -147 -138zM330 303l-4 -2q37 2 72.5 15t61.5 27t61 44t54 48.5t58 58.5q94 94 151 139q-57 119 -137 204.5t-164 118
t-151 2.5q-69 -31 -100.5 -118t-18 -206.5t69.5 -242.5q7 -15 47 -88z" />
    <glyph glyph-name="uni1EC4" unicode="&#x1ec4;" horiz-adv-x="1454" 
d="M487 2286q50 46 106.5 52t103 -15t102.5 -64q56 -20 126 6.5t128 91.5l6 -2l67 -143q-51 -46 -106.5 -52.5t-103 14t-103.5 64.5q-54 22 -124.5 -5t-127.5 -91h-4zM1077 1815q-243 -21 -284 262q-7 -60 -24.5 -106.5t-49 -84.5t-85 -56.5t-126.5 -14.5l-21 147l5 2
q47 -19 98 -12.5t94.5 27t72.5 59.5t31 86h11q2 -62 51 -109t114 -58.5t130 7.5l4 -2zM1464 1686h-1134v-828h1134v-14h-1134v-828h1134v-14h-1382v2v1696h248h1134v-14z" />
    <glyph glyph-name="uni1EC5" unicode="&#x1ec5;" horiz-adv-x="989" 
d="M207 1581q49 46 105 52t102.5 -15t103.5 -64q56 -20 125 6.5t127 92.5l6 -2l68 -144q-51 -46 -106.5 -52.5t-103 14.5t-104.5 65q-54 22 -123 -4.5t-126 -91.5h-7zM797 1110q-244 -21 -285 262q-6 -48 -17.5 -86.5t-33.5 -74t-53 -58t-77.5 -34.5t-105.5 -9l-18 147l2 3
q47 -19 98.5 -12.5t95 26.5t73 59t30.5 86h10q1 -47 30.5 -86t73 -59t95 -26.5t98.5 12.5l2 -3zM639 483h4q-46 -47 -71 -70.5t-66 -55t-82 -47t-86 -19.5q89 -142 201 -208.5t202 -27.5q101 46 117 205l31 -110q-63 -64 -146 -101q-94 -42 -195.5 -44.5t-190.5 31
t-164 101.5t-117 162t-44.5 195.5t31 191.5t101.5 165.5t162 117.5q127 53 250.5 43.5t233 -81t171.5 -186.5h-2l6 -12q-25 -9 -80 -35l-119 -77q-41 -32 -147 -138zM330 303l-4 -2q37 2 72.5 15t61.5 27t61 44t54 48.5t58 58.5q94 94 151 139q-57 119 -137 204.5t-164 118
t-151 2.5q-69 -31 -100.5 -118t-18 -206.5t69.5 -242.5q7 -15 47 -88z" />
    <glyph glyph-name="uni1EC6" unicode="&#x1ec6;" horiz-adv-x="1454" 
d="M924 -258l-125 -125l-123 125l123 123zM1077 1815q-243 -21 -284 262q-7 -60 -24.5 -106.5t-49 -84.5t-85 -56.5t-126.5 -14.5l-21 147l5 2q47 -19 98 -12.5t94.5 27t72.5 59.5t31 86h11q2 -62 51 -109t114 -58.5t130 7.5l4 -2zM1464 1686h-1134v-828h1134v-14h-1134
v-828h1134v-14h-1382v2v1696h248h1134v-14z" />
    <glyph glyph-name="uni1EC7" unicode="&#x1ec7;" horiz-adv-x="989" 
d="M678 -258l-125 -125l-123 125l123 123zM797 1110q-244 -21 -285 262q-6 -48 -17.5 -86.5t-33.5 -74t-53 -58t-77.5 -34.5t-105.5 -9l-18 147l2 3q47 -19 98.5 -12.5t95 26.5t73 59t30.5 86h10q1 -47 30.5 -86t73 -59t95 -26.5t98.5 12.5l2 -3zM639 483h4
q-46 -47 -71 -70.5t-66 -55t-82 -47t-86 -19.5q89 -142 201 -208.5t202 -27.5q101 46 117 205l31 -110q-63 -64 -146 -101q-94 -42 -195.5 -44.5t-190.5 31t-164 101.5t-117 162t-44.5 195.5t31 191.5t101.5 165.5t162 117.5q127 53 250.5 43.5t233 -81t171.5 -186.5h-2
l6 -12q-25 -9 -80 -35l-119 -77q-41 -32 -147 -138zM330 303l-4 -2q37 2 72.5 15t61.5 27t61 44t54 48.5t58 58.5q94 94 151 139q-57 119 -137 204.5t-164 118t-151 2.5q-69 -31 -100.5 -118t-18 -206.5t69.5 -242.5q7 -15 47 -88z" />
    <glyph glyph-name="uni1EC8" unicode="&#x1ec8;" horiz-adv-x="413" 
d="M49 2132q102 67 196 30q70 -27 94 -95q31 -86 -34 -169q-33 -43 -90 -77l-10 2q79 98 43 166q-25 46 -83 50q-65 5 -104 -45l-10 -16l-2 4v150zM330 4h-248v1698h248v-1698z" />
    <glyph glyph-name="uni1EC9" unicode="&#x1ec9;" horiz-adv-x="442" 
d="M356 53l2 -2q49 -49 129 -49h-237q-77 0 -129 49q-51 48 -51 121l-9 944q0 -40 13.5 -70.5t35.5 -51.5t48 -41.5t52 -46.5t48 -59.5t35.5 -88.5t13.5 -125v-459q0 -72 49 -121zM33 1473q102 67 196 31q69 -27 94 -95q32 -85 -32 -169q-34 -44 -92 -79l-11 4q79 96 44 164
q-23 46 -80 52q-64 7 -104 -43q-7 -9 -13 -19l-2 4v150z" />
    <glyph glyph-name="uni1ECA" unicode="&#x1eca;" horiz-adv-x="413" 
d="M330 -258l-125 -125l-125 125l125 123zM330 4h-248v1698h248v-1698z" />
    <glyph glyph-name="uni1ECB" unicode="&#x1ecb;" horiz-adv-x="442" 
d="M350 -258l-125 -125l-123 125l123 123zM356 53l2 -2q49 -49 129 -49h-237q-77 0 -129 49q-51 48 -51 121l-9 944q0 -40 13.5 -70.5t35.5 -51.5t48 -41.5t52 -46.5t48 -59.5t35.5 -88.5t13.5 -125v-459q0 -72 49 -121zM295 1247l-125 -125l-125 125l125 125z" />
    <glyph glyph-name="uni1ECC" unicode="&#x1ecc;" horiz-adv-x="1748" 
d="M999 -258l-125 -125l-124 125l124 123zM874 1714q174 0 333 -68t274.5 -182.5t183.5 -273.5t68 -334q0 -174 -68 -332.5t-183.5 -273t-274.5 -182.5t-333 -68t-332.5 68t-273 182.5t-182.5 273t-68 332.5q0 175 67.5 334t182.5 273.5t273.5 182.5t332.5 68zM1155 63
q115 42 198 142t121 233t30.5 295.5t-64.5 323.5q-77 215 -217.5 371t-308 216t-320.5 5q-92 -33 -164.5 -104t-116.5 -169t-62 -214t-4 -247t60 -260q77 -215 217.5 -371t308.5 -216t322 -5z" />
    <glyph glyph-name="uni1ECD" unicode="&#x1ecd;" horiz-adv-x="1062" 
d="M655 -258l-125 -125l-124 125l124 123zM991 707q42 -94 44.5 -195.5t-31 -191.5t-101.5 -165.5t-162 -117.5t-195.5 -44.5t-191 31.5t-165 102.5t-117.5 162.5t-44.5 195.5t31.5 190.5t102.5 164t162.5 117t195 44.5t190.5 -30.5t164.5 -101t117 -162zM737 45
q69 32 100 119.5t18 206.5t-69 241q-85 187 -219.5 285t-240.5 51q-69 -31 -100.5 -118t-18.5 -206.5t69 -242.5q85 -186 220 -284.5t241 -51.5z" />
    <glyph glyph-name="uni1ECE" unicode="&#x1ece;" horiz-adv-x="1748" 
d="M737 2132q102 67 196 30q70 -27 94 -95q31 -86 -34 -169q-33 -43 -90 -77l-10 2q79 98 43 166q-25 46 -83 50q-65 5 -104 -45l-10 -16l-2 4v150zM874 1714q174 0 333 -68t274.5 -182.5t183.5 -273.5t68 -334q0 -174 -68 -332.5t-183.5 -273t-274.5 -182.5t-333 -68
t-332.5 68t-273 182.5t-182.5 273t-68 332.5q0 175 67.5 334t182.5 273.5t273.5 182.5t332.5 68zM1155 63q115 42 198 142t121 233t30.5 295.5t-64.5 323.5q-77 215 -217.5 371t-308 216t-320.5 5q-92 -33 -164.5 -104t-116.5 -169t-62 -214t-4 -247t60 -260
q77 -215 217.5 -371t308.5 -216t322 -5z" />
    <glyph glyph-name="uni1ECF" unicode="&#x1ecf;" horiz-adv-x="1062" 
d="M360 1440q102 67 196 31q69 -27 94 -95q32 -85 -32 -169q-34 -44 -92 -79l-10 5q79 96 44 164q-24 46 -82 51q-64 7 -103 -43q-7 -9 -13 -19l-2 4v150zM991 707q42 -94 44.5 -195.5t-31 -191.5t-101.5 -165.5t-162 -117.5t-195.5 -44.5t-191 31.5t-165 102.5
t-117.5 162.5t-44.5 195.5t31.5 190.5t102.5 164t162.5 117t195 44.5t190.5 -30.5t164.5 -101t117 -162zM737 45q69 32 100 119.5t18 206.5t-69 241q-85 187 -219.5 285t-240.5 51q-69 -31 -100.5 -118t-18.5 -206.5t69 -242.5q85 -186 220 -284.5t241 -51.5z" />
    <glyph glyph-name="uni1ED0" unicode="&#x1ed0;" horiz-adv-x="1748" 
d="M958 2093v12q85 9 129.5 97.5t18.5 203.5l4 7l174 -37q5 -57 -10.5 -101.5t-43.5 -73t-74 -50.5t-91 -34.5t-107 -23.5zM1159 1815q-244 -21 -285 262q-7 -60 -24 -106.5t-48.5 -84.5t-85 -56.5t-126.5 -14.5l-21 147l4 2q66 -19 131 -7.5t114 58.5t52 109h11
q2 -62 51 -109t114 -58.5t130 7.5l4 -2zM874 1714q174 0 333 -68t274.5 -182.5t183.5 -273.5t68 -334q0 -174 -68 -332.5t-183.5 -273t-274.5 -182.5t-333 -68t-332.5 68t-273 182.5t-182.5 273t-68 332.5q0 175 67.5 334t182.5 273.5t273.5 182.5t332.5 68zM1155 63
q115 42 198 142t121 233t30.5 295.5t-64.5 323.5q-77 215 -217.5 371t-308 216t-320.5 5q-92 -33 -164.5 -104t-116.5 -169t-62 -214t-4 -247t60 -260q77 -215 217.5 -371t308.5 -216t322 -5z" />
    <glyph glyph-name="uni1ED1" unicode="&#x1ed1;" horiz-adv-x="1062" 
d="M614 1389v12q85 9 129.5 97.5t18.5 203.5l4 6l174 -37q5 -57 -10.5 -101t-43.5 -73t-74 -51t-91 -34t-107 -23zM815 1110q-244 -21 -285 262q-7 -60 -24 -106.5t-48.5 -84.5t-85 -56.5t-126.5 -14.5l-21 147l4 3q47 -19 98.5 -12.5t94.5 27t72.5 59t31.5 85.5h11
q1 -47 30 -86t72.5 -59t94.5 -26.5t97 12.5l5 -3zM991 707q42 -94 44.5 -195.5t-31 -191.5t-101.5 -165.5t-162 -117.5t-195.5 -44.5t-191 31.5t-165 102.5t-117.5 162.5t-44.5 195.5t31.5 190.5t102.5 164t162.5 117t195 44.5t190.5 -30.5t164.5 -101t117 -162zM737 45
q69 32 100 119.5t18 206.5t-69 241q-85 187 -219.5 285t-240.5 51q-69 -31 -100.5 -118t-18.5 -206.5t69 -242.5q85 -186 220 -284.5t241 -51.5z" />
    <glyph glyph-name="uni1ED2" unicode="&#x1ed2;" horiz-adv-x="1748" 
d="M1178 2105v-12q-62 11 -107 23.5t-91 34.5t-74 50.5t-43.5 73t-10.5 101.5l174 37l4 -7q-26 -115 18.5 -203.5t129.5 -97.5zM1159 1815q-244 -21 -285 262q-7 -60 -24 -106.5t-48.5 -84.5t-85 -56.5t-126.5 -14.5l-21 147l4 2q66 -19 131 -7.5t114 58.5t52 109h11
q2 -62 51 -109t114 -58.5t130 7.5l4 -2zM874 1714q174 0 333 -68t274.5 -182.5t183.5 -273.5t68 -334q0 -174 -68 -332.5t-183.5 -273t-274.5 -182.5t-333 -68t-332.5 68t-273 182.5t-182.5 273t-68 332.5q0 175 67.5 334t182.5 273.5t273.5 182.5t332.5 68zM1155 63
q115 42 198 142t121 233t30.5 295.5t-64.5 323.5q-77 215 -217.5 371t-308 216t-320.5 5q-92 -33 -164.5 -104t-116.5 -169t-62 -214t-4 -247t60 -260q77 -215 217.5 -371t308.5 -216t322 -5z" />
    <glyph glyph-name="uni1ED3" unicode="&#x1ed3;" horiz-adv-x="1062" 
d="M834 1401v-12q-62 11 -107 23t-91 34t-74 51t-43.5 73t-10.5 101l174 37l4 -6q-26 -115 18.5 -203.5t129.5 -97.5zM815 1110q-244 -21 -285 262q-7 -60 -24 -106.5t-48.5 -84.5t-85 -56.5t-126.5 -14.5l-21 147l4 3q47 -19 98.5 -12.5t94.5 27t72.5 59t31.5 85.5h11
q1 -47 30 -86t72.5 -59t94.5 -26.5t97 12.5l5 -3zM991 707q42 -94 44.5 -195.5t-31 -191.5t-101.5 -165.5t-162 -117.5t-195.5 -44.5t-191 31.5t-165 102.5t-117.5 162.5t-44.5 195.5t31.5 190.5t102.5 164t162.5 117t195 44.5t190.5 -30.5t164.5 -101t117 -162zM737 45
q69 32 100 119.5t18 206.5t-69 241q-85 187 -219.5 285t-240.5 51q-69 -31 -100.5 -118t-18.5 -206.5t69 -242.5q85 -186 220 -284.5t241 -51.5z" />
    <glyph glyph-name="uni1ED4" unicode="&#x1ed4;" horiz-adv-x="1748" 
d="M913 2376q105 67 199 30q70 -28 93 -97q30 -87 -37 -170q-34 -42 -89 -75l-10 4q79 96 44 164q-24 46 -82 52q-64 7 -103 -43l-13 -19l-2 4v150zM1159 1815q-244 -21 -285 262q-7 -60 -24 -106.5t-48.5 -84.5t-85 -56.5t-126.5 -14.5l-21 147l4 2q66 -19 131 -7.5
t114 58.5t52 109h11q2 -62 51 -109t114 -58.5t130 7.5l4 -2zM874 1714q174 0 333 -68t274.5 -182.5t183.5 -273.5t68 -334q0 -174 -68 -332.5t-183.5 -273t-274.5 -182.5t-333 -68t-332.5 68t-273 182.5t-182.5 273t-68 332.5q0 175 67.5 334t182.5 273.5t273.5 182.5
t332.5 68zM1155 63q115 42 198 142t121 233t30.5 295.5t-64.5 323.5q-77 215 -217.5 371t-308 216t-320.5 5q-92 -33 -164.5 -104t-116.5 -169t-62 -214t-4 -247t60 -260q77 -215 217.5 -371t308.5 -216t322 -5z" />
    <glyph glyph-name="uni1ED5" unicode="&#x1ed5;" horiz-adv-x="1062" 
d="M569 1671q105 68 199 30q70 -28 93 -96q30 -87 -37 -170q-34 -42 -89 -75l-10 4q79 96 44 164q-24 46 -82 52q-64 7 -103 -43l-13 -19l-2 4v149zM815 1110q-244 -21 -285 262q-7 -60 -24 -106.5t-48.5 -84.5t-85 -56.5t-126.5 -14.5l-21 147l4 3q47 -19 98.5 -12.5
t94.5 27t72.5 59t31.5 85.5h11q1 -47 30 -86t72.5 -59t94.5 -26.5t97 12.5l5 -3zM991 707q42 -94 44.5 -195.5t-31 -191.5t-101.5 -165.5t-162 -117.5t-195.5 -44.5t-191 31.5t-165 102.5t-117.5 162.5t-44.5 195.5t31.5 190.5t102.5 164t162.5 117t195 44.5t190.5 -30.5
t164.5 -101t117 -162zM737 45q69 32 100 119.5t18 206.5t-69 241q-85 187 -219.5 285t-240.5 51q-69 -31 -100.5 -118t-18.5 -206.5t69 -242.5q85 -186 220 -284.5t241 -51.5z" />
    <glyph glyph-name="uni1ED6" unicode="&#x1ed6;" horiz-adv-x="1748" 
d="M569 2286q50 46 106.5 52t103 -15t102.5 -64q56 -20 126 6.5t128 91.5l6 -2l67 -143q-51 -46 -106.5 -52.5t-103 14t-103.5 64.5q-54 22 -124.5 -5t-127.5 -91h-4zM1159 1815q-244 -21 -285 262q-7 -60 -24 -106.5t-48.5 -84.5t-85 -56.5t-126.5 -14.5l-21 147l4 2
q66 -19 131 -7.5t114 58.5t52 109h11q2 -62 51 -109t114 -58.5t130 7.5l4 -2zM874 1714q174 0 333 -68t274.5 -182.5t183.5 -273.5t68 -334q0 -174 -68 -332.5t-183.5 -273t-274.5 -182.5t-333 -68t-332.5 68t-273 182.5t-182.5 273t-68 332.5q0 175 67.5 334t182.5 273.5
t273.5 182.5t332.5 68zM1155 63q115 42 198 142t121 233t30.5 295.5t-64.5 323.5q-77 215 -217.5 371t-308 216t-320.5 5q-92 -33 -164.5 -104t-116.5 -169t-62 -214t-4 -247t60 -260q77 -215 217.5 -371t308.5 -216t322 -5z" />
    <glyph glyph-name="uni1ED7" unicode="&#x1ed7;" horiz-adv-x="1062" 
d="M225 1581q50 46 106.5 52t103 -15t102.5 -64q56 -20 126 6.5t128 92.5l6 -2l67 -144q-51 -46 -106.5 -52.5t-103 14.5t-103.5 65q-54 22 -124.5 -5t-127.5 -91h-4zM815 1110q-244 -21 -285 262q-7 -60 -24 -106.5t-48.5 -84.5t-85 -56.5t-126.5 -14.5l-21 147l4 3
q47 -19 98.5 -12.5t94.5 27t72.5 59t31.5 85.5h11q1 -47 30 -86t72.5 -59t94.5 -26.5t97 12.5l5 -3zM991 707q42 -94 44.5 -195.5t-31 -191.5t-101.5 -165.5t-162 -117.5t-195.5 -44.5t-191 31.5t-165 102.5t-117.5 162.5t-44.5 195.5t31.5 190.5t102.5 164t162.5 117
t195 44.5t190.5 -30.5t164.5 -101t117 -162zM737 45q69 32 100 119.5t18 206.5t-69 241q-85 187 -219.5 285t-240.5 51q-69 -31 -100.5 -118t-18.5 -206.5t69 -242.5q85 -186 220 -284.5t241 -51.5z" />
    <glyph glyph-name="uni1ED8" unicode="&#x1ed8;" horiz-adv-x="1748" 
d="M999 -258l-125 -125l-124 125l124 123zM1159 1815q-244 -21 -285 262q-7 -60 -24 -106.5t-48.5 -84.5t-85 -56.5t-126.5 -14.5l-21 147l4 2q66 -19 131 -7.5t114 58.5t52 109h11q2 -62 51 -109t114 -58.5t130 7.5l4 -2zM874 1714q174 0 333 -68t274.5 -182.5
t183.5 -273.5t68 -334q0 -174 -68 -332.5t-183.5 -273t-274.5 -182.5t-333 -68t-332.5 68t-273 182.5t-182.5 273t-68 332.5q0 175 67.5 334t182.5 273.5t273.5 182.5t332.5 68zM1155 63q115 42 198 142t121 233t30.5 295.5t-64.5 323.5q-77 215 -217.5 371t-308 216
t-320.5 5q-92 -33 -164.5 -104t-116.5 -169t-62 -214t-4 -247t60 -260q77 -215 217.5 -371t308.5 -216t322 -5z" />
    <glyph glyph-name="uni1ED9" unicode="&#x1ed9;" horiz-adv-x="1062" 
d="M655 -258l-125 -125l-124 125l124 123zM815 1110q-244 -21 -285 262q-7 -60 -24 -106.5t-48.5 -84.5t-85 -56.5t-126.5 -14.5l-21 147l4 3q47 -19 98.5 -12.5t94.5 27t72.5 59t31.5 85.5h11q1 -47 30 -86t72.5 -59t94.5 -26.5t97 12.5l5 -3zM991 707q42 -94 44.5 -195.5
t-31 -191.5t-101.5 -165.5t-162 -117.5t-195.5 -44.5t-191 31.5t-165 102.5t-117.5 162.5t-44.5 195.5t31.5 190.5t102.5 164t162.5 117t195 44.5t190.5 -30.5t164.5 -101t117 -162zM737 45q69 32 100 119.5t18 206.5t-69 241q-85 187 -219.5 285t-240.5 51
q-69 -31 -100.5 -118t-18.5 -206.5t69 -242.5q85 -186 220 -284.5t241 -51.5z" />
    <glyph glyph-name="uni1EDA" unicode="&#x1eda;" horiz-adv-x="1748" 
d="M750 1831v12q85 9 128.5 97.5t18.5 203.5l4 6l174 -36q5 -57 -10.5 -101.5t-43 -73t-73.5 -50.5t-91 -34.5t-107 -23.5zM874 1714q156 0 299 -54.5t259 -152.5q77 58 70.5 159.5t-79.5 170.5l4 2l162 41q38 -62 43.5 -116t-21.5 -100t-67.5 -83.5t-105.5 -79.5
q138 -121 216.5 -288.5t78.5 -356.5q0 -174 -68 -332.5t-183.5 -273t-274.5 -182.5t-333 -68t-332.5 68t-273 182.5t-182.5 273t-68 332.5q0 175 67.5 334t182.5 273.5t273.5 182.5t332.5 68zM1155 63q115 42 198 142t121 233t30.5 295.5t-64.5 323.5q-77 215 -217.5 371
t-308 216t-320.5 5q-92 -33 -164.5 -104t-116.5 -169t-62 -214t-4 -247t60 -260q77 -215 217.5 -371t308.5 -216t322 -5z" />
    <glyph glyph-name="uni1EDB" unicode="&#x1edb;" horiz-adv-x="1062" 
d="M438 1126v13q85 9 129 97.5t19 203.5l4 6l174 -37q5 -57 -10.5 -101.5t-43.5 -73t-74 -50.5t-91 -34.5t-107 -23.5zM991 707q42 -94 44.5 -195.5t-31 -191.5t-101.5 -165.5t-162 -117.5t-195.5 -44.5t-191 31.5t-165 102.5t-117.5 162.5t-44.5 195.5t31.5 190.5
t102.5 164t162.5 117q161 71 327 31t271 -172q51 63 37.5 152t-76.5 149l4 2l162 41q35 -58 42 -108.5t-13.5 -94t-55.5 -79.5t-90 -74q36 -45 59 -96zM737 45q69 32 100 119.5t18 206.5t-69 241q-85 187 -219.5 285t-240.5 51q-69 -31 -100.5 -118t-18.5 -206.5t69 -242.5
q85 -186 220 -284.5t241 -51.5z" />
    <glyph glyph-name="uni1EDC" unicode="&#x1edc;" horiz-adv-x="1748" 
d="M1020 1843v-12q-62 11 -107.5 23.5t-92 34.5t-74.5 50.5t-43.5 73t-10.5 101.5l174 36l6 -6q-26 -115 17.5 -203.5t130.5 -97.5zM874 1714q156 0 299 -54.5t259 -152.5q77 58 70.5 159.5t-79.5 170.5l4 2l162 41q38 -62 43.5 -116t-21.5 -100t-67.5 -83.5t-105.5 -79.5
q138 -121 216.5 -288.5t78.5 -356.5q0 -174 -68 -332.5t-183.5 -273t-274.5 -182.5t-333 -68t-332.5 68t-273 182.5t-182.5 273t-68 332.5q0 175 67.5 334t182.5 273.5t273.5 182.5t332.5 68zM1155 63q115 42 198 142t121 233t30.5 295.5t-64.5 323.5q-77 215 -217.5 371
t-308 216t-320.5 5q-92 -33 -164.5 -104t-116.5 -169t-62 -214t-4 -247t60 -260q77 -215 217.5 -371t308.5 -216t322 -5z" />
    <glyph glyph-name="uni1EDD" unicode="&#x1edd;" horiz-adv-x="1062" 
d="M666 1139v-13q-62 11 -107.5 23.5t-91.5 34.5t-73.5 50.5t-43 73t-10.5 101.5l172 37l6 -6q-26 -115 18.5 -203.5t129.5 -97.5zM991 707q42 -94 44.5 -195.5t-31 -191.5t-101.5 -165.5t-162 -117.5t-195.5 -44.5t-191 31.5t-165 102.5t-117.5 162.5t-44.5 195.5
t31.5 190.5t102.5 164t162.5 117q161 71 327 31t271 -172q51 63 37.5 152t-76.5 149l4 2l162 41q35 -58 42 -108.5t-13.5 -94t-55.5 -79.5t-90 -74q36 -45 59 -96zM737 45q69 32 100 119.5t18 206.5t-69 241q-85 187 -219.5 285t-240.5 51q-69 -31 -100.5 -118t-18.5 -206.5
t69 -242.5q85 -186 220 -284.5t241 -51.5z" />
    <glyph glyph-name="uni1EDE" unicode="&#x1ede;" horiz-adv-x="1748" 
d="M737 2132q102 67 196 30q70 -27 94 -95q31 -86 -34 -169q-33 -43 -90 -77l-10 2q79 98 43 166q-25 46 -83 50q-65 5 -104 -45l-10 -16l-2 4v150zM874 1714q156 0 299 -54.5t259 -152.5q77 58 70.5 159.5t-79.5 170.5l4 2l162 41q38 -62 43.5 -116t-21.5 -100t-67.5 -83.5
t-105.5 -79.5q138 -121 216.5 -288.5t78.5 -356.5q0 -174 -68 -332.5t-183.5 -273t-274.5 -182.5t-333 -68t-332.5 68t-273 182.5t-182.5 273t-68 332.5q0 175 67.5 334t182.5 273.5t273.5 182.5t332.5 68zM1155 63q115 42 198 142t121 233t30.5 295.5t-64.5 323.5
q-77 215 -217.5 371t-308 216t-320.5 5q-92 -33 -164.5 -104t-116.5 -169t-62 -214t-4 -247t60 -260q77 -215 217.5 -371t308.5 -216t322 -5z" />
    <glyph glyph-name="uni1EDF" unicode="&#x1edf;" horiz-adv-x="1062" 
d="M360 1440q102 67 196 31q69 -27 94 -95q32 -85 -32 -169q-34 -44 -92 -79l-10 5q79 96 44 164q-24 46 -82 51q-64 7 -103 -43q-7 -9 -13 -19l-2 4v150zM991 707q42 -94 44.5 -195.5t-31 -191.5t-101.5 -165.5t-162 -117.5t-195.5 -44.5t-191 31.5t-165 102.5
t-117.5 162.5t-44.5 195.5t31.5 190.5t102.5 164t162.5 117q161 71 327 31t271 -172q51 63 37.5 152t-76.5 149l4 2l162 41q35 -58 42 -108.5t-13.5 -94t-55.5 -79.5t-90 -74q36 -45 59 -96zM737 45q69 32 100 119.5t18 206.5t-69 241q-85 187 -219.5 285t-240.5 51
q-69 -31 -100.5 -118t-18.5 -206.5t69 -242.5q85 -186 220 -284.5t241 -51.5z" />
    <glyph glyph-name="uni1EE0" unicode="&#x1ee0;" horiz-adv-x="1748" 
d="M557 1970q49 46 105 52t102.5 -14.5t103.5 -63.5q56 -22 125.5 5t126.5 93l6 -2l68 -144q-51 -47 -106 -54t-102 14t-105 65q-54 23 -123.5 -3.5t-126.5 -92.5l-4 2zM874 1714q156 0 299 -54.5t259 -152.5q77 58 70.5 159.5t-79.5 170.5l4 2l162 41q38 -62 43.5 -116
t-21.5 -100t-67.5 -83.5t-105.5 -79.5q138 -121 216.5 -288.5t78.5 -356.5q0 -174 -68 -332.5t-183.5 -273t-274.5 -182.5t-333 -68t-332.5 68t-273 182.5t-182.5 273t-68 332.5q0 175 67.5 334t182.5 273.5t273.5 182.5t332.5 68zM1155 63q115 42 198 142t121 233
t30.5 295.5t-64.5 323.5q-77 215 -217.5 371t-308 216t-320.5 5q-92 -33 -164.5 -104t-116.5 -169t-62 -214t-4 -247t60 -260q77 -215 217.5 -371t308.5 -216t322 -5z" />
    <glyph glyph-name="uni1EE1" unicode="&#x1ee1;" horiz-adv-x="1062" 
d="M213 1249q49 46 105 52t102.5 -14.5t103.5 -63.5q56 -22 125.5 5t126.5 93l6 -2l68 -143q-51 -47 -106 -54t-102.5 13.5t-104.5 64.5q-54 23 -123.5 -3.5t-126.5 -92.5l-4 2zM991 707q42 -94 44.5 -195.5t-31 -191.5t-101.5 -165.5t-162 -117.5t-195.5 -44.5t-191 31.5
t-165 102.5t-117.5 162.5t-44.5 195.5t31.5 190.5t102.5 164t162.5 117q161 71 327 31t271 -172q51 63 37.5 152t-76.5 149l4 2l162 41q35 -58 42 -108.5t-13.5 -94t-55.5 -79.5t-90 -74q36 -45 59 -96zM737 45q69 32 100 119.5t18 206.5t-69 241q-85 187 -219.5 285
t-240.5 51q-69 -31 -100.5 -118t-18.5 -206.5t69 -242.5q85 -186 220 -284.5t241 -51.5z" />
    <glyph glyph-name="uni1EE2" unicode="&#x1ee2;" horiz-adv-x="1748" 
d="M999 -258l-125 -125l-124 125l124 123zM874 1714q156 0 299 -54.5t259 -152.5q77 58 70.5 159.5t-79.5 170.5l4 2l162 41q38 -62 43.5 -116t-21.5 -100t-67.5 -83.5t-105.5 -79.5q138 -121 216.5 -288.5t78.5 -356.5q0 -174 -68 -332.5t-183.5 -273t-274.5 -182.5
t-333 -68t-332.5 68t-273 182.5t-182.5 273t-68 332.5q0 175 67.5 334t182.5 273.5t273.5 182.5t332.5 68zM1155 63q115 42 198 142t121 233t30.5 295.5t-64.5 323.5q-77 215 -217.5 371t-308 216t-320.5 5q-92 -33 -164.5 -104t-116.5 -169t-62 -214t-4 -247t60 -260
q77 -215 217.5 -371t308.5 -216t322 -5z" />
    <glyph glyph-name="uni1EE3" unicode="&#x1ee3;" horiz-adv-x="1062" 
d="M655 -258l-125 -125l-124 125l124 123zM991 707q42 -94 44.5 -195.5t-31 -191.5t-101.5 -165.5t-162 -117.5t-195.5 -44.5t-191 31.5t-165 102.5t-117.5 162.5t-44.5 195.5t31.5 190.5t102.5 164t162.5 117q161 71 327 31t271 -172q51 63 37.5 152t-76.5 149l4 2l162 41
q35 -58 42 -108.5t-13.5 -94t-55.5 -79.5t-90 -74q36 -45 59 -96zM737 45q69 32 100 119.5t18 206.5t-69 241q-85 187 -219.5 285t-240.5 51q-69 -31 -100.5 -118t-18.5 -206.5t69 -242.5q85 -186 220 -284.5t241 -51.5z" />
    <glyph glyph-name="uni1EE4" unicode="&#x1ee4;" horiz-adv-x="1732" 
d="M989 -258l-125 -125l-123 125l123 123zM1681 823q0 -22 -4.5 -66t-30.5 -147t-71 -192q-30 -60 -68.5 -112.5t-99.5 -108.5t-134.5 -97t-176.5 -69.5t-222 -34.5h-22q-119 6 -222 34.5t-176 69.5t-134 97t-99.5 108.5t-68.5 112.5q-44 89 -69 192.5t-28.5 144t-3.5 60.5
v10v887h254v-905q0 -196 88 -400t217 -303q81 -49 154 -72t106 -22l33 2q112 7 209 36t166 68.5t127 93.5t94.5 104.5t65.5 107.5q28 55 49 115.5t30.5 105t15 87.5t6.5 58.5t1 22.5v2v2v895h14v-887z" />
    <glyph glyph-name="uni1EE5" unicode="&#x1ee5;" horiz-adv-x="1159" 
d="M694 -258l-125 -125l-123 125l123 123zM1085 49l2 -2q49 -49 130 -49h-238q-77 0 -129 49q-34 34 -43 80q-138 -90 -267.5 -114t-225.5 11.5t-161.5 120.5t-84.5 207q-4 27 -7 87.5t-3 107.5l-1 47l-4 532q0 -40 13.5 -70.5t35.5 -51.5t48 -41.5t52 -46.5t48 -59.5
t35.5 -88.5t13.5 -125v-16q-8 -115 1.5 -204.5t31 -146.5t57 -97.5t72 -60.5t84.5 -34q106 -30 256 55q-2 10 -2 29l-8 958q0 -40 13.5 -70.5t35 -51.5t48 -41.5t52.5 -46.5t47.5 -59.5t35 -88.5t13.5 -125v-473q0 -72 49 -121z" />
    <glyph glyph-name="uni1EE6" unicode="&#x1ee6;" horiz-adv-x="1732" 
d="M770 2132q102 67 196 30q70 -27 94 -95q31 -86 -34 -169q-33 -43 -90 -77l-10 2q79 98 43 166q-25 46 -83 50q-65 5 -104 -45l-10 -16l-2 4v150zM1681 823q0 -22 -4.5 -66t-30.5 -147t-71 -192q-30 -60 -68.5 -112.5t-99.5 -108.5t-134.5 -97t-176.5 -69.5t-222 -34.5
h-22q-119 6 -222 34.5t-176 69.5t-134 97t-99.5 108.5t-68.5 112.5q-44 89 -69 192.5t-28.5 144t-3.5 60.5v10v887h254v-905q0 -196 88 -400t217 -303q81 -49 154 -72t106 -22l33 2q112 7 209 36t166 68.5t127 93.5t94.5 104.5t65.5 107.5q28 55 49 115.5t30.5 105t15 87.5
t6.5 58.5t1 22.5v2v2v895h14v-887z" />
    <glyph glyph-name="uni1EE7" unicode="&#x1ee7;" horiz-adv-x="1159" 
d="M393 1440q102 67 196 31q69 -27 94 -95q32 -85 -32 -169q-34 -44 -92 -79l-10 5q79 96 44 164q-24 46 -82 51q-64 7 -103 -43q-7 -9 -13 -19l-2 4v150zM1085 49l2 -2q49 -49 130 -49h-238q-77 0 -129 49q-34 34 -43 80q-138 -90 -267.5 -114t-225.5 11.5t-161.5 120.5
t-84.5 207q-4 27 -7 87.5t-3 107.5l-1 47l-4 532q0 -40 13.5 -70.5t35.5 -51.5t48 -41.5t52 -46.5t48 -59.5t35.5 -88.5t13.5 -125v-16q-8 -115 1.5 -204.5t31 -146.5t57 -97.5t72 -60.5t84.5 -34q106 -30 256 55q-2 10 -2 29l-8 958q0 -40 13.5 -70.5t35 -51.5t48 -41.5
t52.5 -46.5t47.5 -59.5t35 -88.5t13.5 -125v-473q0 -72 49 -121z" />
    <glyph glyph-name="uni1EE8" unicode="&#x1ee8;" horiz-adv-x="1732" 
d="M782 1831v12q85 9 129 97.5t19 203.5l4 6l174 -36q5 -57 -10.5 -101.5t-43.5 -73t-74 -50.5t-91 -34.5t-107 -23.5zM1681 823q0 -22 -4.5 -66t-30.5 -147t-71 -192q-30 -60 -68.5 -112.5t-99.5 -108.5t-134.5 -97t-176.5 -69.5t-222 -34.5h-22q-119 6 -222 34.5
t-176 69.5t-134 97t-99.5 108.5t-68.5 112.5q-44 89 -69 192.5t-28.5 144t-3.5 60.5v897h254v-905q0 -196 88 -400t217 -303q81 -49 154 -72t106 -22l33 2q112 7 209 36t166 68.5t127 93.5t94.5 104.5t65.5 107.5q28 55 49 115.5t30.5 105t15 87.5t6.5 58.5t1 22.5v899h14
v-211q86 56 83 161t-78 177l4 2l161 41q32 -52 40 -99.5t-3 -85t-43 -76t-70.5 -68t-93.5 -64.5v-664z" />
    <glyph glyph-name="uni1EE9" unicode="&#x1ee9;" horiz-adv-x="1159" 
d="M389 1126v13q85 9 129 97.5t19 203.5l4 6l174 -37q5 -57 -10.5 -101.5t-43.5 -73t-74 -50.5t-91 -34.5t-107 -23.5zM1085 49l2 -2q46 -46 117 -49h-225q-77 0 -129 49q-34 34 -43 80q-138 -90 -267.5 -114t-225.5 11.5t-161.5 120.5t-84.5 207q-4 27 -7 87.5t-3 107.5
l-1 47l-4 532q0 -40 13.5 -70.5t35.5 -51.5t48 -41.5t52 -46.5t48 -59.5t35.5 -88.5t13.5 -125v-16q-8 -115 1.5 -204.5t31 -146.5t57 -97.5t72 -60.5t84.5 -34q106 -30 256 55q-2 10 -2 29l-8 958q0 -44 16.5 -77t43.5 -56.5t55.5 -46t58.5 -59t47 -82.5q59 61 47.5 155.5
t-78.5 155.5l4 2l162 41q36 -60 42.5 -112.5t-17 -97.5t-61 -81.5t-97.5 -76.5q22 -61 22 -148v-473q0 -72 49 -121z" />
    <glyph glyph-name="uni1EEA" unicode="&#x1eea;" horiz-adv-x="1732" 
d="M1085 1843v-12q-62 11 -107.5 23.5t-91.5 34.5t-74 50.5t-43.5 73t-10.5 101.5l174 36l6 -6q-26 -115 17.5 -203.5t129.5 -97.5zM1681 823q0 -22 -4.5 -66t-30.5 -147t-71 -192q-30 -60 -68.5 -112.5t-99.5 -108.5t-134.5 -97t-176.5 -69.5t-222 -34.5h-22
q-119 6 -222 34.5t-176 69.5t-134 97t-99.5 108.5t-68.5 112.5q-44 89 -69 192.5t-28.5 144t-3.5 60.5v897h254v-905q0 -196 88 -400t217 -303q81 -49 154 -72t106 -22l33 2q112 7 209 36t166 68.5t127 93.5t94.5 104.5t65.5 107.5q28 55 49 115.5t30.5 105t15 87.5
t6.5 58.5t1 22.5v899h14v-211q86 56 83 161t-78 177l4 2l161 41q32 -52 40 -99.5t-3 -85t-43 -76t-70.5 -68t-93.5 -64.5v-664z" />
    <glyph glyph-name="uni1EEB" unicode="&#x1eeb;" horiz-adv-x="1159" 
d="M649 1139v-13q-79 14 -133 31.5t-103.5 48.5t-72 82t-16.5 121l172 37l6 -6q-26 -115 18 -203.5t129 -97.5zM1085 49l2 -2q46 -46 117 -49h-225q-77 0 -129 49q-34 34 -43 80q-138 -90 -267.5 -114t-225.5 11.5t-161.5 120.5t-84.5 207q-4 27 -7 87.5t-3 107.5l-1 47
l-4 532q0 -40 13.5 -70.5t35.5 -51.5t48 -41.5t52 -46.5t48 -59.5t35.5 -88.5t13.5 -125v-16q-8 -115 1.5 -204.5t31 -146.5t57 -97.5t72 -60.5t84.5 -34q106 -30 256 55q-2 10 -2 29l-8 958q0 -44 16.5 -77t43.5 -56.5t55.5 -46t58.5 -59t47 -82.5q59 61 47.5 155.5
t-78.5 155.5l4 2l162 41q36 -60 42.5 -112.5t-17 -97.5t-61 -81.5t-97.5 -76.5q22 -61 22 -148v-473q0 -72 49 -121z" />
    <glyph glyph-name="uni1EEC" unicode="&#x1eec;" horiz-adv-x="1732" 
d="M770 2132q102 67 196 30q70 -27 94 -95q31 -86 -34 -169q-33 -43 -90 -77l-10 2q79 98 43 166q-25 46 -83 50q-65 5 -104 -45l-10 -16l-2 4v150zM1681 823q0 -22 -4.5 -66t-30.5 -147t-71 -192q-30 -60 -68.5 -112.5t-99.5 -108.5t-134.5 -97t-176.5 -69.5t-222 -34.5
h-22q-119 6 -222 34.5t-176 69.5t-134 97t-99.5 108.5t-68.5 112.5q-44 89 -69 192.5t-28.5 144t-3.5 60.5v897h254v-905q0 -196 88 -400t217 -303q81 -49 154 -72t106 -22l33 2q112 7 209 36t166 68.5t127 93.5t94.5 104.5t65.5 107.5q28 55 49 115.5t30.5 105t15 87.5
t6.5 58.5t1 22.5v899h14v-211q86 56 83 161t-78 177l4 2l161 41q32 -52 40 -99.5t-3 -85t-43 -76t-70.5 -68t-93.5 -64.5v-664z" />
    <glyph glyph-name="uni1EED" unicode="&#x1eed;" horiz-adv-x="1159" 
d="M393 1440q102 67 196 31q69 -27 94 -95q32 -85 -32 -169q-34 -44 -92 -79l-10 5q79 96 44 164q-24 46 -82 51q-64 7 -103 -43q-7 -9 -13 -19l-2 4v150zM1085 49l2 -2q46 -46 117 -49h-225q-77 0 -129 49q-34 34 -43 80q-138 -90 -267.5 -114t-225.5 11.5t-161.5 120.5
t-84.5 207q-4 27 -7 87.5t-3 107.5l-1 47l-4 532q0 -40 13.5 -70.5t35.5 -51.5t48 -41.5t52 -46.5t48 -59.5t35.5 -88.5t13.5 -125v-16q-8 -115 1.5 -204.5t31 -146.5t57 -97.5t72 -60.5t84.5 -34q106 -30 256 55q-2 10 -2 29l-8 958q0 -44 16.5 -77t43.5 -56.5t55.5 -46
t58.5 -59t47 -82.5q59 61 47.5 155.5t-78.5 155.5l4 2l162 41q36 -60 42.5 -112.5t-17 -97.5t-61 -81.5t-97.5 -76.5q22 -61 22 -148v-473q0 -72 49 -121z" />
    <glyph glyph-name="uni1EEE" unicode="&#x1eee;" horiz-adv-x="1732" 
d="M606 1970q49 46 105 52t103 -14.5t104 -63.5q56 -22 125 5t126 93l7 -2l67 -144q-51 -47 -106 -54t-102 14t-105 65q-54 23 -123.5 -3.5t-126.5 -92.5l-4 2zM1681 823q0 -22 -4.5 -66t-30.5 -147t-71 -192q-30 -60 -68.5 -112.5t-99.5 -108.5t-134.5 -97t-176.5 -69.5
t-222 -34.5h-22q-119 6 -222 34.5t-176 69.5t-134 97t-99.5 108.5t-68.5 112.5q-44 89 -69 192.5t-28.5 144t-3.5 60.5v897h254v-905q0 -196 88 -400t217 -303q81 -49 154 -72t106 -22l33 2q112 7 209 36t166 68.5t127 93.5t94.5 104.5t65.5 107.5q28 55 49 115.5t30.5 105
t15 87.5t6.5 58.5t1 22.5v899h14v-211q86 56 83 161t-78 177l4 2l161 41q32 -52 40 -99.5t-3 -85t-43 -76t-70.5 -68t-93.5 -64.5v-664z" />
    <glyph glyph-name="uni1EEF" unicode="&#x1eef;" horiz-adv-x="1159" 
d="M164 1282q49 46 105 51.5t102.5 -15t103.5 -63.5q56 -22 125.5 5.5t126.5 93.5l6 -2l68 -144q-51 -47 -106.5 -54t-102.5 14t-105 65q-54 23 -123 -3.5t-126 -92.5l-5 2zM1085 49l2 -2q46 -46 117 -49h-225q-77 0 -129 49q-34 34 -43 80q-138 -90 -267.5 -114
t-225.5 11.5t-161.5 120.5t-84.5 207q-4 27 -7 87.5t-3 107.5l-1 47l-4 532q0 -40 13.5 -70.5t35.5 -51.5t48 -41.5t52 -46.5t48 -59.5t35.5 -88.5t13.5 -125v-16q-8 -115 1.5 -204.5t31 -146.5t57 -97.5t72 -60.5t84.5 -34q106 -30 256 55q-2 10 -2 29l-8 958
q0 -44 16.5 -77t43.5 -56.5t55.5 -46t58.5 -59t47 -82.5q59 61 47.5 155.5t-78.5 155.5l4 2l162 41q36 -60 42.5 -112.5t-17 -97.5t-61 -81.5t-97.5 -76.5q22 -61 22 -148v-473q0 -72 49 -121z" />
    <glyph glyph-name="uni1EF0" unicode="&#x1ef0;" horiz-adv-x="1732" 
d="M989 -258l-125 -125l-123 125l123 123zM1681 823q0 -22 -4.5 -66t-30.5 -147t-71 -192q-30 -60 -68.5 -112.5t-99.5 -108.5t-134.5 -97t-176.5 -69.5t-222 -34.5h-22q-119 6 -222 34.5t-176 69.5t-134 97t-99.5 108.5t-68.5 112.5q-44 89 -69 192.5t-28.5 144t-3.5 60.5
v897h254v-905q0 -196 88 -400t217 -303q81 -49 154 -72t106 -22l33 2q112 7 209 36t166 68.5t127 93.5t94.5 104.5t65.5 107.5q28 55 49 115.5t30.5 105t15 87.5t6.5 58.5t1 22.5v899h14v-211q86 56 83 161t-78 177l4 2l161 41q32 -52 40 -99.5t-3 -85t-43 -76t-70.5 -68
t-93.5 -64.5v-664z" />
    <glyph glyph-name="uni1EF1" unicode="&#x1ef1;" horiz-adv-x="1159" 
d="M694 -258l-125 -125l-123 125l123 123zM1085 49l2 -2q46 -46 117 -49h-225q-77 0 -129 49q-34 34 -43 80q-138 -90 -267.5 -114t-225.5 11.5t-161.5 120.5t-84.5 207q-4 27 -7 87.5t-3 107.5l-1 47l-4 532q0 -40 13.5 -70.5t35.5 -51.5t48 -41.5t52 -46.5t48 -59.5
t35.5 -88.5t13.5 -125v-16q-8 -115 1.5 -204.5t31 -146.5t57 -97.5t72 -60.5t84.5 -34q106 -30 256 55q-2 10 -2 29l-8 958q0 -44 16.5 -77t43.5 -56.5t55.5 -46t58.5 -59t47 -82.5q59 61 47.5 155.5t-78.5 155.5l4 2l162 41q36 -60 42.5 -112.5t-17 -97.5t-61 -81.5
t-97.5 -76.5q22 -61 22 -148v-473q0 -72 49 -121z" />
    <glyph glyph-name="Ygrave" unicode="&#x1ef2;" horiz-adv-x="1830" 
d="M1100 1843v-12q-62 11 -107.5 23.5t-91.5 34.5t-73.5 50.5t-43 73t-10.5 101.5l172 36l6 -6q-26 -115 18.5 -203.5t129.5 -97.5zM1860 1698l-682 -1446l161 -254h-282l-357 -754l-12 6l356 756l-1081 1690h291l913 -1430l680 1438z" />
    <glyph glyph-name="ygrave" unicode="&#x1ef3;" horiz-adv-x="1073" 
d="M682 1139v-13q-62 11 -107.5 23.5t-91.5 34.5t-73.5 50.5t-43 73t-10.5 101.5l172 37l7 -6q-26 -115 18 -203.5t129 -97.5zM1069 1016l10 -12l-487 -955q-69 -180 -139.5 -304t-138.5 -191t-139 -87.5t-138.5 1.5t-138.5 83q-39 52 -41.5 107t26.5 103.5t79 93t119 79
t144.5 59t157 34.5t154.5 4q-48 73 -129 166.5t-143.5 168.5t-124 170.5t-96 215.5t-34.5 260h10h236q-4 -106 19 -200t61 -160t88 -129t95 -107t87.5 -93.5t61.5 -89.5zM184 -426v-2q45 -7 87 11.5t75.5 52t71.5 95.5t66.5 120t68.5 147l-2 2l2 4q-3 4 -8 12.5t-8 12.5
q-156 4 -290.5 -40t-202 -118.5t-38.5 -153.5q22 -58 69.5 -96t108.5 -47z" />
    <glyph glyph-name="uni1EF4" unicode="&#x1ef4;" horiz-adv-x="1830" 
d="M1350 -258l-125 -125l-123 125l123 123zM1860 1698l-682 -1446l161 -254h-282l-357 -754l-12 6l356 756l-1081 1690h291l913 -1430l680 1438z" />
    <glyph glyph-name="uni1EF5" unicode="&#x1ef5;" horiz-adv-x="1073" 
d="M825 -258l-125 -125l-122 125l122 123zM1069 1016l10 -12l-487 -955q-69 -180 -139.5 -304t-138.5 -191t-139 -87.5t-138.5 1.5t-138.5 83q-39 52 -41.5 107t26.5 103.5t79 93t119 79t144.5 59t157 34.5t154.5 4q-48 73 -129 166.5t-143.5 168.5t-124 170.5t-96 215.5
t-34.5 260h10h236q-4 -106 19 -200t61 -160t88 -129t95 -107t87.5 -93.5t61.5 -89.5zM184 -426v-2q45 -7 87 11.5t75.5 52t71.5 95.5t66.5 120t68.5 147l-2 2l2 4q-3 4 -8 12.5t-8 12.5q-156 4 -290.5 -40t-202 -118.5t-38.5 -153.5q22 -58 69.5 -96t108.5 -47z" />
    <glyph glyph-name="uni1EF6" unicode="&#x1ef6;" horiz-adv-x="1830" 
d="M836 2132q102 67 196 30q69 -27 94 -95q31 -86 -35 -169q-33 -43 -90 -77l-10 2q79 98 43 166q-24 46 -82 50q-64 6 -103 -44q-6 -8 -11 -17l-2 4v150zM1860 1698l-682 -1446l161 -254h-282l-357 -754l-12 6l356 756l-1081 1690h291l913 -1430l680 1438z" />
    <glyph glyph-name="uni1EF7" unicode="&#x1ef7;" horiz-adv-x="1073" 
d="M393 1440q102 67 196 31q69 -27 94 -95q32 -85 -32 -169q-34 -44 -92 -79l-10 5q79 96 44 164q-24 46 -82 51q-64 7 -103 -43q-7 -9 -13 -19l-2 4v150zM1069 1016l10 -12l-487 -955q-69 -180 -139.5 -304t-138.5 -191t-139 -87.5t-138.5 1.5t-138.5 83q-39 52 -41.5 107
t26.5 103.5t79 93t119 79t144.5 59t157 34.5t154.5 4q-48 73 -129 166.5t-143.5 168.5t-124 170.5t-96 215.5t-34.5 260h10h236q-4 -106 19 -200t61 -160t88 -129t95 -107t87.5 -93.5t61.5 -89.5zM184 -426v-2q45 -7 87 11.5t75.5 52t71.5 95.5t66.5 120t68.5 147l-2 2l2 4
q-3 4 -8 12.5t-8 12.5q-156 4 -290.5 -40t-202 -118.5t-38.5 -153.5q22 -58 69.5 -96t108.5 -47z" />
    <glyph glyph-name="uni1EF8" unicode="&#x1ef8;" horiz-adv-x="1830" 
d="M623 1970q49 46 105 52t102.5 -14.5t103.5 -63.5q56 -22 125.5 5t126.5 93l6 -2l68 -144q-51 -47 -106.5 -54t-102.5 14t-105 65q-54 23 -123.5 -3.5t-126.5 -92.5l-4 2zM1860 1698l-682 -1446l161 -254h-282l-357 -754l-12 6l356 756l-1081 1690h291l913 -1430l680 1438
z" />
    <glyph glyph-name="uni1EF9" unicode="&#x1ef9;" horiz-adv-x="1073" 
d="M246 1282q49 46 105 51.5t102.5 -15t103.5 -63.5q56 -22 125.5 5.5t126.5 93.5l6 -2l68 -144q-51 -47 -106.5 -54t-102.5 14t-105 65q-54 23 -123.5 -3.5t-126.5 -92.5l-4 2zM1069 1016l10 -12l-487 -955q-69 -180 -139.5 -304t-138.5 -191t-139 -87.5t-138.5 1.5
t-138.5 83q-39 52 -41.5 107t26.5 103.5t79 93t119 79t144.5 59t157 34.5t154.5 4q-48 73 -129 166.5t-143.5 168.5t-124 170.5t-96 215.5t-34.5 260h10h236q-4 -106 19 -200t61 -160t88 -129t95 -107t87.5 -93.5t61.5 -89.5zM184 -426v-2q45 -7 87 11.5t75.5 52t71.5 95.5
t66.5 120t68.5 147l-2 2l2 4q-3 4 -8 12.5t-8 12.5q-156 4 -290.5 -40t-202 -118.5t-38.5 -153.5q22 -58 69.5 -96t108.5 -47z" />
    </font>
</defs>
</svg>
